<svg width="123" height="76" viewBox="0 0 123 76" fill="none" xmlns="http://www.w3.org/2000/svg">
<path fill-rule="evenodd" clip-rule="evenodd" d="M7.15136 5.43022C5.5453 8.77889 6.19615 9.14418 4.68842 12.4413C2.64222 16.914 2.72182 15.0172 0.301025 19.5508L12.5268 28.0372C35.8451 46.4103 44.264 54.9905 75.8654 65.4392C91.4344 70.5863 97.4981 68.7691 101.595 70.3802C106.282 72.2255 102.859 72.3005 108.239 75.1995C114.055 71.879 111.377 72.085 113.98 66.8349C118.391 57.9504 114.678 65.1207 122.202 60.8916C120.559 53.6088 115.9 51.7495 113.713 46.3354C111.007 39.6428 112.21 32.1211 110.618 24.5293C105.238 21.8176 99.7691 21.8082 95.8733 19.6445C88.9481 15.7947 92.7408 12.0011 86.7942 6.75562C82.9499 4.85414 82.4349 6.00627 78.5297 4.47478C75.0039 3.08848 75.5658 1.93637 71.478 0.161346C50.0936 12.6849 58.3767 6.12335 49.0916 8.32925C41.2345 10.1979 51.0722 10.0247 42.1757 11.8606C37.0484 12.919 32.0992 8.53532 26.8596 7.73913C19.0353 6.55422 14.9897 7.35043 7.14668 5.42085L7.15136 5.43022Z" fill="#A7863A"/>
</svg>
