<svg width="109" height="80" viewBox="0 0 109 80" fill="none" xmlns="http://www.w3.org/2000/svg">
<path fill-rule="evenodd" clip-rule="evenodd" d="M0.800095 54.0517C-0.871518 64.9126 8.83975 68.3736 16.5095 71.4179C19.3002 72.5232 39.5375 79.4172 42.5108 79.6186C46.3504 71.3242 45.0768 75.2443 50.0588 68.9778C53.9171 64.1258 52.8542 61.859 55.4201 56.2201C69.1817 53.8034 75.1939 58.9693 87.1761 60.0699L87.2838 47.9304C94.3027 43.9963 91.0812 49.8787 96.5128 43.3687C96.9764 42.8161 101.556 34.8121 102.164 33.7349C106.435 26.2273 109.3 23.0426 108.247 11.3293C102.338 12.3456 101.874 18.4528 79.8248 14.9402C75.1939 14.2049 71.6306 12.7203 67.8613 10.4441C59.0678 5.13307 66.5408 8.5426 51.9599 7.4373L47.8066 0.533905C40.8111 0.754027 41.682 1.83122 35.6324 3.69523C23.3926 7.47009 26.6047 6.7067 27.2462 8.73931C29.166 14.8559 27.6255 6.23835 30.0744 13.1886C31.4978 17.221 29.8637 15.1978 31.1841 19.7688C33.6658 28.3629 44.5711 33.023 26.6094 42.6522C22.8541 44.6661 25.2796 43.7996 22.2548 45.7994C18.9631 47.9726 6.8872 50.8997 0.804782 54.0657L0.800095 54.0517Z" fill="#A7863A"/>
</svg>
