<svg width="126" height="95" viewBox="0 0 126 95" fill="none" xmlns="http://www.w3.org/2000/svg">
<path fill-rule="evenodd" clip-rule="evenodd" d="M97.9207 7.82365C95.0223 27.2506 83.5598 15.0643 83.7003 31.831C72.1301 31.4516 70.3742 21.9208 50.2024 24.5998C41.7507 38.0834 46.1475 38.8936 41.4464 45.5066C36.3707 41.3384 29.024 33.0253 20.1696 37.217C17.4398 38.5096 12.8323 42.7809 10.6316 44.57C6.03347 48.3167 5.95855 47.5299 0.592529 50.8645C1.09823 59.2854 16.1006 85.3394 23.775 88.6599C41.8631 96.4813 36.867 68.1464 68.225 83.8407L69.6999 94.6828C80.9283 95.3807 71.0297 94.444 90.3165 88.9878C86.7953 80.5857 85.6107 87.0442 85.8167 73.5746C82.1457 74.0429 80.9517 75.1856 78.2593 73.8368C75.4546 63.004 76.1476 58.3908 86.505 54.7143C91.2857 53.0189 106.944 48.8928 108.831 47.2114C112.497 42.2282 102.008 42.0737 115.372 25.2086C120.569 18.6471 127.747 12.0762 125.584 0.320757C113.7 -0.957824 113.583 6.9338 97.9113 7.82834L97.9207 7.82365Z" fill="#A7863A"/>
</svg>
