<svg width="130" height="160" viewBox="0 0 130 160" fill="none" xmlns="http://www.w3.org/2000/svg">
<path fill-rule="evenodd" clip-rule="evenodd" d="M0.668488 6.19775C1.23037 14.6561 1.22569 11.209 5.04652 17.335C5.81912 18.5761 10.0895 26.0321 10.436 26.9267C12.1122 31.2823 11.4146 34.2422 13.62 39.3144C14.7859 41.998 17.3378 46.9531 18.8455 49.5618C33.7964 75.3957 29.0672 56.423 38.652 91.2538C44.8562 113.805 57.0351 103.506 87.6486 133.897C97.1163 143.296 91.4366 144.453 93.333 158.986L121.095 159.496C122.823 159.398 123.909 159.346 125.59 158.925C128.943 158.082 127.369 158.747 129.767 157.22C127.252 152.125 124.724 154.035 122.045 150.19C119.77 146.926 120.833 143.91 118.182 140.229C111.552 131.021 117.489 146.27 104.294 125.125C86.6887 96.9114 76.4811 106.166 70.2488 73.2834C68.418 63.6215 65.4587 61.9073 65.7771 48.5221C65.8754 44.2882 66.4701 38.9959 65.6413 34.9026C64.4941 29.2544 61.9891 29.3433 60.4673 24.8987C56.698 13.8926 63.8105 8.59099 64.7376 0.666595C51.7674 1.23798 9.50416 3.37831 0.668488 6.19775Z" fill="#A7863A"/>
</svg>
