<svg width="50" height="77" viewBox="0 0 50 77" fill="none" xmlns="http://www.w3.org/2000/svg">
<path fill-rule="evenodd" clip-rule="evenodd" d="M45.3094 25.1608C45.2532 25.7134 45.3703 25.3668 45.0097 25.3902L45.2438 25.6197C44.4993 25.9101 44.902 25.7087 44.5134 26.5939C44.4151 26.814 44.4572 26.6548 44.4244 26.8421L44.312 27.2168C44.2231 27.7413 44.2324 27.2964 44.106 27.6477C43.9936 27.9615 44.0826 27.5212 44.0967 27.8959C44.1341 28.7342 43.7408 28.4766 43.9187 29.3899C42.9307 34.3918 40.8143 37.5578 38.5949 41.9603C38.1828 42.7752 37.5788 44.1615 37.1246 44.8687C36.4035 46.0021 35.275 45.1076 35.0175 46.1473C34.9379 46.4798 35.1533 46.6906 34.6335 46.5173C34.4088 46.4423 33.7205 46.2082 33.9125 45.8897C34.1138 45.5619 33.786 45.4401 33.5941 45.501C33.271 45.604 33.4442 46.2737 32.7793 46.3955C32.3251 46.0583 33.0556 44.8593 32.283 45.7117C31.9365 46.0958 31.089 46.2831 30.6067 46.2644C29.8435 46.2316 30.513 45.0935 29.4221 45.974C29.2582 46.1051 28.7197 46.4611 28.5137 46.2456C28.3638 46.0817 28.6822 45.974 28.7478 45.8663C28.8883 45.6227 27.9705 45.22 27.7785 45.234C27.2026 45.2668 27.2447 45.7586 27.034 46.1332C26.9638 46.2597 26.4441 46.3908 26.4441 46.3815C26.3832 46.063 26.4721 45.6836 26.3691 45.4214C26.2848 45.2059 25.943 45.0841 25.8026 45.22C25.7604 45.2621 26.0648 45.4401 26.1116 45.7117C26.135 45.8569 26.0882 46.3815 25.8634 46.3627C25.6106 46.344 25.634 45.9506 25.3577 45.8288C25.1798 45.7492 25.2875 46.0349 25.1236 46.1894C24.5898 46.6953 24.4681 45.4354 24.4213 45.4401C23.2834 45.5665 23.5129 45.0139 23.6065 45.6181C23.7798 46.7421 23.1617 45.4916 23.0025 45.6368C22.1784 46.3627 21.5088 45.9038 22.155 45.7164C22.5296 45.6087 22.5202 45.59 22.5764 45.1966C22.642 44.7142 22.6092 44.85 22.2955 44.9858C20.9048 45.5759 21.7055 44.5971 21.668 44.494C21.5837 44.494 20.6145 44.4893 20.6145 44.4893C20.5677 44.5128 21.0593 44.7657 21.0172 45.1684C20.9891 45.4635 20.6004 45.8757 20.3242 45.5665C20.1275 45.3464 20.0479 45.0233 19.6031 45.042C19.0037 45.0701 18.9616 46.7421 18.9663 45.0795C18.9663 44.7423 19.0037 45.1122 18.601 45.1497C18.203 45.1825 18.1281 44.9155 17.7161 45.1638C17.3087 45.4073 17.407 45.604 17.2338 45.1684C16.8779 44.2739 16.8545 45.796 16.4237 45.8288C16.1287 45.8475 16.0304 45.782 16.1896 45.5291C16.3114 45.3277 16.2973 44.2083 16.2786 44.2037C16.2599 44.199 14.9066 45.3183 14.5742 44.8874C14.4431 44.7142 14.6444 44.2271 14.3963 44.1756C14.2137 44.1334 13.8952 44.6205 13.6377 44.7142C13.1554 44.8921 13.0805 43.9461 12.4109 45.1638C12.1909 45.5619 11.7273 45.4916 11.3808 45.3043C10.8892 45.0373 11.3949 44.9109 11.6711 44.7423C12.4484 44.2645 11.4838 44.405 10.8611 44.1756C10.2758 43.9554 9.92458 45.3839 9.79348 44.8734C9.72792 44.6299 9.95736 44.2224 9.81221 44.1147C9.62959 43.9835 9.00683 44.0725 8.82422 44.1896C8.43558 44.4472 8.01885 45.693 8.30916 43.8852C8.36535 43.5433 8.14996 43.459 7.85965 43.4777C7.33522 43.5152 7.31649 43.4122 6.85294 43.2061C6.96531 43.8056 7.77537 45.1919 8.07504 45.8522L9.96672 49.8847C10.2617 50.4701 10.1212 50.3811 10.5192 51.0228L11.8022 53.6502C12.0176 54.1466 12.6497 54.1607 13.132 54.0483C12.8698 54.1935 12.72 54.7367 12.7574 55.0131C13.1695 55.3128 13.5675 55.2191 13.8859 54.8445C14.3541 54.2965 13.8906 54.5962 14.6772 54.2309C15.0424 54.629 15.1033 54.9288 15.7354 54.5588C15.918 54.8257 16.11 55.2238 16.4284 55.4346C16.5736 55.2051 16.6579 55.1723 16.4846 54.896C16.9388 55.1817 16.9622 55.1301 17.3415 54.8445C17.2197 54.2918 17.0371 54.4838 16.6579 54.0436L17.1261 54.1185L17.084 53.6876C17.7489 54.3574 16.9763 54.2918 17.599 54.9334L18.1 54.5822L18.5589 55.4954C18.7837 55.5001 18.8305 55.5095 18.9241 55.2847L19.2004 55.7296C19.5469 55.6079 19.8747 55.2894 20.0807 55.3456C20.0807 55.3456 21.0968 56.4602 22.4593 55.5657L22.6466 55.9029L22.9323 55.2285L23.2834 55.5798C23.8781 55.1723 23.3022 55.3549 23.939 55.1957C24.5851 55.0365 23.8734 54.9709 24.6132 55.0084L24.8005 54.3808C25.0066 54.6431 25.1283 54.7508 25.4139 54.9381C25.9384 55.2894 25.6387 55.0131 25.7042 55.4861C25.8775 55.561 26.5611 55.6125 26.6922 55.561C26.8561 55.5001 27.3758 55.0646 27.4789 54.9147C27.2213 54.4651 27.3337 54.5634 26.9029 54.5915C26.7671 54.1466 26.739 54.1888 27.1183 54.0014C27.0434 54.6618 27.4133 54.6056 27.8394 54.7742C28.1578 55.8467 27.5912 55.4299 27.6942 56.02C28.1906 56.1465 28.0642 55.9216 28.4153 55.7296C28.6588 55.5938 28.8742 55.8327 29.4829 55.6828C29.6562 55.2706 29.4221 55.2613 29.8435 55.0177C30.2649 54.7742 29.8481 55.3456 29.8201 55.5048L30.5084 55.4954C30.1431 55.8935 30.1338 55.753 30.2274 56.2027C30.6442 56.212 30.691 56.3619 30.6301 55.753L30.9626 55.8982C31.3044 55.5142 31.5479 54.7274 32.0301 54.7648C32.4703 54.4229 32.3204 54.5588 32.4937 54.1232L34.9004 49.2992C35.1954 48.8356 34.774 49.0604 35.3172 48.948C35.7526 48.8965 36.9186 46.0864 37.2744 45.4214L43.1321 33.8486C43.5582 33.0149 44.1341 31.1415 44.3917 30.3828L45.0519 28.4158C45.2064 27.938 45.7355 27.5821 45.979 27.3901C46.8312 26.711 47.1917 22.7535 46.7375 22.2008C46.5549 22.3179 46.6907 23.6105 46.6486 24.0227C46.5175 25.2732 46.6907 24.6081 46.082 25.4324C45.5342 25.1373 45.7542 25.3715 45.3141 24.9687L45.2907 25.1701L45.3094 25.1608Z" fill="#E94C40"/>
<path fill-rule="evenodd" clip-rule="evenodd" d="M5.91178 9.59766L5.92583 10.0566L6.38939 9.85994C6.90913 9.34476 7.41951 8.69844 7.96735 8.16453C8.55265 7.59783 9.0724 7.1248 9.68579 6.60026C10.0463 6.29115 10.2664 6.09444 10.6504 5.8228C10.8564 5.67762 11.0343 5.60737 11.2216 5.49496C11.4417 5.36383 12.9822 4.0712 13.6377 3.99626C14.0779 3.32184 16.1334 2.77388 16.9575 2.29149L18.5496 1.39226C21.3262 0.366588 24.7444 0.0387472 27.6943 0.57266L29.3471 0.867717C29.7732 0.99417 29.7311 1.00822 29.8716 1.16746C30.8549 1.10657 35.7011 3.34994 36.3473 4.05246C36.8296 4.24917 39.124 5.93052 38.9788 6.83443C38.5621 6.87658 37.6958 6.13191 37.2744 5.88369C36.5206 5.43876 36.1085 5.0032 35.6543 4.97042L36.0898 5.13902L35.9915 5.40598C37.2463 6.26773 39.3909 8.17858 40.2524 9.44311C40.8237 9.48526 41.3762 10.82 41.7133 11.2556C43.3662 13.3959 44.4057 16.1217 45.3 18.6227C45.8526 20.1682 45.6653 19.3064 45.993 19.9809L45.8057 20.3368C46.171 20.1354 45.8713 20.2525 46.2084 20.3087C46.0305 21.044 46.3629 20.9644 46.4004 21.236C46.48 21.8074 46.5221 22.2102 46.3536 22.7113C46.1476 23.3342 46.2506 23.1937 45.8432 23.737C45.7589 23.4232 45.7355 22.9876 45.4124 22.7301C44.8365 22.2664 45.4312 23.0298 45.1408 22.6364C44.8271 22.2149 45.5107 22.8565 45.0566 22.3039C44.8365 22.0322 44.902 22.243 44.7428 22.0088L44.5977 21.5873C44.5462 21.4187 44.504 21.3297 44.4713 21.222C43.8813 19.5219 42.6358 15.9953 41.8491 14.6043L40.9314 13.1243C40.805 12.9089 40.7862 12.8058 40.6177 12.5576L38.5153 9.74753C38.1313 9.34944 37.93 9.0497 37.6958 9.00286C37.1995 8.78743 36.8998 9.06375 37.1808 9.43374C37.34 9.63981 37.6771 9.6164 37.251 9.97702C36.7968 10.3564 36.3848 9.05438 36.3426 8.71249C36.3099 8.41275 36.1834 9.05907 36.0055 9.19489C35.7011 9.42906 35.4202 8.95135 35.2282 9.134C34.9754 9.36817 35.3874 9.24172 34.8209 9.38691C34.3807 9.49931 34.5914 9.85994 34.3152 10.1503C33.9687 10.0473 33.9031 9.77095 33.6034 9.63045C32.9292 9.31197 32.475 10.1222 32.9292 8.46427C31.9178 8.41743 32.2549 8.88578 32.18 9.18084C32.1051 9.48058 30.9017 9.75222 30.8876 8.89515C30.8783 8.35187 30.2555 8.93261 30.101 9.30729C29.7873 10.0801 29.5344 10.0801 29.6281 9.18552C29.7545 7.95377 29.2394 9.04033 28.9913 9.21362C28.612 9.48526 28.4715 9.26045 28.2 9.34476C27.6849 9.50399 28.4341 10.1925 26.8608 9.93019C25.7792 9.74753 26.3457 9.50868 26.3926 9.06843L25.5825 8.71718C25.4842 8.92325 25.915 9.8131 24.7771 9.95829C24.5383 9.71475 24.9551 9.62576 24.8333 9.48994C24.7724 9.42438 24.3744 9.36349 24.2995 9.54146C24.0233 10.2018 23.8547 9.01692 23.8547 9.77563C23.8547 10.6936 23.2413 9.52273 22.5858 9.69133C21.3918 10.0004 22.1082 9.08717 21.4901 9.32134C20.8018 9.58361 20.5255 9.14337 20.4085 9.63045C20.268 10.2065 19.4673 10.4735 19.6031 10.0613C19.664 9.87399 19.9496 9.76627 19.9074 9.31197C19.884 9.06843 19.6405 9.0216 19.4673 9.16679C18.985 9.57425 19.4064 9.91614 18.3904 9.31197C18.2218 9.48526 18.3108 9.72412 18.2639 9.89272C18.1984 10.1363 18.0111 9.88804 17.8472 9.97702C17.5803 10.1269 17.7208 10.8247 17.3321 9.98639C16.892 9.04033 16.9107 10.0988 16.8405 10.258C16.7562 10.4547 16.8264 10.066 16.5174 10.0707C16.1803 10.0801 16.0492 10.3376 15.6231 10.3236C15.4077 9.98639 15.8665 9.75222 15.4592 9.72412C14.9347 9.68665 14.8973 9.8131 14.5508 9.33071C14.3682 9.07312 14.1481 9.03565 14.2511 9.34944C14.3916 9.78968 14.7568 9.65386 14.7381 10.1082C14.2745 10.6889 14.1247 9.77095 13.6003 10.1363C12.9916 10.5625 12.8979 10.0239 13.0618 9.66791C13.132 9.51804 13.4223 9.31197 13.2678 9.20894C13.1835 9.15274 12.7902 9.12463 12.72 9.23235C12.6263 9.38691 12.9962 10.333 12.4952 9.66791C12.0551 9.08248 12.3173 9.96297 11.9942 10.2346C11.3761 10.7545 11.6852 9.85994 11.6664 9.6726C11.5915 8.87641 11.1795 9.28387 11.2544 9.63513C11.3199 9.94424 11.3106 10.6514 10.8564 10.4922C10.655 10.0004 11.1139 9.48994 10.5989 9.14805C10.1774 8.86705 10.449 9.63045 10.2524 9.99576C9.92459 10.0894 10.1259 9.7007 9.62024 9.94424C8.7259 10.3704 8.70717 9.12932 8.19679 9.8412C7.73792 10.4782 8.14528 10.2627 7.24627 10.4641C6.8108 10.6421 5.07832 13.2414 4.75992 13.8034C2.73712 17.3581 2.56388 18.2901 1.38391 21.8683C1.14043 22.5989 1.1217 23.2452 0.962499 23.9431C0.850122 24.4395 0.775204 25.2825 0.522355 25.6994L0.269505 26.0319C0.157128 26.5798 0.424024 26.5611 0.452119 27.2449L0.662826 27.0154C0.522354 26.7344 0.550449 27.006 0.653461 26.7859C1.09361 25.8539 1.37455 24.491 1.4682 23.4747C1.58057 22.7582 2.93378 17.6251 3.56123 17.1942L3.7813 17.049C4.08097 16.8711 4.06692 16.7118 4.51643 16.4776C4.72246 16.8757 4.44151 16.7212 4.82547 16.9273C4.8442 16.9366 5.33117 17.1474 5.33585 17.1474C5.95393 17.316 6.04757 16.8476 6.60946 17.4237C7.68173 16.8992 7.46166 17.3581 7.7426 17.7422C8.07037 17.2176 7.60681 17.3113 7.44293 16.9132C7.85498 16.6837 7.41951 16.9413 7.85498 16.9507C8.061 16.9554 8.2998 16.857 8.50583 16.8289L8.41218 17.6204L8.96002 17.0724L9.21755 17.508C9.50786 17.3113 9.65301 17.2504 9.99483 17.5783C10.2336 17.2129 9.88245 17.2504 10.3085 17.2083C10.435 17.1942 10.3928 17.3628 10.8611 16.9366C11.025 17.227 11.0624 17.3207 11.4464 17.0397C11.4838 16.4683 11.4089 16.9132 11.2872 16.5011C11.7929 16.5104 11.9474 16.7165 11.8163 17.1942C12.0129 17.0678 12.5748 16.8992 12.6685 16.946C12.8558 16.768 12.7012 16.8851 13.029 16.7961C13.1461 16.754 14.4197 15.3208 14.7334 15.0492C15.3889 14.4872 16.0819 13.9767 16.8452 13.5692C20.3757 11.6677 24.7959 11.5226 28.1672 13.7612C29.0381 14.342 31.3278 16.3559 31.7539 17.2364C32.0957 17.405 32.0021 17.3862 32.18 17.6579L32.4001 17.5736C32.2736 17.1521 32.2736 17.0162 32.6155 16.7259L33.8048 16.8383C33.9921 16.6041 33.9078 16.7587 33.8844 16.3933C34.0014 16.4636 34.3011 16.6416 34.4135 16.7165C34.1841 17.1567 34.3152 16.5947 34.067 17.0022L34.4182 17.3207C35.1018 17.0724 34.6008 17.1052 34.9379 16.384C35.0128 16.2247 35.0316 16.5151 35.0128 16.0421C35.6637 16.6509 35.9165 16.9319 36.3707 16.3746L36.6002 16.7961C36.956 16.3559 36.7266 16.473 37.2042 16.2716C37.2136 16.5432 36.9841 17.0303 37.4664 17.0443L38.1219 16.7821L37.5366 16.6369C37.9534 16.103 37.8223 16.487 38.2062 15.7517L38.2624 16.3512C38.342 16.3793 38.8618 16.2997 39.1614 16.3512C39.2083 16.6978 39.1848 16.4214 38.9975 16.6322L39.3675 16.9226C39.433 16.3746 39.1989 16.7914 39.7795 16.6088L39.9059 15.8547L40.3039 16.6041C40.0043 16.6275 39.714 16.7493 39.9528 17.1661C40.1962 17.5876 41.0297 17.5595 41.0297 16.9975C40.6645 17.0022 40.9501 17.0771 40.5615 17.2551C40.2384 16.6978 40.4257 16.3278 40.9876 16.0608C41.8679 16.6369 41.231 16.7587 41.2966 17.1661C41.423 17.9857 42.102 18.1965 42.102 18.1965C42.205 17.8452 42.2752 17.9014 42.5655 17.8639C42.7013 18.1075 42.8605 18.6461 42.9729 18.9458L43.3007 20.0511C43.2819 20.3274 43.4365 20.6131 43.5067 20.9222C43.6706 21.6201 43.399 21.0768 43.9094 21.6482C43.5301 21.8589 43.7174 21.5826 43.6144 21.9011C43.9515 22.0931 43.9983 22.0041 44.0311 22.3413C44.1154 23.2921 44.2746 22.6926 44.6071 23.4373C44.8318 23.9431 44.4853 22.9221 44.6492 23.6714C44.6913 23.8681 44.6492 23.751 44.7803 23.9993L45.0331 23.9665C45.3235 23.9665 44.9957 23.8353 45.3188 23.9852C45.2579 24.3365 45.2111 24.4629 44.7803 24.4255C45.2111 24.5098 44.8552 24.3786 44.9161 24.58C44.9161 24.5847 44.9161 24.6128 44.9208 24.6222C45.0191 24.9547 45.0847 24.7205 45.3 25.1701L45.3235 24.9687C45.7589 25.3715 45.5435 25.1373 46.0914 25.4324C46.7048 24.6081 46.5268 25.2778 46.6579 24.0227C46.7001 23.6105 46.5643 22.3179 46.7469 22.2008C46.4472 19.0676 45.7496 18.1918 45.67 17.6766C45.5716 17.035 45.0472 16.0749 44.7616 15.5363L43.5957 13.4287C43.591 13.4287 43.5629 13.4381 43.5441 13.4334C43.5863 12.6466 43.3522 12.7309 43.1415 12.1033L42.5 10.169C42.4953 10.1597 42.4906 10.1269 42.4859 10.1175C42.3314 9.5602 42.0271 9.93019 42.2705 8.84363L42.2003 8.54389C41.0391 7.0967 40.716 6.72671 39.4236 5.69167C39.1099 5.43876 39.1567 5.35446 38.8758 5.13902C37.6724 4.21638 32.8496 1.10189 31.6696 1.35011C31.4542 1.05506 31.6087 1.06442 31.679 0.984803C30.8502 0.989487 29.0615 0.338488 28.0595 0.235452C23.3069 -0.24226 20.8861 -0.0923895 16.1569 1.62175C13.3334 2.64743 10.0417 4.97978 7.89712 7.11544C7.48507 7.53226 5.92583 9.1621 5.90242 9.59766H5.91178Z" fill="#F0574D"/>
<path fill-rule="evenodd" clip-rule="evenodd" d="M0.545759 28.6312L0.541077 29.1042C0.587901 29.3665 0.522347 29.2635 0.831385 29.4508C0.84075 29.4555 1.11701 29.7084 1.1451 29.7599C1.41668 30.2704 1.18256 29.8255 1.23407 30.1205C1.26216 30.2798 1.28089 30.3453 1.3324 30.5655C1.33708 30.5982 1.35113 30.6779 1.36049 30.706L2.84949 34.8649C2.90568 34.9913 2.95719 35.1178 2.99933 35.2349C3.39733 36.312 5.42949 40.5037 5.7198 40.8082C6.99341 41.6278 5.76194 40.6864 6.70778 40.855C7.09642 40.9252 7.20412 41.1547 7.62085 40.9252C7.91584 40.766 8.05163 40.5225 8.43559 40.6021C8.92255 40.7004 9.67642 41.6559 10.0744 41.3561C10.0791 41.3561 11.8397 39.8762 11.3949 40.6723C11.1233 41.1594 10.7253 41.4732 11.2169 42.1429C11.5072 42.5457 11.8397 41.0611 12.027 40.8878C12.4812 40.4616 12.9962 41.6324 13.4551 41.7729C13.6986 41.8479 14.2558 41.7121 14.2558 41.8994C14.2605 42.0914 14.0779 42.3396 14.3494 42.4567C14.8224 42.1289 14.7194 41.7683 14.8598 41.6699C14.9347 41.6184 15.3374 41.7964 15.6652 41.7402C16.2645 41.6418 16.1522 41.8947 16.4893 41.8198C16.8545 41.7449 17.1308 41.328 17.5007 41.3187C18.1375 41.2952 18.7041 42.2179 18.9569 41.5856C19.0412 41.3749 19.2706 41.8385 19.3971 41.9697C19.5001 42.0774 19.5141 41.609 19.767 41.3514C20.076 41.7168 19.678 42.2834 20.1322 42.0633C20.6379 41.8198 20.7362 42.1429 21.0499 42.5129C21.2326 42.2788 20.961 41.9884 21.2419 41.7168C22.1644 41.8807 21.4292 42.6581 22.7918 41.8432C23.0681 41.6793 22.8339 42.0961 22.8012 42.1664C22.6607 42.4661 22.7637 42.4146 23.1102 42.5457C24.529 43.0796 23.7283 42.246 24.5243 42.2413C24.8474 42.2413 24.8848 42.4286 25.1704 42.1617C25.8915 41.4873 25.0955 42.6488 25.2032 42.8455C25.3484 43.1124 25.6153 42.808 25.6996 42.6441C26.3129 41.403 26.0414 42.5879 26.4675 42.5926C27.2541 42.5972 26.3036 41.9041 26.4253 41.8338C27.2073 41.3795 27.02 41.9462 27.034 42.4521C27.4367 42.3069 27.5866 41.9369 27.6943 42.335C27.8769 43.0187 28.42 42.4989 28.715 42.2834C29.0053 42.068 29.1317 42.7003 29.4408 42.4052C29.717 42.1429 29.6421 42.4802 30.0963 42.719C30.19 42.616 30.7519 41.5575 31.0141 42.2319C30.7706 42.5551 30.0776 42.7893 30.5365 43.1265C31.2154 43.6276 30.9907 43.1452 30.897 42.8267C30.8221 42.5785 31.1873 42.63 31.4589 42.5972C31.7211 42.5691 31.782 43.0281 31.8897 42.7565C33.0556 39.8153 34.1653 41.8338 34.7834 40.4663C35.1346 39.6888 35.3593 40.3913 36.0008 40.293C36.5112 39.656 35.6215 39.1315 35.8135 38.9207C37.0871 37.5344 37.5694 38.5273 38.7072 38.4618C39.9012 38.3915 38.9179 38.0964 38.9648 37.5204C39.0069 37.0146 39.6765 36.9443 40.0979 37.0895C40.3929 37.1879 41.0203 37.3003 41.0999 36.8553C41.1561 36.5275 40.1775 36.195 40.9173 36.1762C41.6993 36.1575 41.9521 35.7781 42.0692 34.9819L41.5822 35.0335C41.704 35.4737 41.8117 35.1412 41.629 35.6517C41.2732 35.6845 41.4043 35.7032 41.1468 35.3519L40.8986 35.6236L40.8611 34.907L41.306 34.7197L40.7956 34.3497L40.8986 33.9329L40.4631 34.064C40.2852 33.4645 40.3507 33.8907 40.6036 33.3193C39.7795 33.3989 39.9387 32.6121 39.4517 32.6402C39.6578 33.0664 40.1213 33.4364 40.2805 33.7268L39.6905 34.5792L40.1307 34.6541L39.9293 35.1787C39.6952 34.8274 39.7889 35.0475 39.447 35.0194C39.5735 34.0921 39.4096 34.3497 38.9601 33.9282C38.431 33.427 38.9929 33.8813 38.0938 33.5676C38.1407 34.0687 38.3701 33.8532 38.0611 34.2888C37.3681 34.2326 37.7895 34.1623 37.4664 33.7315L37.3259 34.0687C37.5039 34.3918 37.6396 34.2888 37.635 34.7852C37.045 34.9866 36.9935 34.5792 36.8343 34.1202C36.7172 33.783 36.6704 33.7549 36.5627 33.502C36.3707 33.043 36.5393 33.4177 36.5767 33.1086L36.2068 33.0055L36.0664 33.3427C36.3333 33.591 36.3192 33.3381 36.4035 33.7924C36.0945 34.153 36.1366 33.9469 35.7058 34.0827C36.0617 34.2185 36.0523 33.9891 36.3614 34.3263C36.1179 34.8602 36.1179 34.6213 35.7339 34.6775C35.158 34.7618 35.6169 34.907 35.0784 35.0475C34.774 33.7174 35.3874 33.2303 35.4061 33.1601C34.8583 33.235 34.7881 33.3521 34.5586 33.8813C34.9754 34.2326 35.1673 34.0265 34.9754 34.7056C34.5071 34.7009 34.7553 34.5932 34.4088 34.5792C34.1466 34.5651 34.2917 34.6728 33.8797 34.626L34.0857 34.2982C33.772 34.0125 33.9312 33.9563 33.566 33.8813C33.4114 34.3169 33.8001 34.0125 33.6222 34.612L32.1004 34.7899C32.3532 35.0522 32.3439 34.8883 32.2783 35.1318C31.8569 35.1037 31.8054 35.0428 31.5385 34.6541L31.8101 34.2326L31.2014 34.153C30.9485 34.1202 30.2649 35.0803 29.9605 35.3566C29.4736 35.8016 29.0709 36.1294 28.523 36.5415C27.5912 37.2394 26.0788 38.1152 24.8661 38.2276H24.5992C24.4681 38.3212 24.4728 38.3213 24.3182 38.3915L23.7704 38.532C23.4754 38.5976 23.2975 38.6912 22.9697 38.7287C20.9001 38.9676 20.1041 38.4945 19.3362 38.4149L17.9455 38.1339C16.3956 37.6375 14.2933 36.1013 13.3568 34.9304L12.9728 34.9585C12.7949 35.4643 12.5046 35.6283 12.8885 35.9889L11.7882 35.7781L11.6711 36.1294C10.8845 35.8624 10.5614 36.312 9.99482 35.8859L10.744 35.7219C11.1186 35.6892 10.6925 35.9327 11.0671 35.6845C10.8938 35.1365 10.833 35.4175 10.641 35.1833C10.4818 34.9913 10.6223 35.0428 10.552 34.729C9.97609 35.0522 10.3039 35.1178 10.2008 35.5393L9.89181 35.0944L9.68578 35.4456C9.34865 34.7899 9.52658 35.1225 9.66237 34.6307C8.91319 34.7571 9.50785 34.8695 8.89914 34.5558L9.03025 35.0709C8.29511 35.3145 8.62756 35.0382 8.34662 34.8274L7.67704 34.9632C7.41482 34.4668 7.766 34.4387 7.42887 33.9844L7.16666 34.5698L6.41748 34.6307C6.38938 34.8368 6.59072 35.0335 6.29105 34.9445C6.12717 34.8977 6.08971 34.6213 6.08503 34.4434C6.45962 34.2794 6.34256 34.5511 6.5439 34.1717C6.11312 33.9422 6.4362 34.3872 6.12717 33.9891C5.73853 33.4879 5.89773 33.9282 5.69639 33.5956C6.25827 33.2397 6.47835 33.8907 6.39406 33.2444C5.7994 33.0196 5.78067 33.3662 5.16728 33.0149C5.23283 32.8276 5.2141 32.6824 5.49036 32.7948L4.49301 32.7152C4.59603 33.1367 4.39468 32.6355 4.8676 32.8838C4.39937 33.6238 4.22143 32.5747 3.299 32.8838C3.59399 33.1695 3.54717 32.9072 3.68296 33.2257C3.43479 33.4177 2.83076 33.4364 2.53577 33.324C2.06285 32.0595 1.94579 30.5374 1.72104 29.61C1.62739 29.2213 1.51033 28.7858 1.30899 28.5844C1.07955 28.3502 1.14042 28.3783 0.892256 28.0645C0.433382 28.4111 0.878209 28.308 0.550441 28.6593L0.545759 28.6312Z" fill="#EB4F43"/>
<path fill-rule="evenodd" clip-rule="evenodd" d="M7.25562 10.4688C8.15463 10.2674 7.74727 10.4828 8.20614 9.84588C8.71652 9.13868 8.73525 10.3751 9.62959 9.94892C10.14 9.70538 9.93862 10.0941 10.2617 10.0004C10.4584 9.63513 10.1868 8.87172 10.6082 9.15273C11.1233 9.49462 10.6644 10.0051 10.8657 10.4969C11.3246 10.6514 11.334 9.94423 11.2637 9.63981C11.1888 9.29324 11.6009 8.88109 11.6758 9.67728C11.6945 9.8693 11.3855 10.7592 12.0036 10.2393C12.3266 9.96765 12.0644 9.08716 12.5046 9.67259C13.0056 10.3376 12.6357 9.39159 12.7293 9.23703C12.7996 9.12931 13.1929 9.15273 13.2772 9.21362C13.4317 9.31665 13.1414 9.52272 13.0711 9.67259C12.9073 10.0239 12.9962 10.5671 13.6096 10.1409C14.134 9.77563 14.2886 10.6936 14.7474 10.1128C14.7662 9.65854 14.4009 9.79436 14.2605 9.35412C14.1621 9.04033 14.3775 9.07311 14.5601 9.33539C14.902 9.81778 14.9394 9.69133 15.4685 9.7288C15.8759 9.7569 15.417 9.98638 15.6324 10.3283C16.0585 10.3423 16.1896 10.0847 16.5267 10.0754C16.8358 10.0707 16.7655 10.4594 16.8498 10.2627C16.9201 10.1035 16.9013 9.04501 17.3415 9.99107C17.7301 10.8294 17.5896 10.1316 17.8565 9.9817C18.0204 9.88803 18.2077 10.1409 18.2733 9.8974C18.3201 9.7288 18.2311 9.48994 18.3997 9.31665C19.4158 9.92082 18.9944 9.57893 19.4767 9.17147C19.6499 9.02628 19.8934 9.07311 19.9168 9.31665C19.9589 9.77095 19.6733 9.87867 19.6124 10.066C19.4767 10.4781 20.2773 10.2159 20.4178 9.63513C20.5349 9.14805 20.8111 9.58829 21.4994 9.32602C22.1128 9.09185 21.4011 10.0051 22.5951 9.69601C23.2507 9.52741 23.864 10.6983 23.864 9.78031C23.864 9.02159 24.0373 10.2065 24.3089 9.54614C24.3838 9.36817 24.7818 9.42437 24.8427 9.49462C24.9644 9.63044 24.5477 9.71475 24.7865 9.96297C25.9196 9.81778 25.4935 8.93261 25.5919 8.72185L26.4019 9.07311C26.3504 9.51336 25.7838 9.75221 26.8701 9.93487C28.4434 10.1971 27.6989 9.50867 28.2093 9.34944C28.4809 9.26513 28.626 9.48994 29.0006 9.2183C29.2441 9.04033 29.7639 7.95845 29.6374 9.1902C29.5438 10.0847 29.7966 10.0847 30.1104 9.31197C30.2602 8.93729 30.883 8.35655 30.897 8.89983C30.9157 9.7569 32.1144 9.48994 32.1893 9.18552C32.2643 8.89046 31.9271 8.42211 32.9385 8.46895C32.4843 10.1269 32.9385 9.31665 33.6128 9.63513C33.9125 9.77563 33.978 10.052 34.3245 10.155C34.6008 9.8693 34.3854 9.50867 34.8302 9.39159C35.3968 9.2464 34.9894 9.37285 35.2376 9.13868C35.4296 8.95603 35.7105 9.43842 36.0149 9.19957C36.1881 9.06375 36.3145 8.41743 36.352 8.71717C36.3941 9.06375 36.8109 10.3611 37.2604 9.9817C37.6911 9.62108 37.3493 9.64449 37.1901 9.43842C36.9092 9.06843 37.2089 8.79679 37.7052 9.00754L37.6022 8.58603C36.7032 8.24414 34.5118 5.61673 30.808 4.23043C27.6474 3.04552 25.4514 2.64742 22.0754 2.78324C19.4251 2.88628 15.6558 3.87449 13.3989 5.29357C11.8912 6.23963 7.85964 8.86704 7.2603 10.4735L7.25562 10.4688Z" fill="#F05950"/>
<path fill-rule="evenodd" clip-rule="evenodd" d="M0.339723 29.3478C0.152427 29.8255 0.386547 32.3358 0.887562 32.7292L1.20128 32.481C1.44945 32.8182 1.25747 32.8276 1.39794 33.1835C1.53841 33.5301 1.71166 33.8813 1.83809 34.2232C2.03943 34.7712 2.11903 35.6329 2.47957 36.0404C4.1746 37.9513 8.09844 47.9364 8.72588 48.4703C9.21753 48.8871 9.59681 49.8051 9.80751 50.4326L13.0196 57.0504C13.2818 57.5046 13.2818 57.8278 13.4879 58.2306C13.6798 58.6099 13.9046 58.8347 14.0685 59.2844C14.3026 59.9447 14.0685 59.645 14.518 60.2398L17.187 65.8787C17.88 67.2509 18.4887 68.6513 19.1582 70.0095C19.7435 71.1944 20.4787 73.7 21.977 73.7656C22.9978 73.8124 23.3443 72.9507 23.7189 72.2247C24.0092 71.6627 24.5524 70.7354 24.7537 70.2249C25.1798 69.1524 26.3363 67.012 27.0012 66.0379C27.713 64.9935 28.5652 62.7454 29.216 61.7057C29.6047 61.0875 29.9324 61.0547 30.3351 59.5841L33.4629 53.1631C33.7486 52.6947 34.1044 51.6222 34.3713 51.1914C34.671 50.7136 35.4576 49.5006 35.3359 48.9527C34.7881 49.0651 35.2142 48.8403 34.9192 49.3039L32.5124 54.1279C32.3392 54.5681 32.489 54.4276 32.0489 54.7695C31.9646 55.3784 30.7331 57.4391 30.3726 58.1884C30.1993 58.5444 29.9137 59.5373 29.5297 59.5185C29.2441 59.5045 28.42 59.378 29.0053 58.9237L28.1906 59.6871C28.523 59.8651 28.6869 59.7855 28.8929 60.1227C28.4575 60.4365 28.2093 60.0056 27.8769 60.2913C28.0126 60.7175 28.5558 60.8674 28.1812 61.2795C27.6053 61.2093 27.8675 60.7128 27.5678 60.7315L27.0293 61.4294C26.8139 61.3404 26.7671 61.1858 26.5611 61.036C26.0601 60.6707 26.3363 60.7924 26.1584 60.3194C25.9618 59.7949 25.4233 60.2538 25.4841 59.2469C25.4045 59.5326 25.3015 59.6262 25.0346 59.6497C24.9363 59.4623 24.8801 59.2328 25.03 59.0596C24.8286 59.3499 24.7958 59.2141 24.66 59.6122C24.5664 59.8838 24.66 59.9916 24.4728 60.1742C24.1122 60.0384 24.042 59.7668 23.9015 59.4295C23.644 59.5935 23.7563 59.837 23.6861 60.1461C23.5831 60.591 23.466 60.488 23.1945 60.769C22.7028 61.2889 23.5082 62.0757 22.6513 62.1319C22.1175 61.7197 22.4125 61.0079 22.4921 60.3662C22.6092 59.4623 22.3189 59.6918 22.3142 59.1813C22.272 59.4857 21.5744 60.207 21.1108 60.1461C20.8533 60.1086 20.6941 59.8651 20.5723 60.0056C20.4319 60.1648 20.2165 60.5302 20.3054 60.7034C20.6145 60.8439 21.0827 60.1367 21.3356 60.5817C21.1529 61.0547 20.9656 60.8767 20.5864 61.036C20.282 61.1624 20.4131 61.3217 19.9777 61.4013C19.7389 61.1624 19.7763 61.125 19.87 60.7971C19.2753 60.9985 19.3409 60.488 19.2472 60.0852C18.2452 60.3756 18.7977 60.9048 18.6853 61.3825L17.5194 61.05C17.2806 60.6379 17.4117 60.4224 17.2759 60.2679C17.1308 60.0993 16.9575 60.2632 16.906 59.837C16.8311 59.2375 17.3883 59.2141 17.4117 58.9706C16.4752 59.5654 17.0746 59.4811 16.5221 59.9588C15.9789 59.9588 16.316 59.2984 16.3348 59.083C16.3441 58.9612 15.4357 59.4061 15.623 58.4882L16.4799 58.6849C16.4565 58.3898 15.4404 57.7248 15.3561 57.7248L15.1173 58.6708L15.6277 58.9799C15.1829 59.8792 14.1059 59.6356 14.8177 58.5818C14.0217 58.7504 14.2277 58.6989 13.8952 58.0151C13.2538 56.6944 12.3079 54.9334 11.8022 53.6595L10.5192 51.0321C10.1212 50.3905 10.2617 50.4795 9.96671 49.894L8.07503 45.8616C7.77536 45.2012 6.9653 43.8149 6.85293 43.2154L5.71042 40.8175C5.42011 40.5131 3.38796 36.3214 2.98995 35.2442C2.94781 35.1271 2.89162 35.0054 2.84012 34.8742L1.35112 30.7153C1.34644 30.6872 1.33239 30.6029 1.32302 30.5748C1.27152 30.3547 1.25279 30.2891 1.22469 30.1299C1.17319 29.8348 1.40731 30.2844 1.13573 29.7693C1.10763 29.7178 0.831373 29.4648 0.822009 29.4602C0.512971 29.2728 0.578525 29.3759 0.531701 29.1136L0.536383 28.6406L0.302264 28.2659L0.330358 29.3571L0.339723 29.3478Z" fill="#E74A3D"/>
<path fill-rule="evenodd" clip-rule="evenodd" d="M42.0598 34.9726C41.9427 35.7688 41.6946 36.1481 40.9079 36.1669C40.1728 36.1856 41.1514 36.5181 41.0905 36.846C41.0109 37.2909 40.3835 37.1785 40.0885 37.0801C39.6671 36.9396 38.9975 37.0099 38.9554 37.511C38.9086 38.0871 39.8919 38.3821 38.6978 38.4524C37.56 38.518 37.0777 37.5297 35.8041 38.9114C35.6122 39.1174 36.5018 39.6467 35.9914 40.2836C35.3546 40.382 35.1252 39.6795 34.774 40.4569C34.1559 41.8292 33.0415 39.8059 31.8803 42.7471C31.7726 43.0188 31.7117 42.5598 31.4495 42.5879C31.1779 42.6207 30.8127 42.5691 30.8876 42.8174C30.9813 43.1358 31.206 43.6182 30.5271 43.1171C30.0682 42.7799 30.7612 42.541 31.0047 42.2226C30.7425 41.5482 30.1806 42.6066 30.0869 42.7096C29.6327 42.4661 29.7077 42.1336 29.4314 42.3959C29.1224 42.6909 28.9959 42.0586 28.7056 42.2741C28.4153 42.4895 27.8675 43.0094 27.6849 42.3256C27.5772 41.9275 27.4273 42.2975 27.0247 42.4427C27.0106 41.9322 27.1979 41.3702 26.4159 41.8245C26.2942 41.8947 27.2447 42.5879 26.4581 42.5832C26.0367 42.5785 26.3036 41.3936 25.6902 42.6347C25.6059 42.7986 25.339 43.1031 25.1938 42.8361C25.0861 42.6394 25.8775 41.4779 25.1611 42.1523C24.8754 42.4193 24.838 42.2319 24.5149 42.2319C23.7189 42.2366 24.5196 43.0703 23.1008 42.5364C22.7543 42.4052 22.6513 42.4614 22.7918 42.157C22.8246 42.0867 23.054 41.6699 22.7824 41.8338C21.4198 42.6488 22.155 41.8713 21.2325 41.7074C20.9516 41.979 21.2279 42.2694 21.0406 42.5036C20.7315 42.1336 20.6285 41.8104 20.1228 42.054C19.6733 42.2741 20.0666 41.7074 19.7576 41.3421C19.5047 41.5997 19.4907 42.068 19.3877 41.9603C19.2659 41.8292 19.0318 41.3655 18.9475 41.5763C18.6947 42.2085 18.1281 41.2859 17.4913 41.3093C17.1214 41.3233 16.8451 41.7355 16.4799 41.8104C16.1428 41.8854 16.2505 41.6325 15.6558 41.7308C15.328 41.787 14.9254 41.609 14.8504 41.6606C14.71 41.7589 14.813 42.1195 14.3401 42.4474C14.0685 42.3303 14.2511 42.0821 14.2464 41.89C14.2417 41.7027 13.6892 41.8385 13.4457 41.7636C12.9869 41.6231 12.4718 40.4522 12.0176 40.8784C11.8303 41.0564 11.4979 42.5364 11.2075 42.1336C10.7206 41.4638 11.1139 41.1454 11.3855 40.663C11.8303 39.8668 10.0697 41.3421 10.065 41.3468C9.66704 41.6465 8.91317 40.6958 8.4262 40.5927C8.04225 40.5131 7.90178 40.7566 7.61147 40.9159C7.19005 41.1454 7.08236 40.9159 6.6984 40.8456C5.75256 40.6817 6.98403 41.6231 5.71042 40.7988L6.85292 43.1967C7.31648 43.4028 7.33521 43.5058 7.85964 43.4684C8.14994 43.4496 8.36533 43.5339 8.30914 43.8758C8.01415 45.6836 8.43557 44.4378 8.82421 44.1802C9.00214 44.0632 9.62958 43.9742 9.81219 44.1053C9.95735 44.213 9.73259 44.6205 9.79346 44.864C9.92925 45.3745 10.2757 43.9461 10.861 44.1662C11.4791 44.3957 12.4437 44.2552 11.6711 44.7329C11.3995 44.9015 10.8938 45.0233 11.3808 45.2949C11.7226 45.4822 12.1908 45.5525 12.4109 45.1544C13.0805 43.9367 13.1507 44.8828 13.6377 44.7048C13.8952 44.6064 14.2136 44.124 14.3962 44.1662C14.6444 44.2177 14.4431 44.7048 14.5742 44.8781C14.9066 45.309 16.2552 44.1896 16.2786 44.1943C16.2973 44.199 16.3113 45.3183 16.1896 45.5197C16.0351 45.7773 16.1287 45.8429 16.4237 45.8195C16.8545 45.7914 16.8779 44.2645 17.2338 45.1591C17.407 45.5946 17.3087 45.4026 17.7161 45.1544C18.1281 44.9062 18.2077 45.1778 18.601 45.1404C19.0037 45.1029 18.9663 44.7329 18.9663 45.0701C18.9616 46.7327 18.999 45.0607 19.6031 45.0326C20.0479 45.0139 20.1275 45.3371 20.3242 45.5572C20.6004 45.8616 20.9891 45.4541 21.0171 45.1591C21.0546 44.7563 20.5676 44.5034 20.6145 44.48C20.6191 44.48 21.5837 44.48 21.668 44.4847C21.7055 44.5877 20.9001 45.5665 22.2954 44.9764C22.6092 44.8453 22.6419 44.7048 22.5764 45.1872C22.5249 45.5759 22.5296 45.5946 22.155 45.7071C21.5041 45.8991 22.1784 46.3581 23.0025 45.6274C23.1617 45.4869 23.7798 46.7327 23.6065 45.6087C23.5129 45.0045 23.2881 45.5572 24.4212 45.4307C24.4681 45.426 24.5898 46.6859 25.1236 46.1801C25.2875 46.0255 25.1798 45.7398 25.3577 45.8195C25.6293 45.9412 25.6106 46.3346 25.8634 46.3534C26.0882 46.3674 26.135 45.8476 26.1116 45.7024C26.0648 45.426 25.7604 45.2481 25.8025 45.2106C25.943 45.0748 26.2848 45.1966 26.3691 45.412C26.4721 45.6696 26.3832 46.0536 26.444 46.3721C26.444 46.3815 26.9638 46.2503 27.034 46.1239C27.2447 45.7492 27.1979 45.2574 27.7785 45.2247C27.9752 45.2153 28.8882 45.6181 28.7478 45.8569C28.6822 45.9693 28.3638 46.077 28.5137 46.2363C28.7197 46.4564 29.2582 46.0958 29.422 45.9646C30.513 45.0842 29.8435 46.2222 30.6067 46.255C31.089 46.2737 31.9318 46.0864 32.283 45.7024C33.0556 44.85 32.3251 46.0489 32.7793 46.3862C33.4442 46.2597 33.271 45.59 33.594 45.4916C33.7813 45.4307 34.1138 45.5525 33.9124 45.8803C33.7158 46.1988 34.4041 46.433 34.6335 46.5079C35.1533 46.6812 34.9379 46.4705 35.0175 46.1379C35.275 45.0982 36.4035 45.9927 37.1246 44.8593C37.5741 44.1521 38.1828 42.7658 38.5948 41.9509C40.8143 37.5485 42.9307 34.3872 43.9187 29.3806L43.6424 29.493C43.5816 30.4109 43.4692 30.2236 43.3709 30.5982C43.2023 31.2446 42.8418 33.31 42.3876 34.0687L41.8444 33.9048C42.0458 33.5957 41.924 33.591 42.3173 33.6472C41.9053 33.3615 42.1347 33.3428 41.7742 33.3381C42.0177 33.6612 41.9287 33.9656 41.8116 34.3029C41.8444 34.3075 41.9568 34.2841 42.2331 34.4387L42.0551 34.9585L42.0598 34.9726Z" fill="#EA4E42"/>
<path fill-rule="evenodd" clip-rule="evenodd" d="M46.7563 22.1914C47.2151 22.7488 46.8499 26.7063 45.9977 27.3807C45.7589 27.5727 45.2298 27.9287 45.0706 28.4064L44.4104 30.3734C44.1529 31.1321 43.5722 33.0055 43.1508 33.8392L37.2932 45.412C36.9373 46.077 35.7714 48.8871 35.3359 48.9386C35.4577 49.4866 34.671 50.6949 34.3713 51.1773C34.1044 51.6082 33.7486 52.6807 33.463 53.149L30.3351 59.57C29.9324 61.0406 29.6047 61.0734 29.216 61.6916C28.5652 62.7267 27.713 64.9794 27.0013 66.0238C26.3364 66.998 25.1751 69.1383 24.7537 70.2108C24.5524 70.7213 24.0092 71.6533 23.7189 72.2107C23.3443 72.9366 22.9978 73.7984 21.9771 73.7515C20.474 73.686 19.7436 71.185 19.1583 69.9954C18.4887 68.6325 17.8753 67.2368 17.187 65.8646L14.518 60.2257C14.0732 59.6309 14.3073 59.926 14.0685 59.2703C13.9046 58.8207 13.6799 58.5959 13.4879 58.2165C13.2819 57.8138 13.2865 57.4953 13.0196 57.0363L9.80753 50.4186C9.59682 49.791 9.21755 48.8731 8.7259 48.4562C8.09846 47.9223 4.17461 37.9372 2.47959 36.0264C2.11905 35.6236 2.03945 34.7618 1.8381 34.2092C1.71168 33.8673 1.53843 33.5207 1.39796 33.1694C1.25749 32.8182 1.44946 32.8041 1.2013 32.4669L0.887578 32.7152C0.6956 33.2163 1.41669 35.6329 1.74914 36.3167C2.01135 36.8553 1.74914 36.4994 2.08627 36.7476L2.06286 36.2746C2.32039 36.6165 2.57792 37.0005 2.64347 37.408C2.67625 37.5906 3.196 38.1854 3.34583 38.429C3.88899 39.3188 3.70638 39.553 4.42278 40.4475C4.62881 40.7051 4.47897 40.6676 4.56325 40.9768L6.87167 45.8007C7.01682 46.3487 6.93722 46.1145 7.21817 46.5501L10.1493 52.662C10.5005 53.7626 11.1373 54.5681 11.5915 55.5891C11.7601 55.9685 11.7554 56.0387 11.8631 56.39L12.94 58.6146C13.4551 59.6543 14.0123 60.6472 14.518 61.7104C14.6538 61.9961 15.1501 62.9655 15.1876 63.1903C15.4498 64.8015 17.9408 69.0212 18.6807 70.8946C18.9803 71.644 19.5937 73.4518 20.3663 73.7328C21.1295 74.0091 20.9657 74.2854 21.9536 74.1824C22.5951 74.1168 23.1992 74.0559 23.7095 73.6157C24.3463 73.0677 27.3056 66.3095 28.4153 64.6844L30.087 62.0101C30.5458 60.9563 31.1592 60.0009 31.5244 58.9097C31.7071 58.3523 31.9225 58.268 32.1285 57.7388C32.2643 57.3922 32.4094 57.3454 32.5546 57.0504C32.7044 56.7412 32.6248 56.6335 32.7606 56.3478C32.9058 56.034 33.4676 55.2519 33.683 54.8866C33.8469 54.6056 34.0998 53.8375 34.2871 53.43C34.5727 52.8165 34.9285 52.587 35.1158 51.9969C35.4061 51.0649 36.7172 49.0229 37.3212 47.749C38.0517 46.1988 39.4002 43.2014 40.1635 41.9509C40.6598 41.136 41.2264 39.5951 41.718 38.9395C42.4812 37.9185 44.0779 34.3965 44.4057 33.4224C44.6726 32.6402 45.1127 31.1883 45.6091 30.6029C45.9603 30.1861 46.3302 28.5001 46.5034 27.8818C46.7844 26.9077 47.0091 25.9101 47.1121 24.9032C47.1917 24.0882 47.1121 22.2383 47.3135 21.6435C47.3416 21.0487 47.0606 20.2478 46.9904 19.742C46.9295 19.3205 46.7469 18.2995 46.8078 18.0466C46.4285 17.8546 46.7001 18.0606 46.6486 17.6813C46.5643 17.0537 45.183 13.8315 45.2111 13.6629L44.8271 12.6887C44.4806 12.1595 44.0826 11.4383 43.6706 10.7873C43.2492 10.1222 42.7388 9.48057 42.2752 8.81552C42.0317 9.90208 42.3361 9.53209 42.4906 10.0894C42.4953 10.0988 42.5 10.1316 42.5047 10.1409L43.1461 12.0752C43.3568 12.7028 43.591 12.6185 43.5488 13.4053C43.5676 13.41 43.5956 13.4006 43.6003 13.4006L44.7662 15.5082C45.0519 16.0468 45.5716 17.0069 45.6746 17.6485C45.7542 18.1637 46.4519 19.0395 46.7516 22.1727L46.7563 22.1914Z" fill="#D63F31"/>
<path fill-rule="evenodd" clip-rule="evenodd" d="M32.0489 54.7602C31.5666 54.7227 31.3231 55.5095 30.9813 55.8935L30.6488 55.7484C30.7097 56.3572 30.6629 56.2073 30.2462 56.198C30.1525 55.7484 30.1619 55.8889 30.5271 55.4908L29.8388 55.5001C29.8622 55.3456 30.2836 54.7695 29.8622 55.0131C29.4408 55.2566 29.6749 55.266 29.5017 55.6781C28.8883 55.8327 28.6776 55.5938 28.4341 55.7249C28.0829 55.917 28.2093 56.1418 27.713 56.0153C27.61 55.4252 28.1719 55.8467 27.8581 54.7695C27.432 54.6009 27.0621 54.6618 27.137 53.9968C26.7531 54.1841 26.7859 54.1466 26.9217 54.5869C27.3524 54.5588 27.2401 54.4604 27.4976 54.91C27.3946 55.0599 26.8748 55.4955 26.711 55.5563C26.5752 55.6032 25.8962 55.5563 25.723 55.4814C25.6574 55.0084 25.9571 55.2847 25.4327 54.9334C25.147 54.7461 25.0253 54.6384 24.8193 54.3761L24.632 55.0037C23.8875 54.9662 24.6039 55.0271 23.9577 55.191C23.3209 55.3503 23.8968 55.1676 23.3022 55.5751L22.951 55.2238L22.6654 55.8982L22.4781 55.561C21.1155 56.4556 20.0994 55.3409 20.0994 55.3409C19.8934 55.2847 19.5656 55.6032 19.2191 55.7249L18.9429 55.28C18.8492 55.5048 18.8071 55.4908 18.5776 55.4908L18.1188 54.5775L17.6178 54.9288C16.995 54.2871 17.7723 54.3527 17.1027 53.683L17.1448 54.1138L16.6766 54.0389C17.0559 54.4791 17.2385 54.2824 17.3602 54.8398C16.9809 55.1255 16.9529 55.1723 16.5033 54.8913C16.6766 55.1676 16.5923 55.2004 16.4472 55.4299C16.1288 55.2238 15.9368 54.8257 15.7542 54.5541C15.1174 54.9241 15.0612 54.6243 14.6959 54.2262C13.9093 54.5915 14.3729 54.2871 13.9046 54.8398C13.5862 55.2144 13.1882 55.3081 12.7762 55.0084C12.7387 54.7321 12.8885 54.1888 13.1508 54.0436C12.6685 54.156 12.0363 54.1373 11.821 53.6455C12.3267 54.9194 13.2725 56.6804 13.914 58.0011C14.2464 58.6849 14.0404 58.7364 14.8364 58.5678C14.1247 59.6216 15.2016 59.8651 15.6465 58.9659L15.1361 58.6568L15.3749 57.7107C15.4545 57.7107 16.4706 58.3758 16.4987 58.6708L15.6418 58.4741C15.4592 59.3968 16.3676 58.9518 16.3535 59.0689C16.3348 59.2844 15.9976 59.94 16.5408 59.9447C17.0933 59.467 16.494 59.5513 17.4305 58.9565C17.4024 59.2001 16.8498 59.2235 16.9248 59.823C16.9763 60.2492 17.1495 60.0852 17.2947 60.2538C17.4258 60.4084 17.2947 60.6238 17.5382 61.036L18.7041 61.3685C18.8164 60.8908 18.2639 60.3616 19.266 60.0712C19.3596 60.474 19.294 60.9798 19.8887 60.7831C19.7951 61.1109 19.7576 61.1484 19.9964 61.3872C20.4319 61.3123 20.3008 61.1484 20.6051 61.0219C20.9891 60.8627 21.1717 61.0407 21.3543 60.5676C21.1014 60.1227 20.6285 60.8252 20.3242 60.6894C20.2352 60.5114 20.4506 60.1508 20.5911 59.9916C20.7128 59.8511 20.872 60.0946 21.1295 60.1321C21.5931 60.1976 22.2908 59.4717 22.3329 59.1673C22.3376 59.6778 22.6279 59.4483 22.5108 60.3522C22.4266 60.9938 22.1363 61.7057 22.67 62.1178C23.5269 62.0616 22.7216 61.2748 23.2132 60.755C23.4801 60.474 23.6018 60.577 23.7049 60.1321C23.7751 59.823 23.6674 59.5794 23.9202 59.4155C24.0607 59.7527 24.1356 60.0243 24.4915 60.1602C24.6788 59.9775 24.5898 59.8651 24.6788 59.5982C24.8146 59.2001 24.8427 59.3312 25.0487 59.0455C24.8942 59.2188 24.9551 59.4483 25.0534 59.6356C25.325 59.6169 25.4233 59.5185 25.5029 59.2328C25.442 60.2398 25.9852 59.7808 26.1772 60.3054C26.3551 60.7784 26.0788 60.6566 26.5798 61.0219C26.7906 61.1718 26.8374 61.3263 27.0481 61.4153L27.5866 60.7175C27.8862 60.7034 27.6193 61.1999 28.2 61.2655C28.5745 60.8533 28.0314 60.7034 27.8956 60.2773C28.228 59.9869 28.4715 60.4178 28.9117 60.1087C28.7057 59.7761 28.5418 59.8511 28.2093 59.6731L29.0241 58.9097C28.4388 59.364 29.2629 59.4904 29.5485 59.5045C29.9324 59.5232 30.2181 58.5303 30.3913 58.1744C30.7519 57.425 31.9833 55.3643 32.0676 54.7555L32.0489 54.7602Z" fill="#E94B3E"/>
<path fill-rule="evenodd" clip-rule="evenodd" d="M2.08626 36.7617C1.99262 37.4033 5.76662 44.8828 6.3847 46.2176C7.11515 47.8006 7.8737 49.3789 8.64629 50.9431C10.8236 55.3784 13.118 60.7737 15.3047 65.1293L18.6526 72.2575C18.985 72.9647 19.2706 74.1824 20.0011 74.5103L19.9636 74.1918C21.0312 74.6039 21.8506 75.3533 24.0233 74.4962C25.2969 73.9951 25.0393 73.8874 26.1865 71.6159L32.5733 59.0221C33.7345 56.7272 35.0269 54.3995 36.1226 52.0859C38.2296 47.6507 40.5896 43.1218 42.8652 38.7662L44.6211 35.7266C45.3984 34.5089 45.478 33.4692 46.0633 32.5887C46.8921 31.3382 47.3556 27.4697 47.6272 25.8305L47.66 25.1374C47.66 25.128 47.6646 25.0999 47.6693 25.0905L47.688 24.8001C47.688 24.7955 47.6927 24.7674 47.6927 24.7627L47.6085 23.5731C47.585 23.1328 47.7208 23.5216 47.5523 23.0626C47.4727 22.8425 47.5148 23.0813 47.4914 22.8565C47.4727 22.6598 47.5101 22.5942 47.6131 22.3554C47.2526 22.1915 47.5804 22.5099 47.379 21.8074L47.3181 21.6622C47.1215 22.257 47.2011 24.107 47.1168 24.9219C47.0138 25.9289 46.789 26.9264 46.5081 27.9006C46.3302 28.5188 45.9649 30.2048 45.6138 30.6217C45.1174 31.2071 44.6773 32.659 44.4104 33.4411C44.0826 34.4153 42.4859 37.9372 41.7227 38.9582C41.231 39.6139 40.6645 41.1547 40.1681 41.9697C39.4096 43.2201 38.0564 46.2222 37.3259 47.7678C36.7219 49.0464 35.4108 51.0883 35.1205 52.0157C34.9379 52.6058 34.5821 52.8353 34.2917 53.4488C34.0998 53.8563 33.8516 54.6243 33.6877 54.9053C33.4676 55.2753 32.9104 56.0575 32.7653 56.3666C32.6295 56.6523 32.7091 56.76 32.5593 57.0691C32.4141 57.3688 32.2689 57.411 32.1332 57.7576C31.9271 58.2821 31.7117 58.3711 31.5291 58.9284C31.1639 60.0197 30.5505 60.9751 30.0916 62.0289L28.42 64.7031C27.3056 66.3283 24.3463 73.0865 23.7142 73.6345C23.2038 74.0747 22.5998 74.1309 21.9583 74.2012C20.9703 74.3042 21.1295 74.0279 20.371 73.7515C19.5984 73.4705 18.9803 71.6627 18.6853 70.9134C17.9455 69.04 15.4545 64.8155 15.1923 63.2091C15.1548 62.9843 14.6585 62.0101 14.5227 61.7291C14.017 60.6613 13.4598 59.6731 12.9447 58.6334L11.8678 56.4087C11.7601 56.0575 11.7648 55.9872 11.5962 55.6079C11.142 54.5869 10.5052 53.7813 10.154 52.6807L7.22285 46.5688C6.93722 46.1286 7.0215 46.3627 6.87635 45.8195L4.56793 40.9955C4.47897 40.6817 4.63348 40.7239 4.42746 40.4663C3.71105 39.5717 3.89367 39.3376 3.35051 38.4477C3.20067 38.2042 2.68093 37.6094 2.64815 37.4267C2.5826 37.0193 2.32507 36.6352 2.06754 36.2933L2.09095 36.7664L2.08626 36.7617Z" fill="#C0352A"/>
<path fill-rule="evenodd" clip-rule="evenodd" d="M20.8439 75.4938L21.0312 75.283C22.7777 75.8497 24.4493 75.6343 25.9945 74.721C26.7812 74.2527 27.9096 71.5597 28.3825 70.6698C29.8622 67.9066 31.0983 65.1012 32.5967 62.3192C33.5098 60.6191 33.8282 59.734 34.8302 58.1229C35.0784 57.7248 34.7927 57.9449 35.0503 57.4625C35.2376 57.1159 35.1486 57.2658 35.5887 57.2002C35.2891 57.7622 35.4857 57.4484 35.1392 57.603C35.7386 58.0994 35.3827 57.3969 35.7948 58.0854C35.2657 58.4366 35.8603 58.2915 35.1814 58.1603L35.2282 58.6099C35.6402 58.8394 35.0924 58.5725 35.5185 58.5678C35.5232 58.5818 35.556 58.8535 35.556 58.8628C35.5419 59.3827 35.5887 58.432 35.5279 59.0549C35.5045 59.3125 35.467 58.9846 35.5185 59.2094C35.5606 59.3968 35.8697 59.4951 36.0429 59.4576C38.4122 54.8585 40.7581 50.2593 43.0665 45.6368C44.1997 43.37 45.5388 41.0751 46.6204 38.8271C47.29 37.4314 49.6219 32.2655 49.1443 30.9823C49.3924 29.7974 49.4018 30.0831 48.7088 30.3922C48.4278 30.5186 48.4513 30.7434 48.1937 30.72C48.0345 30.706 47.8472 30.3734 47.7208 30.439C47.7161 30.4437 47.585 30.7387 47.5476 30.7903C47.1449 31.2727 47.3509 31.2352 47.2011 31.7785C47.1168 32.0923 46.9342 32.2843 46.8592 32.5512C46.775 32.8557 46.8077 33.057 46.6813 33.4177C45.993 35.3894 43.0291 40.8878 41.7554 43.3091C41.3528 44.0772 40.819 44.6673 40.1962 46.1566C39.9012 46.8545 39.8357 47.1308 39.4704 47.8567L37.8691 51.0321C37.4289 51.6784 37.4102 52.0344 37.0871 52.6666C35.364 55.9732 33.6315 59.5888 31.9131 62.7595C31.4027 63.7008 30.5224 65.2885 30.1291 66.2252C29.6936 67.2649 29.0006 68.5623 28.4668 69.5786C27.9377 70.5808 27.4507 71.6112 26.917 72.5947C26.0975 74.1028 26.0975 74.5945 24.2667 75.1612C22.5015 75.7045 20.8345 74.8615 20.4787 74.9224L20.8345 75.4844L20.8439 75.4938Z" fill="#88261F"/>
<path fill-rule="evenodd" clip-rule="evenodd" d="M47.6272 25.8258C47.3603 27.465 46.892 31.3335 46.0633 32.584C45.478 33.4692 45.3937 34.5042 44.6211 35.7219L42.8652 38.7615C40.5895 43.1218 38.2296 47.646 36.1225 52.0812C35.0269 54.3948 33.7298 56.7225 32.5733 59.0174L26.1865 71.6112C25.0393 73.8827 25.2969 73.9904 24.0233 74.4915C21.8553 75.3486 21.0359 74.5992 19.9636 74.1871L20.0011 74.5056C19.9355 74.8053 19.8606 74.6648 20.2258 75.0254C20.4319 75.2315 20.577 75.3392 20.8486 75.4844L20.4927 74.9224C20.8486 74.8615 22.5155 75.7045 24.2808 75.1613C26.1116 74.5946 26.1116 74.1028 26.931 72.5947C27.4695 71.6065 27.9565 70.5762 28.4809 69.5786C29.0147 68.5623 29.7077 67.265 30.1431 66.2252C30.5365 65.2885 31.4167 63.7009 31.9271 62.7595C33.6409 59.5841 35.378 55.9732 37.1012 52.6667C37.4289 52.0391 37.4477 51.6831 37.8831 51.0321L39.4845 47.8568C39.8544 47.1308 39.92 46.8545 40.2103 46.1567C40.8377 44.6673 41.3668 44.0772 41.7695 43.3091C43.0431 40.8878 46.0071 35.3894 46.6954 33.4177C46.8218 33.0524 46.7843 32.851 46.8733 32.5512C46.9482 32.2843 47.1308 32.0923 47.2151 31.7785C47.365 31.2305 47.1543 31.2727 47.5616 30.7903C47.6038 30.7434 47.7302 30.4437 47.7349 30.439C47.8613 30.3734 48.0486 30.706 48.2078 30.72C48.4653 30.7388 48.4419 30.5139 48.7229 30.3922C49.4205 30.0831 49.4112 29.7974 49.1583 30.9823C49.5282 30.8418 49.4393 30.8324 49.266 30.439C49.266 28.856 49.5891 27.5446 49.5095 24.8704C49.355 25.3153 49.5048 26.0366 48.8259 25.2779C48.5683 25.7462 49.1021 25.6291 48.5683 25.6385L48.3483 25.6432C47.5008 25.5963 48.4372 25.6478 47.6272 25.8305V25.8258Z" fill="#9F271E"/>
<path fill-rule="evenodd" clip-rule="evenodd" d="M32.5265 25.0249C32.6482 24.1726 32.1378 21.2922 31.576 20.7255C31.6134 21.3016 31.7258 21.4468 31.8803 21.9479C31.9927 22.3132 32.0582 22.7301 32.1332 23.1141C32.2924 23.8916 32.3392 24.7861 32.3392 25.6338C32.9526 26.2942 32.2034 24.9125 32.5171 25.9523C32.5312 25.9897 32.5405 26.0178 32.5499 26.06C32.6716 26.6361 32.2128 26.8281 32.4188 27.7835C32.4469 27.7601 32.4843 27.6851 32.4984 27.7039C32.6576 27.9474 33.0181 26.1115 33.0228 26.0928C33.7767 26.3035 33.4302 28.2097 33.3599 28.7202C33.2991 29.1604 33.2897 29.6381 33.2101 29.9285C33.0837 30.3969 32.8589 30.7903 32.8215 31.3242C33.0696 31.1649 33.3365 30.7856 33.4817 30.5093C33.7673 29.9707 33.5145 29.8067 33.7018 29.3946C34.3854 28.8982 34.3854 29.5726 35.1767 29.4414C35.4108 28.9871 35.1018 29.2541 35.1954 28.9731C35.4483 29.1557 35.3031 29.2026 35.453 29.5398C36.2115 29.5445 35.6403 29.6616 36.2022 29.699C36.8015 29.7365 36.3145 30.0878 36.7406 29.9379L36.4644 30.3407C36.9326 30.2985 36.956 30.2564 37.1059 29.8629C36.9186 29.6147 37.0871 29.7037 36.7266 29.6522L37.0028 29.2775C37.2978 29.9051 37.3119 29.6943 37.8363 29.8629C38.2765 30.0034 38.225 30.2189 38.7728 29.9941C38.8992 29.5257 38.6604 29.7599 38.9273 29.3759C39.1099 29.1042 39.241 29.1698 39.0491 28.8513C39.6343 29.2119 39.728 29.0059 39.9106 29.1089C39.9247 29.4555 39.8451 29.1838 39.6859 29.3009C39.4283 29.4883 39.6437 29.329 39.536 29.7037C39.2644 29.4602 39.3721 29.4602 39.0397 29.4836C39.035 29.8114 39.138 29.6522 39.1521 29.9472C39.1708 30.3313 38.9741 30.2048 39.1474 30.5186C39.6016 30.3547 39.5641 29.8114 40.1447 29.8583C40.0651 30.2236 40.0698 30.6404 40.3133 30.9308C40.7581 30.8465 41.0859 30.5093 41.4324 30.247C42.2143 29.6522 42.1207 30.1486 42.5281 30.1674C42.5936 29.4742 41.7742 29.5164 41.3341 29.2822L41.6478 28.5469C41.8679 29.0106 41.7133 28.8279 41.5354 29.1745C41.8772 29.2962 42.2705 29.3946 42.617 29.3431C42.8277 28.5609 42.1441 28.8326 42.7341 28.4345C42.72 28.7998 42.6919 28.7389 42.9448 28.9216C43.4271 28.7342 43.9187 27.9287 43.1602 27.6477L43.7923 27.2168C43.5207 26.5096 43.7876 27.4322 43.9468 26.3878C43.989 26.1209 43.989 25.1748 44.0639 25.0062L45.0004 25.3762C45.3609 25.3528 45.2439 25.6994 45.3 25.1467C45.0847 24.6971 45.0144 24.9313 44.9208 24.5988C44.9208 24.5941 44.9208 24.5613 44.9161 24.5566C44.8505 24.3552 45.2064 24.4817 44.7803 24.402L44.4198 24.3786L43.8766 23.5309C43.4271 23.6902 43.9234 23.634 43.7033 23.9056C43.6987 23.9103 43.2726 24.1679 43.1883 24.2428L42.7762 23.9243C42.2939 24.2896 43.1508 24.3646 42.5796 24.9594C42.0083 24.8329 42.116 24.477 42.1347 23.9805L41.704 23.8307C41.7555 23.4935 41.7227 23.4607 42.0458 23.47L41.2451 23.4841C41.2404 23.3811 41.32 23.6948 41.3247 23.7089C41.4511 24.0133 41.3856 23.5356 41.6244 24.0648C41.3902 24.2428 40.8284 24.2241 40.6598 24.0929C40.5708 24.0227 40.3273 23.5543 39.9949 23.8775C40.4257 23.5684 40.6223 24.5472 40.1916 24.9032C39.6999 24.9172 38.7775 23.8213 39.2504 23.1281C39.522 23.0485 39.9106 23.0064 40.1026 23.175C39.8451 23.0766 39.9153 22.9314 39.8029 22.6223L39.3815 22.8987L39.2925 22.5849C39.2317 22.9221 39.0678 22.9221 39.035 23.0157C38.8992 23.3857 39.227 23.2593 38.8571 23.7791C38.4825 23.8166 38.3842 23.6855 38.1173 23.4185C38.4029 23.5824 38.2811 23.4185 38.3467 23.7698C38.1407 23.9618 37.9815 23.9243 37.7708 24.1117C37.3493 24.4957 37.6069 24.4208 37.5601 24.9641C36.6985 24.7346 37.6303 24.8798 36.8624 25.0577C36.5018 24.21 37.2932 24.1819 37.5694 23.175C37.134 23.6667 37.0731 23.0251 36.7032 23.5216C35.4483 25.1935 35.8931 23.7229 35.5045 23.6948C34.7881 23.9056 34.9754 24.4255 34.7787 24.7767C34.3198 24.6831 34.1232 24.4676 34.3713 24.0227L34.1466 24.018C34.0389 23.1516 34.1279 22.9876 33.8984 22.1634C33.7439 21.606 33.4442 20.482 33.4021 19.9528C33.2007 19.5781 33.0509 19.1941 32.873 18.8053C32.667 18.3463 32.3907 18.056 32.1987 17.6485C32.0208 17.3769 32.1144 17.3956 31.7726 17.227C31.8756 17.7375 33.7299 20.7162 33.3553 22.2523L33.0228 23.9618C32.8262 24.9641 33.0837 25.0671 32.8074 26.355L32.6716 26.163C32.4656 25.7837 32.489 25.4324 32.5312 25.0203L32.5265 25.0249Z" fill="#EB5246"/>
<path fill-rule="evenodd" clip-rule="evenodd" d="M0.667499 27.0248L0.456791 27.2543C0.428697 26.5705 0.161801 26.5939 0.274178 26.0412L0.288225 24.8563L0.119659 24.8751C0.119659 25.6619 -0.0348594 26.2333 0.00728205 27.0576C0.030694 27.5072 0.119659 27.643 0.119659 28.1441C0.119659 29.5445 -0.00208275 29.1276 0.335049 29.3478L0.306955 28.2565L0.541074 28.6312C0.868842 28.2799 0.424015 28.383 0.882889 28.0364L0.999949 27.8022C1.01868 27.7648 0.878206 27.5446 1.29494 27.4275C1.71167 27.6102 1.7304 28.2612 1.28089 28.1956C1.95047 28.0551 1.58993 28.4017 2.21737 28.6593L2.05817 28.4251L2.53109 28.116L3.31305 28.6406L3.06488 29.0808C3.72978 29.2869 4.24484 28.8279 5.04085 29.3056C5.14855 28.8747 5.20005 28.8935 5.52314 28.4813C5.51845 28.4766 5.35925 28.4439 5.24219 28.1722C5.44822 28.0364 5.97733 27.8865 6.21613 27.924C5.81344 28.753 6.53922 28.4766 6.72183 28.6078C6.74056 28.6218 6.80611 28.7108 6.83421 28.7342C7.13388 28.5047 6.97936 28.486 7.41482 28.5235C7.42419 28.5235 7.45228 28.5282 7.46165 28.5282C7.55061 28.5375 7.56934 28.5047 7.6864 28.5469C7.60212 28.9731 7.24157 29.2916 6.85762 29.5023L7.4195 29.137C7.88306 29.3805 8.15932 29.6569 8.14059 30.1674L8.22487 29.5913L8.9085 29.6147C9.08175 29.2916 9.11453 28.945 9.96672 29.1792C10.9407 29.4461 10.4818 31.3242 13.3474 34.9117C14.2839 36.0872 16.391 37.6187 17.9361 38.1152L19.3268 38.3962C20.0947 38.4805 20.8907 38.9488 22.9604 38.71C23.2834 38.6725 23.4614 38.5788 23.761 38.5133L24.3089 38.3728C24.4634 38.3025 24.4587 38.3072 24.5898 38.2088C22.6466 38.3212 21.9209 38.8505 19.1302 38.1011C17.7067 37.7171 17.1401 37.3752 16.0632 36.565C15.6418 36.2512 15.4966 36.3074 15.0424 35.9327C13.516 34.6635 12.0598 32.4014 11.7273 30.425L11.6477 29.9519C11.5213 29.3759 11.5681 28.9778 11.7179 28.3689C12.1019 28.3502 11.8631 28.3923 12.2798 28.294L12.2751 28.4064C12.3126 28.7857 12.2143 28.3033 12.2939 28.5469C12.2939 28.5469 12.4062 28.7436 12.425 28.7904C12.5935 29.2073 12.5608 29.8114 12.7668 30.247C12.8651 30.4531 13.0524 30.7762 13.2491 30.9354L13.2397 30.5795C12.734 29.1183 13.1461 26.3176 12.425 25.7743C12.0785 25.512 11.4323 25.8071 11.0671 25.5026C10.758 24.9875 11.4745 25.5916 10.6316 24.9594C10.4396 23.1937 10.7019 21.6201 11.3714 19.9012C11.2591 20.215 10.8657 20.8941 10.8096 21.1049L10.5239 22.4209C10.5427 23.4747 10.3273 23.0719 10.0931 23.7229C9.83093 24.4629 10.1493 24.5847 9.72324 24.8048C10.037 25.128 10.0604 24.5238 10.257 25.3153C9.23627 25.6104 9.66237 25.0484 9.18476 25.0203C8.67438 24.9875 8.70248 25.2638 8.23892 25.2123C7.55529 25.142 7.31649 24.758 6.45961 24.8329C6.74524 25.1701 6.64223 25.0811 6.5954 25.4371C5.79003 25.5588 6.0382 25.0296 6.14589 25.2263C5.79471 25.409 5.75726 25.334 5.35925 25.2638C5.61678 25.1795 5.90241 25.3668 6.06629 25.6525C5.67766 25.9382 5.28902 25.6853 4.80205 25.4511L5.05021 25.0484C4.90974 25.2685 4.89101 25.1373 4.75054 24.8751C5.1345 24.5472 4.96125 24.7486 5.32648 24.6034L4.34317 24.5987C4.72245 24.4582 4.62412 24.566 4.788 24.847C4.49769 25.2404 4.39 25.32 3.92644 25.1889C3.96858 24.8516 3.81875 24.7767 4.24953 24.8751C3.71573 25.1046 3.87494 24.8938 3.68764 24.6315C3.97795 24.299 4.19802 24.3084 4.68967 24.2709C4.28699 24.3739 4.39468 24.4067 3.95922 24.3318C3.79065 23.9009 3.74383 24.1913 3.91708 23.7042C3.88898 23.9618 3.60804 23.6761 3.61272 23.5309C3.40201 24.566 2.73711 23.6152 2.53109 23.5356C2.49363 24.3505 2.57791 24.0976 1.96452 24.5425C1.45882 24.9079 1.8896 24.8376 2.0488 25.4043C1.94579 25.4792 1.68826 25.8773 1.45882 25.423C1.45882 25.9101 1.16383 26.5798 0.985901 27.0576L0.667499 27.0107V27.0248Z" fill="#ED564B"/>
<path fill-rule="evenodd" clip-rule="evenodd" d="M0.887573 28.0364C1.13574 28.3502 1.07487 28.3221 1.30431 28.5563C1.50097 28.7576 1.61803 29.1932 1.71636 29.5819C1.94111 30.5093 2.05817 32.0314 2.53109 33.2959C2.83076 33.4083 3.43011 33.3896 3.67828 33.1976C3.54249 32.8744 3.58463 33.1367 3.29432 32.8557C4.21675 32.5466 4.39936 33.6003 4.86292 32.8557C4.39 32.6074 4.59134 33.1086 4.48833 32.6871L5.48568 32.7667C5.20942 32.659 5.22815 32.7995 5.16259 32.9868C5.77599 33.3381 5.79472 32.9915 6.38938 33.2163C6.47366 33.8626 6.25359 33.2116 5.6917 33.5675C5.89773 33.8954 5.73853 33.4598 6.12248 33.961C6.4362 34.3591 6.10844 33.9141 6.53922 34.1436C6.33787 34.5277 6.45025 34.2513 6.08034 34.4153C6.08502 34.5885 6.12248 34.8649 6.28637 34.9164C6.58604 35.0054 6.3847 34.8087 6.41279 34.6026L7.16197 34.5417L7.42419 33.9563C7.76132 34.4106 7.41482 34.4387 7.67235 34.9351L8.34194 34.7993C8.62756 35.01 8.29511 35.2864 9.02557 35.0428L8.89446 34.5277C9.50317 34.8414 8.90851 34.729 9.65769 34.6026C9.51722 35.099 9.34397 34.7618 9.6811 35.4175L9.88713 35.0663L10.1962 35.5112C10.2992 35.0897 9.97141 35.0241 10.5473 34.7009C10.6223 35.0147 10.4771 34.9632 10.6363 35.1552C10.8283 35.3894 10.8892 35.1084 11.0624 35.6564C10.6878 35.9046 11.1092 35.6611 10.7393 35.6938L9.99014 35.8578C10.5567 36.2886 10.8845 35.839 11.6664 36.1013L11.7835 35.75L12.8839 35.9608C12.4952 35.6002 12.7855 35.4362 12.9681 34.9304L13.3521 34.9023C10.4865 31.3148 10.9453 29.4414 9.97141 29.1698C9.11453 28.9356 9.08644 29.2822 8.91319 29.6054L8.22956 29.5819L8.14528 30.158C8.16401 29.6475 7.88774 29.3759 7.42419 29.1276L6.8623 29.4929C7.24626 29.2869 7.6068 28.9637 7.69108 28.5375C7.57402 28.4954 7.55529 28.5282 7.46633 28.5188C7.45696 28.5188 7.42887 28.5141 7.41951 28.5141C6.98404 28.4766 7.13856 28.4954 6.83889 28.7249C6.8108 28.7014 6.74524 28.6125 6.72651 28.5984C6.5439 28.4673 5.81813 28.7436 6.22081 27.9146C5.98201 27.8772 5.4529 28.027 5.24688 28.1629C5.35925 28.4345 5.52314 28.4673 5.52782 28.472C5.20942 28.8794 5.15323 28.8607 5.04554 29.2962C4.24953 28.8232 3.73447 29.2775 3.06957 29.0714L3.31773 28.6312L2.53577 28.1066L2.06285 28.4158L2.22205 28.6499C1.59461 28.3923 1.95516 28.0411 1.28558 28.1863C1.73509 28.2518 1.71636 27.6008 1.29962 27.4182C0.887573 27.5306 1.02336 27.7507 1.00463 27.7929L0.887573 28.027V28.0364Z" fill="#ED5044"/>
<path fill-rule="evenodd" clip-rule="evenodd" d="M32.8261 31.3289C32.578 31.6286 32.3345 32.2281 32.0535 32.673C31.9458 32.8369 31.7445 33.1695 31.6274 33.3287C31.3044 33.7549 31.309 33.6003 31.1826 34.1483L31.7913 34.2279L31.5197 34.6494C31.7913 35.0382 31.8382 35.0944 32.2596 35.1271C32.3251 34.8836 32.3345 35.0475 32.0816 34.7853L33.6034 34.6073C33.7813 34.0078 33.3927 34.3122 33.5472 33.8767C33.9125 33.9516 33.7533 34.0078 34.067 34.2935L33.8609 34.6213C34.273 34.6682 34.1278 34.5604 34.3901 34.5745C34.7366 34.5932 34.4884 34.6963 34.9566 34.701C35.1533 34.0219 34.9566 34.2279 34.5399 33.8767C34.7693 33.3521 34.8396 33.2304 35.3874 33.1554C35.3687 33.2257 34.76 33.7174 35.0596 35.0428C35.5981 34.9023 35.1392 34.7572 35.7152 34.6729C36.1038 34.6166 36.1038 34.8555 36.3426 34.3216C36.0336 33.9844 36.0429 34.2092 35.6871 34.0781C36.1179 33.9422 36.0757 34.1483 36.3848 33.7877C36.3005 33.3334 36.3145 33.5863 36.0476 33.3381L36.1881 33.0009L36.558 33.1039C36.5205 33.413 36.352 33.0383 36.544 33.4973C36.647 33.7502 36.6985 33.783 36.8155 34.1155C36.9794 34.5745 37.0309 34.982 37.6162 34.7806C37.6209 34.2841 37.4851 34.3872 37.3072 34.064L37.4477 33.7268C37.7707 34.1577 37.3493 34.2279 38.0423 34.2841C38.3514 33.8486 38.1219 34.064 38.0751 33.5629C38.9694 33.8767 38.4075 33.4224 38.9413 33.9235C39.3908 34.345 39.5547 34.0874 39.4283 35.0147C39.7748 35.0428 39.6765 34.8227 39.9106 35.174L40.1119 34.6494L39.6718 34.5745L40.2618 33.7221C40.1026 33.4317 39.6343 33.0664 39.433 32.6356C39.92 32.6028 39.7608 33.3943 40.5849 33.3147C40.3273 33.886 40.2665 33.4598 40.4444 34.0593L40.8798 33.9282L40.7768 34.345L41.2872 34.715L40.8424 34.9023L40.8798 35.6189L41.128 35.3473C41.3855 35.6985 41.2544 35.6798 41.6103 35.647C41.7882 35.1365 41.6852 35.469 41.5635 35.0288L42.0504 34.9773L42.2284 34.4574C41.9521 34.3029 41.8397 34.3263 41.807 34.3216C41.924 33.9844 42.013 33.68 41.7695 33.3568C42.13 33.3615 41.9006 33.3802 42.3127 33.6659C41.9193 33.6144 42.0364 33.6144 41.8397 33.9235L42.3829 34.0874C42.8371 33.3287 43.1976 31.2633 43.3662 30.617C43.4645 30.2423 43.5769 30.4296 43.6378 29.5117L43.914 29.3993C43.7361 28.486 44.1341 28.7436 44.092 27.9053C44.0732 27.5306 43.989 27.9708 44.1013 27.657C44.2278 27.3105 44.2137 27.7507 44.3074 27.2262L44.4197 26.8515C44.4525 26.6642 44.4151 26.8234 44.5087 26.6033C44.8973 25.7181 44.4947 25.9195 45.2392 25.6291L45.005 25.3996L44.0686 25.0296C43.9936 25.1982 43.9936 26.1443 43.9515 26.4112C43.7923 27.4557 43.5207 26.5283 43.797 27.2402L43.1649 27.6711C43.9187 27.9521 43.4271 28.7577 42.9495 28.945C42.6966 28.7623 42.7247 28.8185 42.7388 28.4579C42.1488 28.856 42.8324 28.5844 42.6217 29.3665C42.2799 29.418 41.8819 29.3197 41.5401 29.1979C41.718 28.8513 41.8772 29.034 41.6524 28.5703L41.3387 29.3056C41.7789 29.5445 42.5983 29.4976 42.5327 30.1908C42.13 30.1721 42.219 29.6756 41.437 30.2704C41.0952 30.5327 40.7628 30.8652 40.318 30.9542C40.0745 30.6685 40.0698 30.247 40.1494 29.8817C39.5688 29.8348 39.6062 30.3781 39.152 30.5421C38.9741 30.2283 39.1708 30.3547 39.1567 29.9707C39.1427 29.6756 39.0397 29.8348 39.0443 29.507C39.3768 29.4789 39.2738 29.4789 39.5407 29.7271C39.6484 29.3525 39.433 29.507 39.6905 29.3244C39.8497 29.212 39.9293 29.4836 39.9153 29.1323C39.7327 29.0293 39.639 29.2401 39.0537 28.8747C39.2457 29.1885 39.1146 29.1276 38.932 29.3993C38.6651 29.788 38.9039 29.5492 38.7775 30.0175C38.2249 30.2423 38.2764 30.0269 37.841 29.8864C37.3165 29.7178 37.3025 29.9285 37.0075 29.3009L36.7313 29.6756C37.0918 29.7271 36.9185 29.6381 37.1105 29.8864C36.9607 30.2845 36.9373 30.3219 36.469 30.3641L36.7453 29.9613C36.3192 30.1159 36.8062 29.7646 36.2068 29.7224C35.6449 29.685 36.2115 29.5679 35.4576 29.5632C35.3078 29.226 35.453 29.1792 35.2001 28.9965C35.1065 29.2775 35.4155 29.0106 35.1814 29.4649C34.3947 29.5913 34.3901 28.9169 33.7064 29.418C33.5191 29.8302 33.772 29.9941 33.4864 30.5327C33.3412 30.8043 33.0743 31.1837 32.8261 31.3476V31.3289Z" fill="#ED5044"/>
<path fill-rule="evenodd" clip-rule="evenodd" d="M0.232024 23.5637C0.232024 23.9946 0.124329 24.3177 0.124329 24.8751L0.292895 24.8563L0.278847 26.0413L0.531696 25.7087C0.784545 25.2872 0.859464 24.4489 0.971841 23.9524C1.13104 23.2546 1.14977 22.6083 1.39326 21.8777C2.57322 18.3042 2.74647 17.3722 4.76926 13.8128C5.08766 13.2508 6.82483 10.6514 7.25561 10.4735C7.85964 8.86705 11.8865 6.23964 13.3942 5.29358C15.6558 3.8745 19.4251 2.89097 22.0707 2.78325C25.4467 2.65212 27.6427 3.04553 30.8033 4.23044C34.5071 5.61674 36.6938 8.24415 37.5975 8.58605L37.7005 9.00756C37.9346 9.05439 38.136 9.35413 38.5199 9.75222L40.6223 12.5623C40.7909 12.8058 40.8096 12.9136 40.936 13.129L41.8538 14.609C42.6404 15.9999 43.8859 19.5266 44.4759 21.2267C44.5134 21.3344 44.5508 21.4234 44.6023 21.592L44.7475 22.0135C44.902 22.2477 44.8365 22.0322 45.0612 22.3085C45.5154 22.8612 44.8318 22.2242 45.1455 22.6411C45.4405 23.0345 44.8411 22.2758 45.4171 22.7347C45.7402 22.9923 45.7636 23.4232 45.8479 23.7417C46.2505 23.1984 46.1475 23.3389 46.3582 22.716C46.5268 22.2149 46.48 21.8121 46.4051 21.2407C46.3676 20.9644 46.0352 21.044 46.2131 20.3134C45.876 20.2619 46.1803 20.1401 45.8104 20.3415L45.9977 19.9856C45.6652 19.3111 45.8572 20.1682 45.3047 18.6274C44.4104 16.1264 43.3709 13.4006 41.718 11.2603C41.3809 10.8247 40.8283 9.48995 40.2571 9.4478C40.4303 10.2346 40.5193 10.0473 40.9641 10.6983C40.9688 10.7076 40.9875 10.7357 40.9969 10.7451C41.0016 10.7545 41.0203 10.7779 41.0297 10.7919C41.3013 11.1479 41.4277 11.1713 41.3996 11.6818C40.73 11.1573 39.7935 9.9864 39.1146 9.28856C38.2905 8.45023 37.6022 7.98188 36.7828 7.25595C34.9847 5.65889 36.2021 6.61431 34.3947 5.46687C27.1979 0.886458 17.1401 1.3548 10.4818 6.83912C9.6249 7.54164 8.70715 8.19264 7.93455 8.9935C7.18537 9.77564 6.52047 10.7311 5.83216 11.4804C4.51173 12.9182 3.14915 15.5035 2.40933 17.3254C1.15914 20.4211 0.976523 23.1422 0.494237 24.5519C0.573838 24.1538 0.728357 23.6855 0.241388 23.5684L0.232024 23.5637Z" fill="#FB6A63"/>
<path fill-rule="evenodd" clip-rule="evenodd" d="M12.6825 16.946L10.9407 19.831L10.8845 19.1613L10.5661 19.653L10.2804 19.4985C10.0932 19.9856 10.0838 19.7935 10.3039 20.1401C10.6082 19.9059 10.3366 20.0745 10.4022 19.6952L10.73 19.9387C10.449 20.2853 10.3601 20.4445 9.91991 20.5476L9.56404 20.1167C9.67642 19.742 10.0229 19.728 9.65769 19.3111L9.48913 19.742C9.33929 19.4189 9.45167 19.1941 8.9647 19.2877C8.97406 19.6718 9.32056 19.283 9.25969 20.1261C8.49178 20.1588 9.2831 20.4492 8.51519 20.3274L8.79145 20.0605L8.30448 19.9856L7.99544 19.2362C7.68641 19.3299 7.7941 19.4423 7.43356 19.2737L7.4757 19.653L6.89976 19.7795C7.03087 20.1073 7.08238 19.9153 7.03555 20.215L6.23955 20.1682L6.48771 19.9621L6.06162 19.8872C6.24423 19.4657 6.20677 19.7467 6.57668 19.7748C6.64691 19.4329 6.32851 19.1332 6.07566 18.8943C5.56997 19.2549 6.05225 18.8522 5.55592 18.9739L5.88837 19.6577C5.62147 19.817 5.70575 19.7514 5.35926 19.653L5.38267 19.8404C4.61944 19.9528 4.90975 19.6109 4.51175 20.0183L4.4181 19.5547L4.13715 19.6858C4.28699 19.8732 4.40405 19.8497 4.39469 20.201C3.87026 20.1073 4.05755 19.8638 3.83748 19.6624L3.5144 20.1354L2.96187 19.8919L2.64815 20.2619C2.47022 20.4024 2.45618 20.4633 2.35316 20.6787C1.98326 21.4608 2.70434 20.8098 2.22674 21.325C1.88024 21.6997 1.93643 22.8565 1.48224 23.4747C1.38391 24.491 1.10765 25.8586 0.667504 26.7859C0.564492 27.006 0.531715 26.7344 0.676869 27.0154L0.995271 27.0622C1.1732 26.5845 1.46819 25.9148 1.46819 25.4277C1.70231 25.882 1.95516 25.4839 2.05817 25.409C1.89897 24.8423 1.46819 24.9125 1.97389 24.5472C2.58728 24.1023 2.503 24.3552 2.54046 23.5403C2.74649 23.6246 3.41138 24.5753 3.62209 23.5356C3.61741 23.6808 3.90304 23.9665 3.92645 23.7089C3.7532 24.1913 3.79534 23.9056 3.96859 24.3365C4.40405 24.4114 4.29636 24.3786 4.69904 24.2756C4.20739 24.3131 3.98732 24.3037 3.69701 24.6362C3.88431 24.8985 3.72042 25.1092 4.2589 24.8798C3.82812 24.7814 3.97795 24.8563 3.93581 25.1935C4.39937 25.3247 4.50706 25.2404 4.79737 24.8517C4.63349 24.566 4.73182 24.4629 4.35254 24.6034L5.33585 24.6081C4.97062 24.7533 5.14387 24.5519 4.75991 24.8798C4.90038 25.1373 4.91911 25.2732 5.05959 25.053L4.81142 25.4558C5.30307 25.6853 5.68703 25.9382 6.07566 25.6572C5.91178 25.3762 5.62147 25.1842 5.36862 25.2685C5.76194 25.3434 5.7994 25.4137 6.15526 25.231C6.04757 25.0343 5.79472 25.5635 6.60477 25.4418C6.6516 25.0858 6.75929 25.1748 6.46898 24.8376C7.32586 24.758 7.56466 25.1467 8.24829 25.217C8.71185 25.2638 8.68375 24.9922 9.19413 25.0249C9.67174 25.053 9.24564 25.6151 10.2664 25.32C10.0744 24.5285 10.0463 25.1327 9.73261 24.8095C10.1587 24.5894 9.8403 24.4723 10.1025 23.7276C10.3366 23.0719 10.5473 23.4747 10.5333 22.4256L10.8189 21.1096C10.8751 20.9035 11.2638 20.2197 11.3808 19.9059C11.6664 19.4282 11.8865 18.8522 12.1815 18.3604C12.425 17.9529 13.0056 17.1989 13.0524 16.7961C12.7293 16.8804 12.8792 16.768 12.6919 16.946H12.6825Z" fill="#ED5449"/>
<path fill-rule="evenodd" clip-rule="evenodd" d="M33.3974 19.9621C33.4395 20.4914 33.7392 21.6154 33.8937 22.1727C34.1232 22.997 34.0342 23.1609 34.1419 24.0274L34.3667 24.032C34.1185 24.477 34.3198 24.6924 34.774 24.7861C34.9707 24.4348 34.7834 23.9196 35.4998 23.7042C35.8884 23.737 35.4436 25.2076 36.6985 23.5309C37.0684 23.0345 37.1293 23.6714 37.5647 23.1843C37.2838 24.196 36.4925 24.2241 36.8577 25.0671C37.6256 24.8891 36.6938 24.7439 37.5554 24.9734C37.6069 24.4301 37.3447 24.5051 37.7661 24.121C37.9721 23.9337 38.136 23.9712 38.342 23.7791C38.2764 23.4279 38.3982 23.5918 38.1126 23.4279C38.3795 23.6995 38.4778 23.826 38.8524 23.7885C39.227 23.264 38.8992 23.3951 39.0303 23.0251C39.0631 22.9314 39.227 22.9268 39.2878 22.5942L39.3768 22.908L39.7982 22.6317C39.9106 22.9408 39.845 23.0813 40.0979 23.1843C39.9059 23.0157 39.522 23.0579 39.2457 23.1375C38.7728 23.8307 39.6952 24.9266 40.1869 24.9125C40.6176 24.5566 40.421 23.5777 39.9902 23.8869C40.3273 23.5637 40.5661 24.032 40.6551 24.1023C40.8237 24.2334 41.3856 24.2522 41.6197 24.0742C41.3809 23.545 41.4464 24.0227 41.32 23.7183C41.3153 23.7042 41.2357 23.3904 41.2404 23.4934L42.0411 23.4794C41.718 23.47 41.7555 23.5028 41.6993 23.84L42.1301 23.9899C42.1113 24.4863 42.0036 24.8423 42.5749 24.9687C43.1415 24.3786 42.2893 24.299 42.7715 23.9337L43.1836 24.2522C43.2679 24.1772 43.694 23.9196 43.6987 23.915C43.914 23.6433 43.4224 23.6995 43.8719 23.5403L44.4151 24.388L44.7756 24.4114C45.2064 24.4489 45.2532 24.3224 45.3141 23.9712C44.991 23.826 45.3188 23.9524 45.0285 23.9524L44.7756 23.9852C44.6445 23.737 44.6866 23.8541 44.6445 23.6574C44.4806 22.908 44.8271 23.929 44.6024 23.4232C44.2746 22.6785 44.1107 23.278 44.0264 22.3273C43.9983 21.9901 43.9468 22.079 43.6097 21.887C43.708 21.5686 43.5254 21.8449 43.9047 21.6341C43.3943 21.0674 43.6659 21.606 43.502 20.9082C43.4271 20.5991 43.2772 20.3134 43.296 20.0371C42.7575 20.0464 42.8277 20.5476 42.1956 19.7607C42.2799 19.5734 42.1675 19.6858 42.4812 19.6109L42.0317 19.3158L41.9474 19.6202L41.5635 19.3205C41.6525 19.8638 41.8866 19.5875 41.423 20.009C41.0344 20.3602 41.2123 20.0698 41.1842 20.4164C40.5568 20.2666 40.7019 20.0136 40.5708 19.5921C41.1374 19.1753 40.9922 19.7467 41.2638 19.3205C40.7909 18.9973 40.8143 19.3954 40.3648 19.5921C40.229 19.2128 40.0932 19.0676 39.6718 19.4469L39.7139 19.6671C40.2805 20.2057 39.6016 19.6624 40.3086 20.4305C39.8966 20.4679 40.037 20.3836 39.6578 20.5616L39.227 20.1307C39.33 19.8076 39.7514 19.6811 38.946 19.5032L38.5199 20.4352C38.2811 19.9106 38.5012 19.728 38.1126 19.4001C37.3259 19.7748 37.3727 20.0277 36.7921 20.5991C36.4129 20.4539 36.6517 20.4211 36.1694 20.1916C36.3567 19.8497 36.3145 19.6249 36.0945 19.2924C35.6637 19.5266 36.0898 19.4095 35.748 19.728C35.4483 19.4563 35.3031 19.2175 35.2001 18.8194C34.863 19.6577 34.1466 19.2549 34.1466 19.2549C34.1466 19.6202 34.1559 19.3018 34.3432 19.4985C34.5961 19.7701 34.3105 19.5078 34.465 19.8029C35.0643 19.4985 34.3807 19.4844 35.0269 19.3954C35.2985 19.7654 35.0362 19.3252 35.0269 19.7607C35.0222 20.0605 35.0128 19.7701 35.1158 20.1214C34.7178 20.2104 34.1606 19.8685 33.8375 19.6015C33.4489 20.2291 33.4395 19.6718 33.3646 19.9434L33.3974 19.9621Z" fill="#ED5449"/>
<path fill-rule="evenodd" clip-rule="evenodd" d="M13.633 3.99626C12.9775 4.07119 11.437 5.36382 11.2169 5.49496C11.0296 5.60736 10.8517 5.67762 10.6457 5.8228C10.2664 6.09444 10.0416 6.29115 9.6811 6.60025C9.06771 7.1248 8.54796 7.59783 7.96266 8.16453C7.41482 8.69844 6.89976 9.34475 6.3847 9.85993C6.29105 10.333 5.07363 11.6677 4.58666 12.4546L4.48833 11.6677C3.70169 12.005 2.01135 16.2716 1.73977 16.9975C1.16852 18.529 0.227356 21.9854 0.227356 23.559C0.714324 23.6714 0.559806 24.1398 0.480205 24.5425C0.962491 23.1375 1.1451 20.4117 2.3953 17.316C3.13044 15.4941 4.49769 12.9089 5.81813 11.471C6.50644 10.7217 7.16666 9.76626 7.92052 8.98413C8.69312 8.18326 9.61086 7.53226 10.4677 6.82974C17.1261 1.35011 27.1839 0.877082 34.3807 5.45749C36.1881 6.60494 34.9707 5.6542 36.7687 7.24657C37.5881 7.9725 38.2764 8.44085 39.1005 9.27919C39.7842 9.97702 40.7207 11.1432 41.3856 11.6724C41.4183 11.1666 41.2872 11.1432 41.0156 10.7826C41.0063 10.7732 40.9876 10.7451 40.9829 10.7357C40.9735 10.7264 40.9595 10.6983 40.9501 10.6889C40.5053 10.0379 40.4163 10.2252 40.2431 9.43842C39.3815 8.17389 37.2416 6.25836 35.9821 5.40129C34.9192 5.1999 32.1378 2.1182 25.3671 1.56086C21.2653 1.22366 17.1917 2.10883 13.633 3.99626Z" fill="#FF877C"/>
<path fill-rule="evenodd" clip-rule="evenodd" d="M20.8439 75.4938C21.1295 76.1307 23.2647 76.4305 23.9015 76.3415C28.3264 75.7186 28.4715 74.4915 30.4803 70.4778C31.3933 68.6559 32.3017 66.7264 33.271 64.9748C34.1793 63.3355 35.2657 61.1765 36.0476 59.4576C35.8697 59.4951 35.5653 59.3968 35.5232 59.2094C35.4717 58.9846 35.5091 59.3078 35.5326 59.0549C35.5934 58.432 35.5419 59.3827 35.5607 58.8629C35.5607 58.8535 35.5232 58.5772 35.5232 58.5678C35.0971 58.5725 35.6449 58.8347 35.2329 58.6099L35.1861 58.1603C35.865 58.2962 35.2703 58.4413 35.7995 58.0854C35.3874 57.3922 35.7386 58.0994 35.1439 57.603C35.4904 57.4531 35.2938 57.7669 35.5934 57.2002C35.1533 57.2658 35.2422 57.1159 35.055 57.4625C34.7974 57.9449 35.083 57.7248 34.8349 58.1229C33.8328 59.734 33.5144 60.6191 32.6014 62.3192C31.103 65.1012 29.8622 67.9019 28.3872 70.6698C27.9143 71.555 26.7859 74.2527 25.9992 74.721C24.454 75.6343 22.7871 75.8544 21.0359 75.283L20.8486 75.4938H20.8439Z" fill="#7D241E"/>
<path fill-rule="evenodd" clip-rule="evenodd" d="M16.6017 33.0524C16.5408 32.9072 15.3327 31.1743 15.2157 31.0385C14.9675 30.6217 14.5742 29.877 14.4665 29.5164C14.3682 29.1745 14.4197 29.1276 14.3167 28.9169C14.1902 28.664 14.0123 28.5937 14.3494 28.2471C14.0638 28.0317 13.8812 27.7507 13.9093 27.3994C13.3521 26.8843 13.7314 26.6641 13.3661 26.0272C13.015 25.4137 13.516 25.6994 13.1976 25.039C13.0712 24.7767 13.1788 24.566 13.1742 24.1866C13.1695 23.6199 13.0056 23.9805 13.2631 23.2827L12.72 23.1C12.7434 22.7347 12.6778 22.5708 12.6731 22.3694C12.6685 22.0275 12.8043 21.9666 12.8323 21.5686C12.8979 20.496 12.5046 21.8168 13.0103 20.0558C13.132 19.6296 14.2886 17.2504 14.5695 16.946C14.9113 16.576 15.3749 16.2903 15.7495 15.836C18.2686 12.7824 24.3557 12.1642 27.7832 15.0305C28.1812 15.3583 28.6307 15.7189 29.0053 16.0983C29.5625 16.665 29.0521 16.3793 29.9558 17.3394C30.3211 17.7234 31.2856 19.4282 31.3091 19.92L30.9204 19.5313C30.9907 19.9481 30.9766 19.8872 31.1779 20.2619C31.4074 20.6834 31.2997 20.7162 31.5713 20.7302C32.1332 21.2969 32.6435 24.1772 32.5218 25.0296C32.8496 24.0836 32.5873 20.6084 32.2783 19.5687C31.7539 17.8031 30.0448 16.1545 28.8274 14.8431C27.4648 13.3772 25.1845 12.9604 23.3162 12.6841C18.0064 11.8925 12.5935 16.2856 11.6992 21.0065C11.2918 23.1562 11.7601 22.8565 11.8631 23.8447C11.9521 24.7486 12.1581 24.2288 12.3594 24.7673C12.5467 25.2685 12.7902 25.6619 12.8839 26.2052C13.0196 27.0201 13.2772 29.9379 13.7688 30.5748C14.0498 30.9401 14.3167 31.193 14.5836 31.5443C15.0424 32.1438 15.9461 32.7105 16.6017 33.057V33.0524Z" fill="#CE372C"/>
<path fill-rule="evenodd" clip-rule="evenodd" d="M32.194 17.6626C32.386 18.07 32.6623 18.3604 32.8683 18.8194C33.0415 19.2081 33.1961 19.5921 33.3974 19.9668C33.4723 19.6952 33.4817 20.2478 33.8703 19.6249C34.1934 19.8919 34.7506 20.2291 35.1486 20.1448C35.0456 19.7935 35.055 20.0839 35.0597 19.7842C35.069 19.3486 35.3266 19.7888 35.0597 19.4189C34.4088 19.5078 35.0971 19.5219 34.4978 19.8263C34.3432 19.5313 34.6289 19.7888 34.376 19.5219C34.1887 19.3252 34.1794 19.6437 34.1794 19.2783C34.1794 19.2783 34.8911 19.6811 35.2329 18.8428C35.3359 19.2456 35.4764 19.4797 35.7807 19.7514C36.1179 19.4329 35.6965 19.55 36.1272 19.3158C36.3473 19.6483 36.3895 19.8731 36.2022 20.215C36.6844 20.4445 36.4456 20.4773 36.8249 20.6225C37.4055 20.0464 37.3587 19.7935 38.1453 19.4235C38.534 19.7514 38.3139 19.9387 38.5527 20.4586L38.9788 19.5266C39.7842 19.7045 39.3674 19.831 39.2598 20.1542L39.6905 20.585C40.0698 20.4071 39.9293 20.496 40.3414 20.4539C39.6343 19.6858 40.3133 20.2291 39.7467 19.6905L39.7046 19.4704C40.126 19.091 40.2571 19.2362 40.3976 19.6156C40.8471 19.4235 40.8237 19.0208 41.2966 19.3439C41.025 19.7654 41.1702 19.1987 40.6036 19.6156C40.7347 20.0371 40.5942 20.29 41.217 20.4398C41.2451 20.0886 41.0625 20.3836 41.4558 20.0324C41.924 19.6109 41.6852 19.8872 41.5963 19.3439L41.9802 19.6437L42.0645 19.3392L42.514 19.6343C42.2003 19.7092 42.3127 19.5968 42.2284 19.7842C42.8605 20.571 42.7903 20.0698 43.3288 20.0605L43.001 18.9552C42.8886 18.6554 42.7294 18.1122 42.5936 17.8733C42.3033 17.9108 42.2331 17.8546 42.1301 18.2058C42.1301 18.2058 41.4511 17.9951 41.3247 17.1755C41.2591 16.768 41.8959 16.6462 41.0157 16.0702C40.4584 16.3371 40.2665 16.7025 40.5896 17.2645C40.9782 17.0865 40.6926 17.0162 41.0578 17.0069C41.0578 17.5689 40.2243 17.597 39.9808 17.1755C39.742 16.7587 40.0277 16.6369 40.332 16.6135L39.934 15.8641L39.8076 16.6181C39.2223 16.8008 39.4611 16.384 39.3955 16.9319L39.0256 16.6416C39.2129 16.4308 39.2363 16.7071 39.1895 16.3606C38.8852 16.309 38.3654 16.384 38.2905 16.3606L38.2343 15.7611C37.855 16.4964 37.9815 16.1123 37.5647 16.6462L38.15 16.7914L37.4945 17.0537C37.0122 17.0443 37.2416 16.5573 37.2323 16.2809C36.7547 16.487 36.9841 16.3652 36.6283 16.8055L36.3988 16.384C35.9446 16.9366 35.6918 16.6603 35.0409 16.0515C35.0597 16.5245 35.0409 16.2341 34.966 16.3933C34.6289 17.1146 35.1299 17.0818 34.4463 17.33L34.0951 17.0116C34.3432 16.6041 34.2168 17.1708 34.4416 16.7259C34.3292 16.6509 34.0295 16.473 33.9125 16.4027C33.9359 16.768 34.0155 16.6135 33.8329 16.8476L32.6435 16.7352C32.3017 17.0256 32.3064 17.1614 32.4282 17.5829L32.2081 17.6672L32.194 17.6626Z" fill="#ED564B"/>
<path fill-rule="evenodd" clip-rule="evenodd" d="M13.0384 16.8008C12.9869 17.2036 12.4109 17.9576 12.1675 18.3651C11.8678 18.8615 11.6524 19.4329 11.3668 19.9106C10.6972 21.6294 10.4303 23.2031 10.6269 24.9687C11.4698 25.601 10.7534 24.9968 11.0624 25.512C11.4276 25.8164 12.0738 25.5214 12.4203 25.7837C13.1414 26.3269 12.7293 29.1276 13.235 30.5889C13.8765 31.2258 13.0524 30.823 14.5976 32.2C15.4826 32.9868 15.6231 33.3755 16.8171 33.9469L17.2057 34.2185C17.3181 34.2841 17.1121 34.0406 17.599 34.345L19.6125 35.4128C20.1697 35.6704 20.1697 35.469 20.2493 35.3941C19.9309 35.2349 19.6218 35.2068 19.2332 35.0241C18.882 34.8602 18.5917 34.6635 18.2827 34.4434C17.8238 34.1202 16.981 33.1601 16.6017 33.0571C15.9461 32.7105 15.0424 32.1438 14.5836 31.5443C14.3167 31.193 14.0498 30.9401 13.7688 30.5748C13.2772 29.9379 13.0196 27.0201 12.8839 26.2052C12.7949 25.6619 12.5467 25.2685 12.3594 24.7674C12.1581 24.2288 11.9567 24.7486 11.8631 23.8447C11.7648 22.8565 11.2918 23.1562 11.6992 21.0065C12.5982 16.2856 18.0111 11.8926 23.3162 12.6841C25.1892 12.9651 27.4648 13.3772 28.8274 14.8431C30.0448 16.1545 31.7539 17.8077 32.2783 19.5687C32.5874 20.6084 32.8496 24.0836 32.5218 25.0296C32.4797 25.4465 32.4562 25.7977 32.6623 26.1724L32.7981 26.3644C33.0743 25.0765 32.8121 24.9687 33.0135 23.9712L33.3459 22.2617C33.7205 20.7302 31.8663 17.7469 31.7633 17.2364C31.3418 16.3606 29.0521 14.342 28.1765 13.7612C24.8052 11.5226 20.385 11.6677 16.8545 13.5692C16.0913 13.9767 15.3983 14.4872 14.7428 15.0492C14.4244 15.3208 13.1554 16.7587 13.0384 16.7961V16.8008Z" fill="#E3483A"/>
<path fill-rule="evenodd" clip-rule="evenodd" d="M31.8756 30.1533C31.7258 30.631 31.1873 31.6192 30.911 32.0595C30.5833 32.5887 29.8762 33.3943 29.7077 33.8767C30.4053 33.6518 30.4756 32.7714 30.9953 32.5185C31 33.6284 28.5933 35.7734 27.7457 36.3074C26.1725 37.3003 24.4774 38.0777 22.553 38.1339C21.0265 38.1807 18.9944 37.9232 17.6973 37.2019C16.0772 36.3074 14.7053 35.3988 14.1668 33.6706L14.3635 33.7315C14.6819 33.8767 14.6772 33.9891 14.8926 34.2185C17.1916 36.6774 20.9235 37.9794 24.3182 37.127C25.1423 36.9209 26.9029 36.4385 27.5163 35.8156L27.6474 35.647C26.9872 35.7828 26.622 36.1481 25.9758 36.3963C25.1751 36.7055 25.1283 36.7617 24.4072 36.7476C21.757 36.6774 20.5161 36.8834 17.7957 35.2442C14.6351 33.3381 16.2037 33.6425 15.3 34.0593C14.5835 33.6331 13.235 31.5068 13.2538 30.9308C13.0571 30.7715 12.8698 30.4484 12.7715 30.2423C12.5654 29.8067 12.5982 29.1979 12.4297 28.7857C12.4109 28.7342 12.2985 28.5422 12.2985 28.5422C12.2143 28.2987 12.3173 28.7857 12.2798 28.4017L12.2845 28.2893C11.8678 28.3877 12.1066 28.3455 11.7226 28.3642C11.5681 28.9731 11.5213 29.3759 11.6524 29.9472L11.732 30.4203C12.0644 32.3967 13.516 34.6588 15.0471 35.928C15.5013 36.3027 15.6465 36.2465 16.0679 36.5603C17.1448 37.3705 17.7114 37.7171 19.1348 38.0964C21.9255 38.8458 22.6513 38.3166 24.5945 38.2042H24.8614L25.2969 37.8576C26.4487 37.3096 26.4581 37.5204 27.9518 36.5134C29.7545 35.3004 31.3886 33.3193 32.1425 31.3008C32.5077 30.336 32.8636 28.6874 32.8636 27.6243C32.7934 28.1722 32.2689 29.7505 31.8897 30.1393L31.8756 30.1533Z" fill="#FE7069"/>
<path fill-rule="evenodd" clip-rule="evenodd" d="M14.0825 26.4674C14.223 26.2661 14.3213 26.2801 14.6632 26.3504C15.8899 26.5939 15.6418 26.7766 15.8244 27.0576L16.0164 26.9452C15.9695 25.8024 15.904 25.1327 16.1568 23.9571L15.5481 23.8447L15.8291 23.189C15.8431 23.1375 15.8478 23.1235 15.8478 23.0907C15.8478 23.0111 15.8665 23.0579 15.7729 22.8893C15.7401 22.8331 15.2391 22.2149 16.0491 21.9901C15.6418 21.8543 15.8291 21.9994 15.7822 21.7465L15.5809 20.3883C15.52 20.0371 15.6324 19.7982 15.7729 19.4142C15.7963 19.3486 15.8431 19.2315 15.8572 19.1847C16.0117 18.6274 15.7354 19.0723 15.9836 18.4775C16.5455 17.1427 18.2311 16.0515 19.2472 15.3162C19.2566 15.3068 19.2847 15.2881 19.294 15.2787L21.4386 14.4919C21.8834 14.3139 21.5322 14.431 22.0941 14.3982L22.553 14.4029C22.9463 14.4216 22.4781 14.3561 22.9838 14.3795C24.1778 14.4357 25.8353 14.7682 26.739 15.5363L27.5959 16.117C27.2775 15.8688 27.3805 15.9063 26.9825 15.822C27.1417 16.1873 27.4742 16.398 27.8581 16.3699L28.0642 16.2154C27.933 15.8922 26.828 14.9696 26.5049 14.7776C25.9571 14.4497 25.2735 14.3842 24.7022 14.2436C24.2995 14.1453 24.2012 13.9111 23.7704 13.8315C22.9369 13.677 20.8673 13.7659 20.1416 14.0048C16.6157 15.1757 16.508 16.5385 15.8806 16.946C15.3983 17.2598 15.5341 17.1052 15.1829 17.5783C14.4431 18.5805 14.3494 18.3979 14.5461 18.8803C15.1361 18.7351 14.7709 18.5712 15.2438 18.4822C15.2953 18.8849 14.9722 19.0535 14.8083 19.4891C14.3869 20.5944 14.106 21.0346 13.9983 22.3039C13.9655 22.6645 13.8999 22.4397 13.825 22.8378C13.7735 23.1281 13.8203 23.5216 13.6939 23.826C13.3849 24.5894 13.7501 25.5729 13.811 25.8726C13.9421 26.5424 14.1247 26.0178 14.0779 26.4768L14.0825 26.4674Z" fill="#A41E19"/>
<path fill-rule="evenodd" clip-rule="evenodd" d="M1.47754 23.4794C1.93173 22.8659 1.87554 21.7091 2.22204 21.3297C2.69496 20.8145 1.97855 21.4655 2.34846 20.6834C2.45148 20.4679 2.46552 20.4117 2.64345 20.2666L2.95717 19.8966L3.5097 20.1401L3.83278 19.6671C4.05285 19.8685 3.86556 20.112 4.38999 20.2057C4.39935 19.8544 4.28229 19.8778 4.13245 19.6905L4.4134 19.5594L4.50705 20.023C4.90505 19.6156 4.61474 19.9574 5.37797 19.845L5.35456 19.6577C5.70105 19.7561 5.61677 19.8216 5.88367 19.6624L5.55122 18.9786C6.04755 18.8568 5.56526 19.2549 6.07096 18.899C6.31913 19.1332 6.64221 19.4376 6.57198 19.7795C6.20207 19.7514 6.23953 19.4751 6.05692 19.8919L6.48301 19.9668L6.23485 20.1729L7.03085 20.2197C7.07768 19.92 7.02617 20.112 6.89506 19.7842L7.471 19.6577L7.42886 19.2783C7.7894 19.447 7.68639 19.3345 7.99074 19.2409L8.29978 19.9902L8.78675 20.0652L8.51049 20.3321C9.2784 20.4539 8.48239 20.1682 9.25499 20.1307C9.31586 19.2877 8.96936 19.6764 8.96 19.2924C9.44697 19.194 9.33927 19.4235 9.48443 19.7467L9.65299 19.3158C10.0182 19.7326 9.67172 19.7467 9.55934 20.1214L9.91521 20.5522C10.3553 20.4492 10.4443 20.29 10.7253 19.9434L10.3975 19.6999C10.3319 20.0745 10.6035 19.9106 10.2992 20.1448C10.0791 19.7982 10.0885 19.9902 10.2757 19.5032L10.5614 19.6577L10.8798 19.1659L10.936 19.8357L12.6778 16.9507C12.5842 16.9038 12.0223 17.0724 11.8256 17.1989C11.9614 16.7212 11.8022 16.5151 11.2965 16.5057C11.4183 16.9179 11.4932 16.473 11.4557 17.0443C11.0718 17.3254 11.0343 17.2317 10.8704 16.9413C10.4022 17.3722 10.4443 17.2036 10.3179 17.2129C9.89179 17.2551 10.243 17.2176 10.0042 17.5829C9.66236 17.2551 9.5172 17.3207 9.22689 17.5127L8.96936 17.0771L8.42152 17.6251L8.51517 16.8336C8.30446 16.8617 8.07034 16.96 7.86432 16.9554C7.42886 16.946 7.86432 16.6884 7.45227 16.9179C7.61615 17.3113 8.07503 17.2223 7.75194 17.7469C7.47568 17.3628 7.69575 16.9038 6.6188 17.4284C6.05692 16.8523 5.96327 17.3207 5.34519 17.1521C5.34051 17.1521 4.85354 16.946 4.83481 16.9319C4.45554 16.7259 4.73648 16.8804 4.52577 16.4823C4.07158 16.7165 4.08563 16.8757 3.79064 17.0537L3.57057 17.1989C2.94313 17.6345 1.58992 22.7628 1.47754 23.4794Z" fill="#ED564B"/>
<path fill-rule="evenodd" clip-rule="evenodd" d="M13.9093 27.3948C14.223 27.0997 13.9749 27.376 14.031 27.1934C14.0779 27.0341 13.9561 26.8936 13.8391 26.6735L14.0825 26.4628C14.1294 26.0038 13.9468 26.5283 13.8157 25.8586C13.7548 25.5589 13.3896 24.5753 13.6986 23.8119C13.8203 23.5122 13.7735 23.1141 13.8297 22.8237C13.9046 22.4256 13.9702 22.6551 14.0029 22.2898C14.1153 21.0206 14.3916 20.585 14.813 19.4751C14.9769 19.0442 15.3 18.8709 15.2485 18.4681C14.7755 18.5571 15.1408 18.7257 14.5508 18.8662C14.3494 18.3838 14.4478 18.5665 15.1876 17.5642C15.5388 17.0912 15.3983 17.2457 15.8853 16.9319C16.5174 16.5245 16.6204 15.1616 20.1462 13.9907C20.872 13.7519 22.9416 13.6676 23.7751 13.8175C24.2059 13.8971 24.3089 14.1312 24.7069 14.2296C25.2781 14.3701 25.9571 14.431 26.5096 14.7635C26.8327 14.9555 27.9331 15.8829 28.0688 16.2013L27.8628 16.3559C27.9752 16.6135 28.9398 17.3816 29.4736 17.9108C30.1291 18.5618 30.6207 19.5078 30.9204 19.5219L31.3091 19.9106C31.2856 19.4189 30.3211 17.7141 29.9558 17.33C29.0475 16.3699 29.5625 16.6603 29.0053 16.0889C28.6307 15.7096 28.1812 15.3489 27.7832 15.0211C24.3557 12.1595 18.2686 12.773 15.7495 15.8267C15.3749 16.2809 14.9113 16.562 14.5695 16.9366C14.2886 17.2411 13.132 19.6202 13.0103 20.0464C12.5046 21.8121 12.9026 20.4867 12.8324 21.5592C12.8089 21.9573 12.6685 22.0229 12.6731 22.3601C12.6778 22.5614 12.7434 22.7207 12.72 23.0907L13.2631 23.2733C13.0056 23.9665 13.1742 23.6105 13.1742 24.1772C13.1788 24.5566 13.0712 24.7674 13.1976 25.0296C13.516 25.69 13.015 25.409 13.3661 26.0178C13.7314 26.6548 13.3568 26.8702 13.9093 27.3901V27.3948Z" fill="#B52E23"/>
<path fill-rule="evenodd" clip-rule="evenodd" d="M28.626 33.8204C28.2655 33.7923 27.2166 34.6541 26.828 34.8602C26.4955 35.0381 24.7162 35.6517 24.6928 35.6751C23.8687 36.2043 21.0874 35.9093 20.2492 35.3894C20.1696 35.4643 20.1696 35.6704 19.6124 35.4081L17.599 34.3403C17.112 34.0406 17.3181 34.2794 17.2057 34.2139L16.817 33.9422C15.6184 33.3708 15.4779 32.9821 14.5976 32.1953C13.0524 30.8184 13.8812 31.2211 13.235 30.5842L13.2444 30.9401C13.2257 31.5162 14.5742 33.6378 15.2906 34.0687C16.1943 33.6518 14.6257 33.3474 17.7863 35.2536C20.5068 36.8928 21.7476 36.6914 24.3978 36.757C25.1189 36.7757 25.1704 36.7195 25.9664 36.4057C26.6126 36.1528 26.9778 35.7875 27.638 35.6564C27.7785 35.4924 28.4153 35.0381 28.6588 34.8368C28.9585 34.5838 29.3565 34.0359 29.703 33.8766C29.8715 33.3943 30.5786 32.5887 30.9064 32.0595C31.1826 31.6145 31.7211 30.631 31.8709 30.1533C31.899 29.877 31.9037 30.1346 31.8897 29.9004L31.7913 29.7365C31.412 30.8558 29.6562 33.6144 28.6167 33.8158L28.626 33.8204Z" fill="#FE523D"/>
<path fill-rule="evenodd" clip-rule="evenodd" d="M13.633 3.99626C17.1916 2.10883 21.2653 1.22365 25.3671 1.56086C32.1378 2.11819 34.9192 5.1999 35.9821 5.40129L36.0804 5.13433L35.6449 4.96573C36.1038 4.99851 36.5112 5.43407 37.265 5.879C37.6865 6.12722 38.5527 6.87189 38.9694 6.82974C39.1146 5.92115 36.8202 4.24448 36.3379 4.04777C36.5393 4.65662 36.7266 4.48333 36.7547 4.84396C36.0851 5.02661 34.7881 3.83233 33.374 3.32652C33.0181 3.20007 32.8542 3.1064 32.5452 2.9659L29.703 1.97769C28.3264 1.62175 26.9451 1.32201 25.5263 1.1253C24.1965 0.937964 24.7397 1.23771 24.0467 0.994166C23.8406 0.919231 24.1871 0.980115 23.9436 0.956698C23.939 0.956698 23.9156 0.956698 23.9109 0.956698L22.5436 0.802144C23.246 0.713159 23.5878 0.582022 24.3651 0.577339C24.9691 0.572656 25.6059 0.600756 26.2099 0.628857C27.4835 0.680375 28.6541 1.00822 29.8669 1.16745C29.7264 1.00822 29.7732 0.994166 29.3424 0.867713L27.6896 0.572656C24.735 0.0387426 21.3168 0.366584 18.5449 1.39226L16.9528 2.29148C16.1287 2.77856 14.0732 3.32652 13.633 3.99626Z" fill="#FF7263"/>
<path fill-rule="evenodd" clip-rule="evenodd" d="M17.8144 19.7467C18.189 19.728 17.8378 19.7514 18.5495 18.9552C20.0198 17.316 21.4713 16.0749 23.8594 15.644C24.3697 15.5503 25.0206 15.5831 25.5684 15.5972C26.7812 15.6253 26.3129 16.0468 26.9825 15.822C27.3805 15.9063 27.2775 15.8688 27.5959 16.117L26.739 15.5363C25.4607 15.3208 24.8286 14.5106 22.2439 14.7729C22.0566 14.7916 21.0218 14.9227 20.8673 14.9743C20.5208 15.0867 19.973 15.377 19.6452 15.5644C19.4205 15.6908 19.2378 15.7564 19.0459 15.9906C18.5964 16.5338 19.1817 16.0983 18.6666 16.4308C18.4418 16.576 18.1515 16.6743 17.9923 16.7727C17.5007 17.0771 17.9315 16.8664 17.6739 17.2223L17.3134 17.6157C17.0605 18.0091 17.4866 17.7796 16.9575 18.0513C17.3227 18.44 17.4117 18.4681 17.1682 18.9552C17.7535 18.9833 17.3181 19.0395 17.4492 18.6789L17.805 18.8943C17.688 19.1378 17.393 19.7935 17.2947 19.9106L17.4866 20.0698C17.6458 19.6202 17.4117 19.9574 17.8144 19.7514V19.7467Z" fill="#7B1814"/>
<path fill-rule="evenodd" clip-rule="evenodd" d="M16.1568 23.9571C15.904 25.128 15.9696 25.8024 16.0164 26.9452L16.1381 28.2659C16.3816 28.959 16.4191 29.6475 16.8592 30.4765L16.5783 30.3032C16.3769 30.2001 16.5549 30.336 16.288 30.3875L15.9087 30.3313C15.6277 30.3079 15.8338 30.2517 15.5294 30.4765C15.3 30.2563 15.3749 30.247 15.2204 30.1439C15.2063 30.1346 15.0752 30.1252 15.0237 30.1205L15.211 31.0338C15.3281 31.1743 16.5361 32.9025 16.597 33.0477C16.9809 33.1507 17.8238 34.1108 18.278 34.434C18.587 34.6541 18.8773 34.8461 19.2285 35.0147C19.6171 35.1974 19.9309 35.2255 20.2446 35.3847C21.0827 35.9046 23.8641 36.1996 24.6882 35.6704C23.6908 35.6704 23.8781 35.8765 22.4172 35.4269C20.7128 34.9023 18.882 33.4598 17.9221 31.9518C16.5876 29.8629 16.1756 28.1535 16.1709 25.7415C16.1662 24.1538 16.3863 23.9431 16.391 23.1235C16.2037 23.4091 16.1662 23.5637 16.1522 23.9524L16.1568 23.9571Z" fill="#D25354"/>
<path fill-rule="evenodd" clip-rule="evenodd" d="M29.7077 33.8813C29.3612 34.0406 28.9679 34.5839 28.6635 34.8414C28.42 35.0475 27.7832 35.4971 27.6427 35.661L27.5116 35.8296C26.8982 36.4525 25.1377 36.9349 24.3136 37.141C20.9188 37.9934 17.187 36.6867 14.8879 34.2326C14.6725 34.0031 14.6772 33.8907 14.3588 33.7455L14.1621 33.6846C14.7006 35.4128 16.0726 36.3261 17.6927 37.2159C18.9897 37.9325 21.0218 38.1901 22.5483 38.148C24.4774 38.0918 26.1725 37.3143 27.7411 36.3214C28.5886 35.7875 30.9953 33.6378 30.9906 32.5325C30.4709 32.7854 30.4007 33.6659 29.703 33.8907L29.7077 33.8813Z" fill="#FF837A"/>
<path fill-rule="evenodd" clip-rule="evenodd" d="M16.1568 23.9571C16.1662 23.5637 16.2083 23.4091 16.3956 23.1281C16.5455 23.0438 16.6157 22.6317 16.7094 22.3507C17.098 21.147 17.7161 20.3555 17.8144 19.7467C17.4117 19.9528 17.6458 19.6156 17.4866 20.0652L17.2947 19.9059C17.393 19.7888 17.688 19.1332 17.805 18.8896L17.4492 18.6742C17.3181 19.0348 17.7535 18.9786 17.1682 18.9505C17.4117 18.4587 17.3228 18.4353 16.9575 18.0466C17.4866 17.775 17.0559 17.9998 17.3134 17.611L17.6739 17.2176C17.9315 16.8617 17.5007 17.0724 17.9923 16.768C18.1562 16.6697 18.4465 16.5666 18.6666 16.4261C19.1863 16.0936 18.601 16.5292 19.0459 15.9859C19.2378 15.7517 19.4205 15.6861 19.6452 15.5597C19.9777 15.3724 20.5208 15.0773 20.8673 14.9696C21.0265 14.9181 22.0613 14.7869 22.2439 14.7682C24.8286 14.5059 25.4607 15.3162 26.739 15.5316C25.8353 14.7635 24.1731 14.431 22.9838 14.3748C22.4781 14.3514 22.9463 14.4169 22.553 14.3982L22.0941 14.3935C21.5322 14.4263 21.8834 14.3092 21.4386 14.4872L19.294 15.274C19.2847 15.2834 19.2566 15.3021 19.2472 15.3115C18.2311 16.0468 16.5455 17.138 15.9836 18.4728C15.7307 19.0676 16.007 18.6227 15.8572 19.18C15.8478 19.2221 15.7963 19.3439 15.7729 19.4095C15.6324 19.7888 15.52 20.0324 15.5809 20.3836L15.7822 21.7418C15.8291 21.9994 15.6418 21.8496 16.0491 21.9854C15.2391 22.2102 15.7448 22.8284 15.7729 22.8846C15.8665 23.0532 15.8431 23.0064 15.8478 23.086C15.8478 23.1188 15.8431 23.1328 15.8291 23.1843L15.5481 23.84L16.1568 23.9524V23.9571Z" fill="#911814"/>
<path fill-rule="evenodd" clip-rule="evenodd" d="M28.626 33.8205C29.6655 33.6191 31.4167 30.8605 31.8007 29.7412L31.899 29.9051C31.9131 30.144 31.9084 29.8864 31.8803 30.158C32.2596 29.7646 32.784 28.191 32.8542 27.643C32.8589 28.7108 32.4984 30.3547 32.1331 31.3195C31.3793 33.3334 29.7451 35.3145 27.9424 36.5322C26.4487 37.5344 26.4394 37.3284 25.2875 37.8763L24.852 38.2229C26.0648 38.1105 27.5772 37.2347 28.509 36.5369C29.0568 36.1247 29.4595 35.8016 29.9465 35.3519C30.2508 35.0756 30.9344 34.1108 31.1873 34.1483C31.3137 33.6003 31.3044 33.7549 31.6321 33.3287C31.7492 33.1741 31.9505 32.8416 32.0582 32.673C32.3392 32.2281 32.5826 31.6286 32.8308 31.3289C32.8683 30.7996 33.093 30.4062 33.2195 29.9332C33.2991 29.6428 33.3037 29.1651 33.3693 28.7249C33.4395 28.2144 33.786 26.3082 33.0322 26.0975C33.0275 26.1162 32.6669 27.9521 32.5077 27.7086C32.4937 27.6898 32.4562 27.7648 32.4281 27.7882C32.2174 26.8328 32.6763 26.6407 32.5592 26.0647C32.5499 26.0178 32.5405 25.9944 32.5265 25.9569C32.2127 24.9172 32.9619 26.2942 32.3485 25.6385C32.3485 27.0388 31.7913 29.1511 31.1639 30.3453C30.794 31.0432 30.499 31.5537 30.0401 32.1672C29.614 32.7339 28.8929 33.1695 28.6354 33.8158L28.626 33.8205Z" fill="#F66058"/>
<path fill-rule="evenodd" clip-rule="evenodd" d="M36.3426 4.05246C35.6964 3.35462 30.8502 1.10657 29.8669 1.16745C28.6541 1.00822 27.4835 0.680376 26.2099 0.628858C25.6059 0.605441 24.9691 0.572657 24.3651 0.57734C23.5878 0.582024 23.246 0.71316 22.5436 0.802146L23.9109 0.956699C23.9156 0.956699 23.9436 0.956699 23.9436 0.956699C24.1871 0.980117 23.8406 0.923915 24.0467 0.994167C24.7396 1.23771 24.1918 0.937966 25.5263 1.1253C26.9451 1.32201 28.3264 1.62175 29.703 1.97769L32.5452 2.9659C32.8542 3.1064 33.0181 3.20007 33.374 3.32652C34.7881 3.82765 36.0851 5.02662 36.7547 4.84396C36.7266 4.48334 36.544 4.65662 36.3379 4.04777L36.3426 4.05246Z" fill="#FF8B82"/>
<path fill-rule="evenodd" clip-rule="evenodd" d="M42.2097 8.5392C42.5327 8.10364 42.2003 8.73591 42.9307 8.15048C43.0899 8.43617 43.2913 8.69844 43.5395 8.88109L43.8625 9.12932C43.989 9.23703 44.0171 9.25109 44.2465 9.37754C44.1435 8.79211 42.3969 6.97493 41.8725 6.51595C39.4611 4.39435 36.8296 2.62869 33.7767 1.61707C33.0977 1.39226 32.3485 1.25176 31.6883 0.975433C31.6134 1.05505 31.4636 1.05037 31.679 1.34074C32.8589 1.0972 37.6865 4.2117 38.8852 5.12965C39.1661 5.34509 39.1193 5.42939 39.433 5.6823C40.7253 6.71734 41.0484 7.08733 42.2097 8.53452V8.5392Z" fill="#E86565"/>
<path fill-rule="evenodd" clip-rule="evenodd" d="M47.6178 22.3554C47.5101 22.5942 47.4727 22.6598 47.4961 22.8565C47.5195 23.0813 47.4773 22.8425 47.5569 23.0626C47.7255 23.5216 47.585 23.1328 47.6131 23.5731L47.6974 24.7627C47.6974 24.7674 47.6927 24.7955 47.6927 24.8001L47.674 25.0905C47.674 25.0999 47.6693 25.128 47.6646 25.1374L47.6319 25.8305C48.4419 25.6478 47.5054 25.5963 48.3529 25.6432L48.573 25.6385C49.1068 25.6291 48.573 25.7462 48.8305 25.2779C49.5095 26.0366 49.355 25.3153 49.5142 24.8704C49.5938 27.5446 49.2707 28.856 49.2707 30.439C49.6359 30.1533 49.5563 29.5257 49.6312 28.945C49.8419 27.3339 49.9543 25.5916 49.7062 24.004C49.3831 23.6574 49.2754 21.7465 49.2988 21.5967C48.8305 21.3812 49.3784 21.784 48.9476 21.2407C48.7041 21.7231 48.8212 21.4749 48.3014 21.2454L48.161 21.592C48.0814 21.8543 47.8426 21.7419 48.2359 21.9901C47.9222 21.8496 48.1141 21.8683 47.866 21.5686C47.5944 21.9854 47.9456 21.9479 47.6225 22.3647L47.6178 22.3554Z" fill="#AC3532"/>
<path fill-rule="evenodd" clip-rule="evenodd" d="M46.8125 18.0653C46.7516 18.3182 46.9342 19.3392 46.9951 19.7607C47.07 20.2666 47.3462 21.0721 47.3182 21.6622L47.379 21.8074C47.5804 22.5052 47.2526 22.1868 47.6131 22.3554C47.9315 21.9386 47.5804 21.976 47.8566 21.5592C48.1048 21.8589 47.9128 21.8402 48.2265 21.9807C47.8332 21.7325 48.072 21.8449 48.1516 21.5826L48.2921 21.236C48.8118 21.4702 48.6901 21.7137 48.9383 21.2313C49.3737 21.7746 48.8212 21.3719 49.2894 21.5873C49.2707 21.7418 49.3784 23.6527 49.6968 23.9946C49.6968 22.7863 49.4065 20.7349 49.1068 19.564C49.0272 19.2456 48.9991 18.4634 48.7135 18.3229C48.4045 18.0747 48.5496 18.3042 48.3483 17.8499C48.1188 18.0466 48.1376 18.0279 47.6881 17.9904C46.6673 17.9061 47.3978 17.9951 46.8078 18.0653H46.8125Z" fill="#B83E3E"/>
<path fill-rule="evenodd" clip-rule="evenodd" d="M42.2096 8.53921L42.2799 8.83895C42.7434 9.504 43.2538 10.1456 43.6752 10.8107C44.0873 11.4664 44.4853 12.1876 44.8318 12.7122H45.197C45.6559 12.6513 45.2672 12.5576 45.6231 12.773C46.3723 13.2367 45.9321 12.7637 46.5362 12.8667C46.4191 12.1548 45.9181 11.5272 45.5341 10.9231C45.2766 10.5203 44.6398 9.37754 44.2418 9.37286C44.0124 9.24641 43.9843 9.23236 43.8578 9.12464L43.5348 8.87642C43.2866 8.69844 43.0852 8.43149 42.926 8.1458C42.1956 8.73123 42.528 8.09896 42.205 8.53452L42.2096 8.53921Z" fill="#D6595B"/>
<path fill-rule="evenodd" clip-rule="evenodd" d="M46.8124 18.0653C47.4024 17.9998 46.672 17.9108 47.6927 17.9904C48.1422 18.0279 48.1235 18.0419 48.353 17.8499C48.5543 18.3089 48.4091 18.0747 48.7182 18.3229C48.7088 17.7188 48.2359 16.4308 47.9877 15.7798C47.6787 14.9602 47.7583 15.1991 47.6272 15.1616L46.8686 15.1663C46.5783 15.1897 47.0559 15.2084 46.7469 15.1569L46.2272 14.9087C46.2225 14.904 46.1991 14.8806 46.1897 14.8759C46.1803 14.8712 46.1569 14.8525 46.1476 14.8478L45.2158 13.6863C45.1877 13.8549 46.5736 17.0771 46.6532 17.7047C46.7048 18.0794 46.4332 17.8733 46.8124 18.07V18.0653Z" fill="#C54747"/>
<path fill-rule="evenodd" clip-rule="evenodd" d="M14.0825 26.4674L13.8391 26.6782C13.9514 26.8983 14.0779 27.0388 14.031 27.1981C13.9748 27.3807 14.223 27.1044 13.9093 27.3994C13.8812 27.7507 14.0638 28.0364 14.3494 28.2472C14.4618 28.3221 14.7006 28.4579 14.8785 28.486L15.3 28.4813C15.6792 28.5656 15.1735 28.6733 15.6277 28.6874C15.8806 28.6968 15.7448 28.5047 16.1475 28.6827L16.1381 28.2706L16.0164 26.9498L15.8244 27.0622C15.6418 26.7765 15.8853 26.5986 14.6632 26.355C14.3213 26.2848 14.223 26.2754 14.0825 26.4721V26.4674Z" fill="#AD2E2A"/>
<path fill-rule="evenodd" clip-rule="evenodd" d="M44.8318 12.7122L45.2157 13.6863L46.1475 14.8478C46.1569 14.8525 46.1803 14.8712 46.1897 14.8759C46.199 14.8806 46.2225 14.904 46.2271 14.9087L46.7469 15.1569C47.0559 15.2038 46.5783 15.1897 46.8686 15.1663L47.6272 15.1616C47.6038 14.8103 46.981 13.0025 46.5362 12.8714C45.9321 12.7684 46.3723 13.2414 45.6231 12.7777C45.2673 12.5576 45.6512 12.656 45.197 12.7168H44.8318V12.7122Z" fill="#CB4D4E"/>
<path fill-rule="evenodd" clip-rule="evenodd" d="M15.211 31.0385L15.0237 30.1252C15.0752 30.1299 15.2063 30.1393 15.2204 30.1486C15.3749 30.2563 15.3 30.261 15.5294 30.4811C15.8337 30.2517 15.6277 30.3125 15.9087 30.336L16.2879 30.3922C16.5548 30.336 16.3769 30.2001 16.5782 30.3079L16.8592 30.4811C16.419 29.6522 16.3816 28.959 16.1381 28.2706L16.1475 28.6827C15.7448 28.5047 15.8806 28.6921 15.6277 28.6874C15.1688 28.6733 15.6745 28.5609 15.3 28.4813L14.8785 28.486C14.7006 28.4626 14.4618 28.3221 14.3494 28.2471C14.0123 28.5937 14.1902 28.664 14.3166 28.9169C14.4197 29.1323 14.3682 29.1745 14.4665 29.5164C14.5742 29.8817 14.9628 30.6217 15.2157 31.0385H15.211Z" fill="#B83E3E"/>
<path fill-rule="evenodd" clip-rule="evenodd" d="M4.48832 11.6724L4.58665 12.4592C5.07361 11.6724 6.29104 10.3376 6.38468 9.86461L5.92113 10.0613L5.90708 9.60234C5.40138 9.91613 5.01274 10.6186 4.67561 11.1057C4.38999 11.5179 4.41808 11.3633 4.48363 11.6724H4.48832Z" fill="#FF7263"/>
</svg>
