<svg width="83" height="125" viewBox="0 0 83 125" fill="none" xmlns="http://www.w3.org/2000/svg">
<path fill-rule="evenodd" clip-rule="evenodd" d="M63.8008 4.19293C61.5112 22.0041 60.392 26.8561 49.8379 36.3307C40.5012 44.7141 32.8876 48.5499 22.5864 55.0645C-6.67854 73.5688 1.63739 89.7174 3.27622 124.853L19.6131 121.157C23.1015 113.486 28.0882 108.952 32.9111 103.599C55.2929 78.7487 41.8825 87.5911 49.1777 106.456C62.265 100.709 49.543 74.7256 52.3102 64.8951C55.822 59.1344 57.4842 60.1227 61.8623 51.2569C67.8604 39.1221 77.2626 26.5564 79.9737 20.4023C84.3283 10.5109 82.0293 7.86474 78.7282 0.286926C70.5668 1.72943 75.474 3.58408 63.8008 4.18825V4.19293Z" fill="#A2833A"/>
</svg>
