<?xml version="1.0" encoding="UTF-8"?>
<!DOCTYPE svg PUBLIC "-//W3C//DTD SVG 1.1//EN" "http://www.w3.org/Graphics/SVG/1.1/DTD/svg11.dtd">
<!-- Creator: CorelDRAW 2021 (64-Bit) -->
<svg xmlns="http://www.w3.org/2000/svg" xml:space="preserve" width="5.4187mm" height="5.4187mm" version="1.1" style="shape-rendering:geometricPrecision; text-rendering:geometricPrecision; image-rendering:optimizeQuality; fill-rule:evenodd; clip-rule:evenodd"
viewBox="0 0 541.88 541.88"
 xmlns:xlink="http://www.w3.org/1999/xlink"
 xmlns:xodm="http://www.corel.com/coreldraw/odm/2003">
 <defs>
  <style type="text/css">
   <![CDATA[
    .str0 {stroke:#FEFEFE;stroke-width:33.07;stroke-miterlimit:22.9256}
    .fil95 {fill:none}
    .fil88 {fill:#E4A848}
    .fil87 {fill:#E4A948}
    .fil86 {fill:#E5A948}
    .fil85 {fill:#E5AA48}
    .fil94 {fill:#E6AA48}
    .fil84 {fill:#E6AB48}
    .fil83 {fill:#E6AC48}
    .fil82 {fill:#E6AC49}
    .fil93 {fill:#E7AB48}
    .fil92 {fill:#E7AC48}
    .fil81 {fill:#E7AD49}
    .fil80 {fill:#E7AE49}
    .fil91 {fill:#E8AD48}
    .fil90 {fill:#E8AE48}
    .fil79 {fill:#E8AE49}
    .fil78 {fill:#E8AF49}
    .fil77 {fill:#E8B049}
    .fil89 {fill:#E9AF49}
    .fil76 {fill:#E9B049}
    .fil75 {fill:#E9B149}
    .fil74 {fill:#E9B249}
    .fil0 {fill:#EAB149}
    .fil1 {fill:#EAB249}
    .fil73 {fill:#EAB349}
    .fil72 {fill:#EAB449}
    .fil2 {fill:#EBB349}
    .fil3 {fill:#EBB449}
    .fil71 {fill:#EBB44A}
    .fil70 {fill:#EBB54A}
    .fil4 {fill:#ECB549}
    .fil5 {fill:#ECB649}
    .fil6 {fill:#ECB64A}
    .fil69 {fill:#ECB74A}
    .fil7 {fill:#EDB64A}
    .fil8 {fill:#EDB74A}
    .fil9 {fill:#EDB84A}
    .fil68 {fill:#EDB94A}
    .fil10 {fill:#EEB84A}
    .fil11 {fill:#EEB94A}
    .fil12 {fill:#EEBA4A}
    .fil67 {fill:#EEBB4A}
    .fil13 {fill:#EFBA4A}
    .fil14 {fill:#EFBB4A}
    .fil15 {fill:#EFBC4A}
    .fil66 {fill:#EFBC4B}
    .fil65 {fill:#EFBD4B}
    .fil16 {fill:#F0BC4A}
    .fil17 {fill:#F0BD4A}
    .fil64 {fill:#F0BD4B}
    .fil63 {fill:#F0BE4B}
    .fil18 {fill:#F1BE4B}
    .fil19 {fill:#F1BF4B}
    .fil62 {fill:#F1C04B}
    .fil20 {fill:#F2C04B}
    .fil21 {fill:#F2C14B}
    .fil61 {fill:#F2C24B}
    .fil22 {fill:#F3C24B}
    .fil23 {fill:#F3C34B}
    .fil60 {fill:#F3C44B}
    .fil24 {fill:#F4C44B}
    .fil25 {fill:#F4C54B}
    .fil59 {fill:#F4C54C}
    .fil58 {fill:#F4C64C}
    .fil26 {fill:#F5C54B}
    .fil27 {fill:#F5C64C}
    .fil28 {fill:#F5C74C}
    .fil57 {fill:#F5C84C}
    .fil29 {fill:#F6C74C}
    .fil30 {fill:#F6C84C}
    .fil31 {fill:#F6C94C}
    .fil32 {fill:#F7C94C}
    .fil33 {fill:#F7CA4C}
    .fil34 {fill:#F7CB4C}
    .fil35 {fill:#F8CB4C}
    .fil36 {fill:#F8CC4C}
    .fil37 {fill:#F8CD4C}
    .fil56 {fill:#F8CD4D}
    .fil38 {fill:#F9CD4C}
    .fil39 {fill:#F9CD4D}
    .fil40 {fill:#F9CE4D}
    .fil41 {fill:#F9CF4D}
    .fil42 {fill:#FACF4D}
    .fil43 {fill:#FAD04D}
    .fil44 {fill:#FBD14D}
    .fil45 {fill:#FBD24D}
    .fil46 {fill:#FCD34D}
    .fil47 {fill:#FCD44D}
    .fil48 {fill:#FDD54D}
    .fil49 {fill:#FDD54E}
    .fil50 {fill:#FDD64E}
    .fil51 {fill:#FED64E}
    .fil52 {fill:#FED74E}
    .fil53 {fill:#FED84E}
    .fil54 {fill:#FFD84E}
    .fil55 {fill:#FFD94E}
   ]]>
  </style>
    <clipPath id="id0">
     <path d="M270.94 0c149.63,0 270.95,121.3 270.95,270.94 0,149.63 -121.31,270.95 -270.95,270.95 -149.63,0 -270.94,-121.31 -270.94,-270.95 0,-149.63 121.3,-270.94 270.94,-270.94z"/>
    </clipPath>
   <clipPath id="id1">
    <path d="M270.94 0c149.63,0 270.95,121.3 270.95,270.94 0,149.63 -121.31,270.95 -270.95,270.95 -149.63,0 -270.94,-121.31 -270.94,-270.95 0,-149.63 121.3,-270.94 270.94,-270.94z"/>
   </clipPath>
 </defs>
 <g id="Capa_x0020_1">
  <metadata id="CorelCorpID_0Corel-Layer"/>
  <g>
   <g style="clip-path:url(#id0)">
    <polygon class="fil0" points="-157.69,195.35 -157,194.87 196.04,699.09 195.36,699.57 "/>
    <polygon id="_1" class="fil0" points="-157.35,195.11 -156.31,194.39 196.74,698.6 195.7,699.33 "/>
    <polygon id="_2" class="fil0" points="-156.66,194.63 -155.62,193.9 197.43,698.12 196.39,698.84 "/>
    <polygon id="_3" class="fil1" points="-155.96,194.14 -154.92,193.41 198.12,697.63 197.08,698.36 "/>
    <polygon id="_4" class="fil1" points="-155.27,193.66 -154.23,192.93 198.82,697.15 197.78,697.87 "/>
    <polygon id="_5" class="fil2" points="-154.58,193.17 -153.54,192.44 199.51,696.66 198.47,697.39 "/>
    <polygon id="_6" class="fil2" points="-153.88,192.69 -152.84,191.96 200.21,696.17 199.17,696.9 "/>
    <polygon id="_7" class="fil2" points="-153.19,192.2 -152.15,191.47 200.9,695.69 199.86,696.42 "/>
    <polygon id="_8" class="fil3" points="-152.5,191.71 -151.46,190.99 201.59,695.2 200.55,695.93 "/>
    <polygon id="_9" class="fil3" points="-151.8,191.23 -150.76,190.5 202.29,694.72 201.25,695.45 "/>
    <polygon id="_10" class="fil3" points="-151.11,190.74 -150.07,190.01 202.98,694.23 201.94,694.96 "/>
    <polygon id="_11" class="fil4" points="-150.42,190.26 -149.38,189.53 203.67,693.75 202.63,694.47 "/>
    <polygon id="_12" class="fil4" points="-149.72,189.77 -148.68,189.04 204.37,693.26 203.33,693.99 "/>
    <polygon id="_13" class="fil4" points="-149.03,189.29 -147.99,188.56 205.06,692.77 204.02,693.5 "/>
    <polygon id="_14" class="fil5" points="-148.34,188.8 -147.3,188.07 205.75,692.29 204.71,693.02 "/>
    <polygon id="_15" class="fil6" points="-147.64,188.32 -146.6,187.59 206.45,691.8 205.41,692.53 "/>
    <polygon id="_16" class="fil7" points="-146.95,187.83 -145.91,187.1 207.14,691.32 206.1,692.05 "/>
    <polygon id="_17" class="fil8" points="-146.25,187.34 -145.21,186.62 207.83,690.83 206.79,691.56 "/>
    <polygon id="_18" class="fil8" points="-145.56,186.86 -144.52,186.13 208.53,690.35 207.49,691.07 "/>
    <polygon id="_19" class="fil8" points="-144.87,186.37 -143.83,185.64 209.22,689.86 208.18,690.59 "/>
    <polygon id="_20" class="fil9" points="-144.17,185.89 -143.13,185.16 209.92,689.38 208.87,690.1 "/>
    <polygon id="_21" class="fil10" points="-143.48,185.4 -142.44,184.67 210.61,688.89 209.57,689.62 "/>
    <polygon id="_22" class="fil11" points="-142.79,184.92 -141.75,184.19 211.3,688.4 210.26,689.13 "/>
    <polygon id="_23" class="fil11" points="-142.09,184.43 -141.05,183.7 212,687.92 210.96,688.65 "/>
    <polygon id="_24" class="fil11" points="-141.4,183.94 -140.36,183.22 212.69,687.43 211.65,688.16 "/>
    <polygon id="_25" class="fil12" points="-140.71,183.46 -139.67,182.73 213.38,686.95 212.34,687.68 "/>
    <polygon id="_26" class="fil12" points="-140.01,182.97 -138.97,182.24 214.08,686.46 213.04,687.19 "/>
    <polygon id="_27" class="fil13" points="-139.32,182.49 -138.28,181.76 214.77,685.98 213.73,686.7 "/>
    <polygon id="_28" class="fil14" points="-138.63,182 -137.59,181.27 215.46,685.49 214.42,686.22 "/>
    <polygon id="_29" class="fil14" points="-137.93,181.52 -136.89,180.79 216.16,685 215.12,685.73 "/>
    <polygon id="_30" class="fil14" points="-137.24,181.03 -136.2,180.3 216.85,684.52 215.81,685.25 "/>
    <polygon id="_31" class="fil15" points="-136.55,180.55 -135.5,179.82 217.54,684.03 216.5,684.76 "/>
    <polygon id="_32" class="fil16" points="-135.85,180.06 -134.81,179.33 218.24,683.55 217.2,684.28 "/>
    <polygon id="_33" class="fil16" points="-135.16,179.57 -134.12,178.85 218.93,683.06 217.89,683.79 "/>
    <polygon id="_34" class="fil17" points="-134.46,179.09 -133.42,178.36 219.62,682.58 218.58,683.3 "/>
    <polygon id="_35" class="fil17" points="-133.77,178.6 -132.73,177.87 220.32,682.09 219.28,682.82 "/>
    <polygon id="_36" class="fil17" points="-133.08,178.12 -132.04,177.39 221.01,681.6 219.97,682.33 "/>
    <polygon id="_37" class="fil18" points="-132.38,177.63 -131.34,176.9 221.71,681.12 220.67,681.85 "/>
    <polygon id="_38" class="fil18" points="-131.69,177.15 -130.65,176.42 222.4,680.63 221.36,681.36 "/>
    <polygon id="_39" class="fil19" points="-131,176.66 -129.96,175.93 223.09,680.15 222.05,680.88 "/>
    <polygon id="_40" class="fil19" points="-130.3,176.17 -129.26,175.45 223.79,679.66 222.75,680.39 "/>
    <polygon id="_41" class="fil19" points="-129.61,175.69 -128.57,174.96 224.48,679.18 223.44,679.91 "/>
    <polygon id="_42" class="fil20" points="-128.92,175.2 -127.88,174.47 225.17,678.69 224.13,679.42 "/>
    <polygon id="_43" class="fil20" points="-128.22,174.72 -127.18,173.99 225.87,678.21 224.83,678.93 "/>
    <polygon id="_44" class="fil20" points="-127.53,174.23 -126.49,173.5 226.56,677.72 225.52,678.45 "/>
    <polygon id="_45" class="fil21" points="-126.84,173.75 -125.8,173.02 227.25,677.23 226.21,677.96 "/>
    <polygon id="_46" class="fil21" points="-126.14,173.26 -125.1,172.53 227.95,676.75 226.91,677.48 "/>
    <polygon id="_47" class="fil21" points="-125.45,172.78 -124.41,172.05 228.64,676.26 227.6,676.99 "/>
    <polygon id="_48" class="fil22" points="-124.75,172.29 -123.71,171.56 229.33,675.78 228.29,676.51 "/>
    <polygon id="_49" class="fil22" points="-124.06,171.8 -123.02,171.08 230.03,675.29 228.99,676.02 "/>
    <polygon id="_50" class="fil22" points="-123.37,171.32 -122.33,170.59 230.72,674.81 229.68,675.53 "/>
    <polygon id="_51" class="fil23" points="-122.67,170.83 -121.63,170.1 231.42,674.32 230.38,675.05 "/>
    <polygon id="_52" class="fil23" points="-121.98,170.35 -120.94,169.62 232.11,673.83 231.07,674.56 "/>
    <polygon id="_53" class="fil24" points="-121.29,169.86 -120.25,169.13 232.8,673.35 231.76,674.08 "/>
    <polygon id="_54" class="fil24" points="-120.59,169.38 -119.55,168.65 233.5,672.86 232.46,673.59 "/>
    <polygon id="_55" class="fil24" points="-119.9,168.89 -118.86,168.16 234.19,672.38 233.15,673.11 "/>
    <polygon id="_56" class="fil25" points="-119.21,168.4 -118.17,167.68 234.88,671.89 233.84,672.62 "/>
    <polygon id="_57" class="fil25" points="-118.51,167.92 -117.47,167.19 235.58,671.41 234.54,672.14 "/>
    <polygon id="_58" class="fil26" points="-117.82,167.43 -116.78,166.7 236.27,670.92 235.23,671.65 "/>
    <polygon id="_59" class="fil27" points="-117.13,166.95 -116.09,166.22 236.96,670.44 235.92,671.16 "/>
    <polygon id="_60" class="fil27" points="-116.43,166.46 -115.39,165.73 237.66,669.95 236.62,670.68 "/>
    <polygon id="_61" class="fil27" points="-115.74,165.98 -114.7,165.25 238.35,669.46 237.31,670.19 "/>
    <polygon id="_62" class="fil28" points="-115.05,165.49 -114,164.76 239.04,668.98 238,669.71 "/>
    <polygon id="_63" class="fil28" points="-114.35,165 -113.31,164.28 239.74,668.49 238.7,669.22 "/>
    <polygon id="_64" class="fil29" points="-113.66,164.52 -112.62,163.79 240.43,668.01 239.39,668.74 "/>
    <polygon id="_65" class="fil30" points="-112.96,164.03 -111.92,163.31 241.13,667.52 240.08,668.25 "/>
    <polygon id="_66" class="fil30" points="-112.27,163.55 -111.23,162.82 241.82,667.04 240.78,667.76 "/>
    <polygon id="_67" class="fil30" points="-111.58,163.06 -110.54,162.33 242.51,666.55 241.47,667.28 "/>
    <polygon id="_68" class="fil31" points="-110.88,162.58 -109.84,161.85 243.21,666.06 242.17,666.79 "/>
    <polygon id="_69" class="fil32" points="-110.19,162.09 -109.15,161.36 243.9,665.58 242.86,666.31 "/>
    <polygon id="_70" class="fil33" points="-109.5,161.61 -108.46,160.88 244.59,665.09 243.55,665.82 "/>
    <polygon id="_71" class="fil33" points="-108.8,161.12 -107.76,160.39 245.29,664.61 244.25,665.34 "/>
    <polygon id="_72" class="fil33" points="-108.11,160.63 -107.07,159.91 245.98,664.12 244.94,664.85 "/>
    <polygon id="_73" class="fil34" points="-107.42,160.15 -106.38,159.42 246.67,663.64 245.63,664.37 "/>
    <polygon id="_74" class="fil35" points="-106.72,159.66 -105.68,158.93 247.37,663.15 246.33,663.88 "/>
    <polygon id="_75" class="fil35" points="-106.03,159.18 -104.99,158.45 248.06,662.67 247.02,663.39 "/>
    <polygon id="_76" class="fil36" points="-105.34,158.69 -104.29,157.96 248.75,662.18 247.71,662.91 "/>
    <polygon id="_77" class="fil36" points="-104.64,158.21 -103.6,157.48 249.45,661.69 248.41,662.42 "/>
    <polygon id="_78" class="fil36" points="-103.95,157.72 -102.91,156.99 250.14,661.21 249.1,661.94 "/>
    <polygon id="_79" class="fil37" points="-103.25,157.23 -102.21,156.51 250.83,660.72 249.79,661.45 "/>
    <polygon id="_80" class="fil38" points="-102.56,156.75 -101.52,156.02 251.53,660.24 250.49,660.97 "/>
    <polygon id="_81" class="fil39" points="-101.87,156.26 -100.83,155.54 252.22,659.75 251.18,660.48 "/>
    <polygon id="_82" class="fil40" points="-101.17,155.78 -100.13,155.05 252.92,659.27 251.88,659.99 "/>
    <polygon id="_83" class="fil40" points="-100.48,155.29 -99.44,154.56 253.61,658.78 252.57,659.51 "/>
    <polygon id="_84" class="fil41" points="-99.79,154.81 -98.75,154.08 254.3,658.29 253.26,659.02 "/>
    <polygon id="_85" class="fil42" points="-99.09,154.32 -98.05,153.59 255,657.81 253.96,658.54 "/>
    <polygon id="_86" class="fil42" points="-98.4,153.84 -97.36,153.11 255.69,657.32 254.65,658.05 "/>
    <polygon id="_87" class="fil43" points="-97.71,153.35 -96.67,152.62 256.38,656.84 255.34,657.57 "/>
    <polygon id="_88" class="fil43" points="-97.01,152.86 -95.97,152.14 257.08,656.35 256.04,657.08 "/>
    <polygon id="_89" class="fil43" points="-96.32,152.38 -95.28,151.65 257.77,655.87 256.73,656.59 "/>
    <polygon id="_90" class="fil44" points="-95.63,151.89 -94.59,151.16 258.46,655.38 257.42,656.11 "/>
    <polygon id="_91" class="fil44" points="-94.93,151.41 -93.89,150.68 259.16,654.9 258.12,655.62 "/>
    <polygon id="_92" class="fil44" points="-94.24,150.92 -93.2,150.19 259.85,654.41 258.81,655.14 "/>
    <polygon id="_93" class="fil45" points="-93.54,150.44 -92.5,149.71 260.54,653.92 259.5,654.65 "/>
    <polygon id="_94" class="fil45" points="-92.85,149.95 -91.81,149.22 261.24,653.44 260.2,654.17 "/>
    <polygon id="_95" class="fil45" points="-92.16,149.46 -91.12,148.74 261.93,652.95 260.89,653.68 "/>
    <polygon id="_96" class="fil46" points="-91.46,148.98 -90.42,148.25 262.63,652.47 261.58,653.2 "/>
    <polygon id="_97" class="fil46" points="-90.77,148.49 -89.73,147.77 263.32,651.98 262.28,652.71 "/>
    <polygon id="_98" class="fil46" points="-90.08,148.01 -89.04,147.28 264.01,651.5 262.97,652.22 "/>
    <polygon id="_99" class="fil47" points="-89.38,147.52 -88.34,146.79 264.71,651.01 263.67,651.74 "/>
    <polygon id="_100" class="fil47" points="-88.69,147.04 -87.65,146.31 265.4,650.52 264.36,651.25 "/>
    <polygon id="_101" class="fil48" points="-88,146.55 -86.96,145.82 266.09,650.04 265.05,650.77 "/>
    <polygon id="_102" class="fil48" points="-87.3,146.07 -86.26,145.34 266.79,649.55 265.75,650.28 "/>
    <polygon id="_103" class="fil49" points="-86.61,145.58 -85.57,144.85 267.48,649.07 266.44,649.8 "/>
    <polygon id="_104" class="fil50" points="-85.92,145.09 -84.88,144.37 268.17,648.58 267.13,649.31 "/>
    <polygon id="_105" class="fil50" points="-85.22,144.61 -84.18,143.88 268.87,648.1 267.83,648.82 "/>
    <polygon id="_106" class="fil51" points="-84.53,144.12 -83.49,143.39 269.56,647.61 268.52,648.34 "/>
    <polygon id="_107" class="fil52" points="-83.84,143.64 -82.79,142.91 270.25,647.13 269.21,647.85 "/>
    <polygon id="_108" class="fil52" points="-83.14,143.15 -82.1,142.42 270.96,646.64 269.91,647.37 "/>
    <polygon id="_109" class="fil52" points="-82.45,142.67 -81.41,141.94 271.65,646.15 270.6,646.88 "/>
    <polygon id="_110" class="fil53" points="-81.75,142.18 -80.71,141.45 272.34,645.67 271.3,646.4 "/>
    <polygon id="_111" class="fil54" points="-81.06,141.69 -80.02,140.97 273.04,645.18 272,645.91 "/>
    <polygon id="_112" class="fil54" points="-80.37,141.21 -79.33,140.48 273.73,644.7 272.69,645.43 "/>
    <polygon id="_113" class="fil55" points="-79.67,140.72 -78.63,139.99 274.43,644.21 273.39,644.94 "/>
    <polygon id="_114" class="fil55" points="-78.98,140.24 -77.94,139.51 275.12,643.73 274.08,644.45 "/>
    <polygon id="_115" class="fil54" points="-78.29,139.75 -77.25,139.02 275.81,643.24 274.77,643.97 "/>
    <polygon id="_116" class="fil53" points="-77.59,139.27 -76.55,138.54 276.51,642.75 275.47,643.48 "/>
    <polygon id="_117" class="fil53" points="-76.9,138.78 -75.86,138.05 277.2,642.27 276.16,643 "/>
    <polygon id="_118" class="fil52" points="-76.21,138.3 -75.17,137.57 277.89,641.78 276.85,642.51 "/>
    <polygon id="_119" class="fil52" points="-75.51,137.81 -74.47,137.08 278.59,641.3 277.55,642.03 "/>
    <polygon id="_120" class="fil51" points="-74.82,137.32 -73.78,136.6 279.28,640.81 278.24,641.54 "/>
    <polygon id="_121" class="fil50" points="-74.13,136.84 -73.09,136.11 279.97,640.33 278.93,641.05 "/>
    <polygon id="_122" class="fil50" points="-73.43,136.35 -72.39,135.62 280.67,639.84 279.63,640.57 "/>
    <polygon id="_123" class="fil49" points="-72.74,135.87 -71.7,135.14 281.36,639.36 280.32,640.08 "/>
    <polygon id="_124" class="fil48" points="-72.04,135.38 -71,134.65 282.05,638.87 281.01,639.6 "/>
    <polygon id="_125" class="fil47" points="-71.35,134.9 -70.31,134.17 282.75,638.38 281.71,639.11 "/>
    <polygon id="_126" class="fil47" points="-70.66,134.41 -69.62,133.68 283.44,637.9 282.4,638.63 "/>
    <polygon id="_127" class="fil47" points="-69.96,133.92 -68.92,133.2 284.14,637.41 283.1,638.14 "/>
    <polygon id="_128" class="fil46" points="-69.27,133.44 -68.23,132.71 284.83,636.93 283.79,637.66 "/>
    <polygon id="_129" class="fil46" points="-68.58,132.95 -67.54,132.22 285.52,636.44 284.48,637.17 "/>
    <polygon id="_130" class="fil45" points="-67.88,132.47 -66.84,131.74 286.22,635.96 285.18,636.68 "/>
    <polygon id="_131" class="fil45" points="-67.19,131.98 -66.15,131.25 286.91,635.47 285.87,636.2 "/>
    <polygon id="_132" class="fil45" points="-66.5,131.5 -65.46,130.77 287.6,634.98 286.56,635.71 "/>
    <polygon id="_133" class="fil44" points="-65.8,131.01 -64.76,130.28 288.3,634.5 287.26,635.23 "/>
    <polygon id="_134" class="fil44" points="-65.11,130.53 -64.07,129.8 288.99,634.01 287.95,634.74 "/>
    <polygon id="_135" class="fil43" points="-64.42,130.04 -63.38,129.31 289.68,633.53 288.64,634.26 "/>
    <polygon id="_136" class="fil43" points="-63.72,129.55 -62.68,128.83 290.38,633.04 289.34,633.77 "/>
    <polygon id="_137" class="fil43" points="-63.03,129.07 -61.99,128.34 291.07,632.56 290.03,633.28 "/>
    <polygon id="_138" class="fil42" points="-62.34,128.58 -61.29,127.85 291.76,632.07 290.72,632.8 "/>
    <polygon id="_139" class="fil41" points="-61.64,128.1 -60.6,127.37 292.46,631.58 291.42,632.31 "/>
    <polygon id="_140" class="fil40" points="-60.95,127.61 -59.91,126.88 293.15,631.1 292.11,631.83 "/>
    <polygon id="_141" class="fil40" points="-60.25,127.13 -59.21,126.4 293.85,630.61 292.8,631.34 "/>
    <polygon id="_142" class="fil40" points="-59.56,126.64 -58.52,125.91 294.54,630.13 293.5,630.86 "/>
    <polygon id="_143" class="fil39" points="-58.87,126.15 -57.83,125.43 295.23,629.64 294.19,630.37 "/>
    <polygon id="_144" class="fil56" points="-58.17,125.67 -57.13,124.94 295.93,629.16 294.89,629.89 "/>
    <polygon id="_145" class="fil36" points="-57.48,125.18 -56.44,124.45 296.62,628.67 295.58,629.4 "/>
    <polygon id="_146" class="fil36" points="-56.79,124.7 -55.75,123.97 297.31,628.19 296.27,628.91 "/>
    <polygon id="_147" class="fil36" points="-56.09,124.21 -55.05,123.48 298.01,627.7 296.97,628.43 "/>
    <polygon id="_148" class="fil34" points="-55.4,123.73 -54.36,123 298.7,627.21 297.66,627.94 "/>
    <polygon id="_149" class="fil34" points="-54.71,123.24 -53.67,122.51 299.39,626.73 298.35,627.46 "/>
    <polygon id="_150" class="fil33" points="-54.01,122.76 -52.97,122.03 300.09,626.24 299.05,626.97 "/>
    <polygon id="_151" class="fil33" points="-53.32,122.27 -52.28,121.54 300.78,625.76 299.74,626.49 "/>
    <polygon id="_152" class="fil33" points="-52.63,121.78 -51.58,121.06 301.47,625.27 300.43,626 "/>
    <polygon id="_153" class="fil31" points="-51.93,121.3 -50.89,120.57 302.17,624.79 301.13,625.51 "/>
    <polygon id="_154" class="fil31" points="-51.24,120.81 -50.2,120.08 302.86,624.3 301.82,625.03 "/>
    <polygon id="_155" class="fil30" points="-50.54,120.33 -49.5,119.6 303.55,623.81 302.51,624.54 "/>
    <polygon id="_156" class="fil30" points="-49.85,119.84 -48.81,119.11 304.25,623.33 303.21,624.06 "/>
    <polygon id="_157" class="fil57" points="-49.16,119.36 -48.12,118.63 304.94,622.84 303.9,623.57 "/>
    <polygon id="_158" class="fil28" points="-48.46,118.87 -47.42,118.14 305.64,622.36 304.6,623.09 "/>
    <polygon id="_159" class="fil28" points="-47.77,118.38 -46.73,117.66 306.33,621.87 305.29,622.6 "/>
    <polygon id="_160" class="fil27" points="-47.08,117.9 -46.04,117.17 307.02,621.39 305.98,622.12 "/>
    <polygon id="_161" class="fil27" points="-46.38,117.41 -45.34,116.68 307.72,620.9 306.68,621.63 "/>
    <polygon id="_162" class="fil58" points="-45.69,116.93 -44.65,116.2 308.41,620.42 307.37,621.14 "/>
    <polygon id="_163" class="fil59" points="-45,116.44 -43.96,115.71 309.1,619.93 308.06,620.66 "/>
    <polygon id="_164" class="fil59" points="-44.3,115.96 -43.26,115.23 309.8,619.44 308.76,620.17 "/>
    <polygon id="_165" class="fil24" points="-43.61,115.47 -42.57,114.74 310.49,618.96 309.45,619.69 "/>
    <polygon id="_166" class="fil60" points="-42.92,114.98 -41.88,114.26 311.18,618.47 310.14,619.2 "/>
    <polygon id="_167" class="fil60" points="-42.22,114.5 -41.18,113.77 311.88,617.99 310.84,618.72 "/>
    <polygon id="_168" class="fil23" points="-41.53,114.01 -40.49,113.29 312.57,617.5 311.53,618.23 "/>
    <polygon id="_169" class="fil23" points="-40.83,113.53 -39.79,112.8 313.26,617.02 312.22,617.74 "/>
    <polygon id="_170" class="fil22" points="-40.14,113.04 -39.1,112.31 313.96,616.53 312.92,617.26 "/>
    <polygon id="_171" class="fil61" points="-39.45,112.56 -38.41,111.83 314.65,616.04 313.61,616.77 "/>
    <polygon id="_172" class="fil61" points="-38.75,112.07 -37.71,111.34 315.35,615.56 314.3,616.29 "/>
    <polygon id="_173" class="fil21" points="-38.06,111.59 -37.02,110.86 316.04,615.07 315,615.8 "/>
    <polygon id="_174" class="fil21" points="-37.37,111.1 -36.33,110.37 316.73,614.59 315.69,615.32 "/>
    <polygon id="_175" class="fil62" points="-36.67,110.61 -35.63,109.89 317.43,614.1 316.39,614.83 "/>
    <polygon id="_176" class="fil62" points="-35.98,110.13 -34.94,109.4 318.12,613.62 317.08,614.35 "/>
    <polygon id="_177" class="fil62" points="-35.29,109.64 -34.25,108.91 318.81,613.13 317.77,613.86 "/>
    <polygon id="_178" class="fil19" points="-34.59,109.16 -33.55,108.43 319.51,612.65 318.47,613.37 "/>
    <polygon id="_179" class="fil19" points="-33.9,108.67 -32.86,107.94 320.2,612.16 319.16,612.89 "/>
    <polygon id="_180" class="fil63" points="-33.21,108.19 -32.17,107.46 320.89,611.67 319.85,612.4 "/>
    <polygon id="_181" class="fil63" points="-32.51,107.7 -31.47,106.97 321.59,611.19 320.55,611.92 "/>
    <polygon id="_182" class="fil63" points="-31.82,107.21 -30.78,106.49 322.28,610.7 321.24,611.43 "/>
    <polygon id="_183" class="fil64" points="-31.13,106.73 -30.08,106 322.97,610.22 321.93,610.95 "/>
    <polygon id="_184" class="fil65" points="-30.43,106.24 -29.39,105.52 323.67,609.73 322.63,610.46 "/>
    <polygon id="_185" class="fil66" points="-29.74,105.76 -28.7,105.03 324.36,609.25 323.32,609.97 "/>
    <polygon id="_186" class="fil15" points="-29.04,105.27 -28,104.54 325.06,608.76 324.01,609.49 "/>
    <polygon id="_187" class="fil15" points="-28.35,104.79 -27.31,104.06 325.75,608.27 324.71,609 "/>
    <polygon id="_188" class="fil14" points="-27.66,104.3 -26.62,103.57 326.44,607.79 325.4,608.52 "/>
    <polygon id="_189" class="fil67" points="-26.96,103.82 -25.92,103.09 327.14,607.3 326.1,608.03 "/>
    <polygon id="_190" class="fil12" points="-26.27,103.33 -25.23,102.6 327.83,606.82 326.79,607.55 "/>
    <polygon id="_191" class="fil12" points="-25.58,102.84 -24.54,102.12 328.52,606.33 327.48,607.06 "/>
    <polygon id="_192" class="fil12" points="-24.88,102.36 -23.84,101.63 329.22,605.85 328.18,606.57 "/>
    <polygon id="_193" class="fil68" points="-24.19,101.87 -23.15,101.14 329.91,605.36 328.87,606.09 "/>
    <polygon id="_194" class="fil68" points="-23.5,101.39 -22.46,100.66 330.6,604.88 329.56,605.6 "/>
    <polygon id="_195" class="fil9" points="-22.8,100.9 -21.76,100.17 331.3,604.39 330.26,605.12 "/>
    <polygon id="_196" class="fil9" points="-22.11,100.42 -21.07,99.69 331.99,603.9 330.95,604.63 "/>
    <polygon id="_197" class="fil9" points="-21.42,99.93 -20.38,99.2 332.68,603.42 331.64,604.15 "/>
    <polygon id="_198" class="fil69" points="-20.72,99.44 -19.68,98.72 333.38,602.93 332.34,603.66 "/>
    <polygon id="_199" class="fil69" points="-20.03,98.96 -18.99,98.23 334.07,602.45 333.03,603.18 "/>
    <polygon id="_200" class="fil6" points="-19.33,98.47 -18.29,97.75 334.76,601.96 333.72,602.69 "/>
    <polygon id="_201" class="fil6" points="-18.64,97.99 -17.6,97.26 335.46,601.48 334.42,602.2 "/>
    <polygon id="_202" class="fil6" points="-17.95,97.5 -16.91,96.77 336.15,600.99 335.11,601.72 "/>
    <polygon id="_203" class="fil70" points="-17.25,97.02 -16.21,96.29 336.85,600.5 335.81,601.23 "/>
    <polygon id="_204" class="fil70" points="-16.56,96.53 -15.52,95.8 337.54,600.02 336.5,600.75 "/>
    <polygon id="_205" class="fil71" points="-15.87,96.05 -14.83,95.32 338.23,599.53 337.19,600.26 "/>
    <polygon id="_206" class="fil3" points="-15.17,95.56 -14.13,94.83 338.93,599.05 337.89,599.78 "/>
    <polygon id="_207" class="fil72" points="-14.48,95.07 -13.44,94.35 339.62,598.56 338.58,599.29 "/>
    <polygon id="_208" class="fil73" points="-13.79,94.59 -12.75,93.86 340.31,598.08 339.27,598.8 "/>
    <polygon id="_209" class="fil73" points="-13.09,94.1 -12.05,93.37 341.01,597.59 339.97,598.32 "/>
    <polygon id="_210" class="fil1" points="-12.4,93.62 -11.36,92.89 341.7,597.11 340.66,597.83 "/>
    <polygon id="_211" class="fil1" points="-11.71,93.13 -10.67,92.4 342.39,596.62 341.35,597.35 "/>
    <polygon id="_212" class="fil74" points="-11.01,92.65 -9.97,91.92 343.09,596.13 342.05,596.86 "/>
    <polygon id="_213" class="fil75" points="-10.32,92.16 -9.28,91.43 343.78,595.65 342.74,596.38 "/>
    <polygon id="_214" class="fil75" points="-9.62,91.67 -8.58,90.95 344.47,595.16 343.43,595.89 "/>
    <polygon id="_215" class="fil76" points="-8.93,91.19 -7.89,90.46 345.17,594.68 344.13,595.41 "/>
    <polygon id="_216" class="fil77" points="-8.24,90.7 -7.2,89.97 345.86,594.19 344.82,594.92 "/>
    <polygon id="_217" class="fil77" points="-7.54,90.22 -6.5,89.49 346.56,593.71 345.51,594.43 "/>
    <polygon id="_218" class="fil78" points="-6.85,89.73 -5.81,89 347.25,593.22 346.21,593.95 "/>
    <polygon id="_219" class="fil78" points="-6.16,89.25 -5.12,88.52 347.94,592.73 346.9,593.46 "/>
    <polygon id="_220" class="fil79" points="-5.46,88.76 -4.42,88.03 348.64,592.25 347.6,592.98 "/>
    <polygon id="_221" class="fil80" points="-4.77,88.28 -3.73,87.55 349.33,591.76 348.29,592.49 "/>
    <polygon id="_222" class="fil80" points="-4.08,87.79 -3.04,87.06 350.02,591.28 348.98,592.01 "/>
    <polygon id="_223" class="fil81" points="-3.38,87.3 -2.34,86.58 350.72,590.79 349.68,591.52 "/>
    <polygon id="_224" class="fil81" points="-2.69,86.82 -1.65,86.09 351.41,590.31 350.37,591.03 "/>
    <polygon id="_225" class="fil82" points="-2,86.33 -0.96,85.6 352.1,589.82 351.06,590.55 "/>
    <polygon id="_226" class="fil83" points="-1.3,85.85 -0.26,85.12 352.8,589.34 351.76,590.06 "/>
    <polygon id="_227" class="fil83" points="-0.61,85.36 0.43,84.63 353.49,588.85 352.45,589.58 "/>
    <polygon id="_228" class="fil84" points="0.08,84.88 1.13,84.15 354.18,588.36 353.14,589.09 "/>
    <polygon id="_229" class="fil84" points="0.78,84.39 1.82,83.66 354.88,587.88 353.84,588.61 "/>
    <polygon id="_230" class="fil85" points="1.47,83.9 2.51,83.18 355.57,587.39 354.53,588.12 "/>
    <polygon id="_231" class="fil85" points="2.17,83.42 3.21,82.69 356.26,586.91 355.22,587.64 "/>
    <polygon id="_232" class="fil85" points="2.86,82.93 3.9,82.2 356.96,586.42 355.92,587.15 "/>
    <polygon id="_233" class="fil86" points="3.55,82.45 4.59,81.72 357.65,585.94 356.61,586.66 "/>
    <polygon id="_234" class="fil87" points="4.25,81.96 5.29,81.23 358.35,585.45 357.31,586.18 "/>
    <polygon id="_235" class="fil88" points="4.94,81.48 5.98,80.75 359.04,584.96 358,585.69 "/>
    <polygon id="_236" class="fil88" points="5.63,80.99 6.67,80.26 359.73,584.48 358.69,585.21 "/>
    <polygon id="_237" class="fil88" points="6.33,80.51 7.37,79.78 360.43,583.99 359.39,584.72 "/>
    <polygon id="_238" class="fil87" points="7.02,80.02 8.06,79.29 361.12,583.51 360.08,584.24 "/>
    <polygon id="_239" class="fil86" points="7.71,79.53 8.75,78.81 361.81,583.02 360.77,583.75 "/>
    <polygon id="_240" class="fil85" points="8.41,79.05 9.45,78.32 362.51,582.54 361.47,583.26 "/>
    <polygon id="_241" class="fil85" points="9.1,78.56 10.14,77.83 363.2,582.05 362.16,582.78 "/>
    <polygon id="_242" class="fil85" points="9.79,78.08 10.83,77.35 363.89,581.56 362.85,582.29 "/>
    <polygon id="_243" class="fil84" points="10.49,77.59 11.53,76.86 364.59,581.08 363.55,581.81 "/>
    <polygon id="_244" class="fil84" points="11.18,77.11 12.22,76.38 365.28,580.59 364.24,581.32 "/>
    <polygon id="_245" class="fil83" points="11.88,76.62 12.92,75.89 365.97,580.11 364.93,580.84 "/>
    <polygon id="_246" class="fil83" points="12.57,76.13 13.61,75.41 366.67,579.62 365.63,580.35 "/>
    <polygon id="_247" class="fil82" points="13.26,75.65 14.3,74.92 367.36,579.14 366.32,579.87 "/>
    <polygon id="_248" class="fil81" points="13.96,75.16 15,74.43 368.06,578.65 367.01,579.38 "/>
    <polygon id="_249" class="fil81" points="14.65,74.68 15.69,73.95 368.75,578.17 367.71,578.89 "/>
    <polygon id="_250" class="fil80" points="15.34,74.19 16.38,73.46 369.44,577.68 368.4,578.41 "/>
    <polygon id="_251" class="fil80" points="16.04,73.71 17.08,72.98 370.14,577.19 369.1,577.92 "/>
    <polygon id="_252" class="fil79" points="16.73,73.22 17.77,72.49 370.83,576.71 369.79,577.44 "/>
    <polygon id="_253" class="fil78" points="17.42,72.74 18.46,72.01 371.52,576.22 370.48,576.95 "/>
    <polygon id="_254" class="fil78" points="18.12,72.25 19.16,71.52 372.22,575.74 371.18,576.47 "/>
    <polygon id="_255" class="fil77" points="18.81,71.76 19.85,71.04 372.91,575.25 371.87,575.98 "/>
    <polygon id="_256" class="fil77" points="19.5,71.28 20.54,70.55 373.6,574.77 372.56,575.49 "/>
    <polygon id="_257" class="fil76" points="20.2,70.79 21.24,70.06 374.3,574.28 373.26,575.01 "/>
    <polygon id="_258" class="fil75" points="20.89,70.31 21.93,69.58 374.99,573.79 373.95,574.52 "/>
    <polygon id="_259" class="fil75" points="21.58,69.82 22.63,69.09 375.68,573.31 374.64,574.04 "/>
    <polygon id="_260" class="fil74" points="22.28,69.34 23.32,68.61 376.38,572.82 375.34,573.55 "/>
    <polygon id="_261" class="fil1" points="22.97,68.85 24.01,68.12 377.07,572.34 376.03,573.07 "/>
    <polygon id="_262" class="fil1" points="23.67,68.36 24.71,67.64 377.77,571.85 376.72,572.58 "/>
    <polygon id="_263" class="fil73" points="24.36,67.88 25.4,67.15 378.46,571.37 377.42,572.1 "/>
    <polygon id="_264" class="fil73" points="25.05,67.39 26.09,66.66 379.15,570.88 378.11,571.61 "/>
    <polygon id="_265" class="fil72" points="25.75,66.91 26.79,66.18 379.85,570.4 378.81,571.12 "/>
    <polygon id="_266" class="fil3" points="26.44,66.42 27.48,65.69 380.54,569.91 379.5,570.64 "/>
    <polygon id="_267" class="fil71" points="27.13,65.94 28.17,65.21 381.23,569.42 380.19,570.15 "/>
    <polygon id="_268" class="fil70" points="27.83,65.45 28.87,64.72 381.93,568.94 380.89,569.67 "/>
    <polygon id="_269" class="fil70" points="28.52,64.96 29.56,64.24 382.62,568.45 381.58,569.18 "/>
    <polygon id="_270" class="fil6" points="29.21,64.48 30.25,63.75 383.31,567.97 382.27,568.7 "/>
    <polygon id="_271" class="fil6" points="29.91,63.99 30.95,63.27 384.01,567.48 382.97,568.21 "/>
    <polygon id="_272" class="fil6" points="30.6,63.51 31.64,62.78 384.7,567 383.66,567.72 "/>
    <polygon id="_273" class="fil69" points="31.29,63.02 32.33,62.29 385.39,566.51 384.35,567.24 "/>
    <polygon id="_274" class="fil69" points="31.99,62.54 33.03,61.81 386.09,566.02 385.05,566.75 "/>
    <polygon id="_275" class="fil9" points="32.68,62.05 33.72,61.32 386.78,565.54 385.74,566.27 "/>
    <polygon id="_276" class="fil9" points="33.38,61.57 34.42,60.84 387.47,565.05 386.43,565.78 "/>
    <polygon id="_277" class="fil9" points="34.07,61.08 35.11,60.35 388.17,564.57 387.13,565.3 "/>
    <polygon id="_278" class="fil68" points="34.76,60.59 35.8,59.87 388.86,564.08 387.82,564.81 "/>
    <polygon id="_279" class="fil68" points="35.46,60.11 36.5,59.38 389.56,563.6 388.52,564.33 "/>
    <polygon id="_280" class="fil12" points="36.15,59.62 37.19,58.89 390.25,563.11 389.21,563.84 "/>
    <polygon id="_281" class="fil12" points="36.84,59.14 37.88,58.41 390.94,562.63 389.9,563.35 "/>
    <polygon id="_282" class="fil12" points="37.54,58.65 38.58,57.92 391.64,562.14 390.6,562.87 "/>
    <polygon id="_283" class="fil67" points="38.23,58.17 39.27,57.44 392.33,561.65 391.29,562.38 "/>
    <polygon id="_284" class="fil14" points="38.92,57.68 39.96,56.95 393.02,561.17 391.98,561.9 "/>
    <polygon id="_285" class="fil15" points="39.62,57.19 40.66,56.47 393.72,560.68 392.68,561.41 "/>
    <polygon id="_286" class="fil15" points="40.31,56.71 41.35,55.98 394.41,560.2 393.37,560.93 "/>
    <polygon id="_287" class="fil66" points="41,56.22 42.04,55.5 395.1,559.71 394.06,560.44 "/>
    <polygon id="_288" class="fil65" points="41.7,55.74 42.74,55.01 395.8,559.23 394.76,559.95 "/>
    <polygon id="_289" class="fil64" points="42.39,55.25 43.43,54.52 396.49,558.74 395.45,559.47 "/>
    <polygon id="_290" class="fil63" points="43.09,54.77 44.13,54.04 397.18,558.25 396.14,558.98 "/>
    <polygon id="_291" class="fil63" points="43.78,54.28 44.82,53.55 397.88,557.77 396.84,558.5 "/>
    <polygon id="_292" class="fil63" points="44.47,53.8 45.51,53.07 398.57,557.28 397.53,558.01 "/>
    <polygon id="_293" class="fil19" points="45.17,53.31 46.21,52.58 399.27,556.8 398.22,557.53 "/>
    <polygon id="_294" class="fil19" points="45.86,52.82 46.9,52.1 399.96,556.31 398.92,557.04 "/>
    <polygon id="_295" class="fil62" points="46.55,52.34 47.59,51.61 400.65,555.83 399.61,556.55 "/>
    <polygon id="_296" class="fil62" points="47.25,51.85 48.29,51.12 401.35,555.34 400.31,556.07 "/>
    <polygon id="_297" class="fil62" points="47.94,51.37 48.98,50.64 402.04,554.86 401,555.58 "/>
    <polygon id="_298" class="fil21" points="48.63,50.88 49.67,50.15 402.73,554.37 401.69,555.1 "/>
    <polygon id="_299" class="fil21" points="49.33,50.4 50.37,49.67 403.43,553.88 402.39,554.61 "/>
    <polygon id="_300" class="fil61" points="50.02,49.91 51.06,49.18 404.12,553.4 403.08,554.13 "/>
    <polygon id="_301" class="fil61" points="50.71,49.42 51.75,48.7 404.81,552.91 403.77,553.64 "/>
    <polygon id="_302" class="fil22" points="51.41,48.94 52.45,48.21 405.51,552.43 404.47,553.16 "/>
    <polygon id="_303" class="fil23" points="52.1,48.45 53.14,47.73 406.2,551.94 405.16,552.67 "/>
    <polygon id="_304" class="fil23" points="52.79,47.97 53.84,47.24 406.89,551.46 405.85,552.18 "/>
    <polygon id="_305" class="fil60" points="53.49,47.48 54.53,46.75 407.59,550.97 406.55,551.7 "/>
    <polygon id="_306" class="fil60" points="54.18,47 55.22,46.27 408.28,550.48 407.24,551.21 "/>
    <polygon id="_307" class="fil24" points="54.88,46.51 55.92,45.78 408.97,550 407.93,550.73 "/>
    <polygon id="_308" class="fil59" points="55.57,46.03 56.61,45.3 409.67,549.51 408.63,550.24 "/>
    <polygon id="_309" class="fil59" points="56.26,45.54 57.3,44.81 410.36,549.03 409.32,549.76 "/>
    <polygon id="_310" class="fil58" points="56.96,45.05 58,44.33 411.06,548.54 410.02,549.27 "/>
    <polygon id="_311" class="fil27" points="57.65,44.57 58.69,43.84 411.75,548.06 410.71,548.78 "/>
    <polygon id="_312" class="fil27" points="58.34,44.08 59.38,43.35 412.44,547.57 411.4,548.3 "/>
    <polygon id="_313" class="fil28" points="59.04,43.6 60.08,42.87 413.14,547.09 412.1,547.81 "/>
    <polygon id="_314" class="fil28" points="59.73,43.11 60.77,42.38 413.83,546.6 412.79,547.33 "/>
    <polygon id="_315" class="fil57" points="60.42,42.63 61.46,41.9 414.52,546.11 413.48,546.84 "/>
    <polygon id="_316" class="fil30" points="61.12,42.14 62.16,41.41 415.22,545.63 414.18,546.36 "/>
    <polygon id="_317" class="fil30" points="61.81,41.65 62.85,40.93 415.91,545.14 414.87,545.87 "/>
    <polygon id="_318" class="fil31" points="62.5,41.17 63.54,40.44 416.6,544.66 415.56,545.39 "/>
    <polygon id="_319" class="fil31" points="63.2,40.68 64.24,39.95 417.3,544.17 416.26,544.9 "/>
    <polygon id="_320" class="fil33" points="63.89,40.2 64.93,39.47 417.99,543.69 416.95,544.41 "/>
    <polygon id="_321" class="fil33" points="64.59,39.71 65.63,38.98 418.68,543.2 417.64,543.93 "/>
    <polygon id="_322" class="fil33" points="65.28,39.23 66.32,38.5 419.38,542.71 418.34,543.44 "/>
    <polygon id="_323" class="fil34" points="65.97,38.74 67.01,38.01 420.07,542.23 419.03,542.96 "/>
    <polygon id="_324" class="fil34" points="66.67,38.26 67.71,37.53 420.77,541.74 419.72,542.47 "/>
    <polygon id="_325" class="fil36" points="67.36,37.77 68.4,37.04 421.46,541.26 420.42,541.99 "/>
    <polygon id="_326" class="fil36" points="68.05,37.28 69.09,36.56 422.15,540.77 421.11,541.5 "/>
    <polygon id="_327" class="fil36" points="68.75,36.8 69.79,36.07 422.85,540.29 421.81,541.01 "/>
    <polygon id="_328" class="fil56" points="69.44,36.31 70.48,35.58 423.54,539.8 422.5,540.53 "/>
    <polygon id="_329" class="fil39" points="70.13,35.83 71.17,35.1 424.23,539.32 423.19,540.04 "/>
    <polygon id="_330" class="fil40" points="70.83,35.34 71.87,34.61 424.93,538.83 423.89,539.56 "/>
    <polygon id="_331" class="fil40" points="71.52,34.86 72.56,34.13 425.62,538.34 424.58,539.07 "/>
    <polygon id="_332" class="fil40" points="72.21,34.37 73.25,33.64 426.31,537.86 425.27,538.59 "/>
    <polygon id="_333" class="fil41" points="72.91,33.88 73.95,33.16 427.01,537.37 425.97,538.1 "/>
    <polygon id="_334" class="fil42" points="73.6,33.4 74.64,32.67 427.7,536.89 426.66,537.62 "/>
    <polygon id="_335" class="fil43" points="74.29,32.91 75.34,32.18 428.39,536.4 427.35,537.13 "/>
    <polygon id="_336" class="fil43" points="74.99,32.43 76.03,31.7 429.09,535.92 428.05,536.64 "/>
    <polygon id="_337" class="fil43" points="75.68,31.94 76.72,31.21 429.78,535.43 428.74,536.16 "/>
    <polygon id="_338" class="fil44" points="76.38,31.46 77.42,30.73 430.48,534.94 429.43,535.67 "/>
    <polygon id="_339" class="fil44" points="77.07,30.97 78.11,30.24 431.17,534.46 430.13,535.19 "/>
    <polygon id="_340" class="fil45" points="77.76,30.49 78.8,29.76 431.86,533.97 430.82,534.7 "/>
    <polygon id="_341" class="fil45" points="78.46,30 79.5,29.27 432.56,533.49 431.52,534.22 "/>
    <polygon id="_342" class="fil45" points="79.15,29.51 80.19,28.79 433.25,533 432.21,533.73 "/>
    <polygon id="_343" class="fil46" points="79.84,29.03 80.88,28.3 433.94,532.52 432.9,533.24 "/>
    <polygon id="_344" class="fil46" points="80.54,28.54 81.58,27.81 434.64,532.03 433.6,532.76 "/>
    <polygon id="_345" class="fil47" points="81.23,28.06 82.27,27.33 435.33,531.54 434.29,532.27 "/>
    <polygon id="_346" class="fil47" points="81.92,27.57 82.96,26.84 436.02,531.06 434.98,531.79 "/>
    <polygon id="_347" class="fil47" points="82.62,27.09 83.66,26.36 436.72,530.57 435.68,531.3 "/>
    <polygon id="_348" class="fil48" points="83.31,26.6 84.35,25.87 437.41,530.09 436.37,530.82 "/>
    <polygon id="_349" class="fil49" points="84,26.11 85.05,25.39 438.1,529.6 437.06,530.33 "/>
    <polygon id="_350" class="fil50" points="84.7,25.63 85.74,24.9 438.8,529.12 437.76,529.85 "/>
    <polygon id="_351" class="fil50" points="85.39,25.14 86.43,24.41 439.49,528.63 438.45,529.36 "/>
    <polygon id="_352" class="fil51" points="86.09,24.66 87.13,23.93 440.18,528.15 439.14,528.87 "/>
    <polygon id="_353" class="fil52" points="86.78,24.17 87.82,23.44 440.88,527.66 439.84,528.39 "/>
    <polygon id="_354" class="fil52" points="87.47,23.69 88.51,22.96 441.57,527.17 440.53,527.9 "/>
    <polygon id="_355" class="fil53" points="88.17,23.2 89.21,22.47 442.27,526.69 441.23,527.42 "/>
    <polygon id="_356" class="fil53" points="88.86,22.72 89.9,21.99 442.96,526.2 441.92,526.93 "/>
    <polygon id="_357" class="fil54" points="89.55,22.23 90.59,21.5 443.65,525.72 442.61,526.45 "/>
    <polygon id="_358" class="fil55" points="90.25,21.74 91.29,21.02 444.35,525.23 443.31,525.96 "/>
    <polygon id="_359" class="fil55" points="90.94,21.26 91.98,20.53 445.04,524.75 444,525.47 "/>
    <polygon id="_360" class="fil54" points="91.63,20.77 92.67,20.04 445.73,524.26 444.69,524.99 "/>
    <polygon id="_361" class="fil54" points="92.33,20.29 93.37,19.56 446.43,523.77 445.39,524.5 "/>
    <polygon id="_362" class="fil53" points="93.02,19.8 94.06,19.07 447.12,523.29 446.08,524.02 "/>
    <polygon id="_363" class="fil52" points="93.71,19.32 94.75,18.59 447.81,522.8 446.77,523.53 "/>
    <polygon id="_364" class="fil52" points="94.41,18.83 95.45,18.1 448.51,522.32 447.47,523.05 "/>
    <polygon id="_365" class="fil52" points="95.1,18.34 96.14,17.62 449.2,521.83 448.16,522.56 "/>
    <polygon id="_366" class="fil51" points="95.8,17.86 96.84,17.13 449.89,521.35 448.85,522.08 "/>
    <polygon id="_367" class="fil50" points="96.49,17.37 97.53,16.64 450.59,520.86 449.55,521.59 "/>
    <polygon id="_368" class="fil50" points="97.18,16.89 98.22,16.16 451.28,520.38 450.24,521.1 "/>
    <polygon id="_369" class="fil49" points="97.88,16.4 98.92,15.67 451.98,519.89 450.93,520.62 "/>
    <polygon id="_370" class="fil48" points="98.57,15.92 99.61,15.19 452.67,519.4 451.63,520.13 "/>
    <polygon id="_371" class="fil48" points="99.26,15.43 100.3,14.7 453.36,518.92 452.32,519.65 "/>
    <polygon id="_372" class="fil47" points="99.96,14.94 101,14.22 454.06,518.43 453.02,519.16 "/>
    <polygon id="_373" class="fil47" points="100.65,14.46 101.69,13.73 454.75,517.95 453.71,518.68 "/>
    <polygon id="_374" class="fil46" points="101.34,13.97 102.38,13.25 455.44,517.46 454.4,518.19 "/>
    <polygon id="_375" class="fil46" points="102.04,13.49 103.08,12.76 456.14,516.98 455.1,517.7 "/>
    <polygon id="_376" class="fil46" points="102.73,13 103.77,12.27 456.83,516.49 455.79,517.22 "/>
    <polygon id="_377" class="fil45" points="103.42,12.52 104.46,11.79 457.52,516 456.48,516.73 "/>
    <polygon id="_378" class="fil45" points="104.12,12.03 105.16,11.3 458.22,515.52 457.18,516.25 "/>
    <polygon id="_379" class="fil45" points="104.81,11.55 105.85,10.82 458.91,515.03 457.87,515.76 "/>
    <polygon id="_380" class="fil44" points="105.5,11.06 106.55,10.33 459.6,514.55 458.56,515.28 "/>
    <polygon id="_381" class="fil44" points="106.2,10.57 107.24,9.85 460.3,514.06 459.26,514.79 "/>
    <polygon id="_382" class="fil44" points="106.89,10.09 107.93,9.36 460.99,513.58 459.95,514.31 "/>
    <polygon id="_383" class="fil43" points="107.59,9.6 108.63,8.87 461.68,513.09 460.64,513.82 "/>
    <polygon id="_384" class="fil43" points="108.28,9.12 109.32,8.39 462.38,512.61 461.34,513.33 "/>
    <polygon id="_385" class="fil43" points="108.97,8.63 110.01,7.9 463.07,512.12 462.03,512.85 "/>
    <polygon id="_386" class="fil42" points="109.67,8.15 110.71,7.42 463.77,511.63 462.73,512.36 "/>
    <polygon id="_387" class="fil42" points="110.36,7.66 111.4,6.93 464.46,511.15 463.42,511.88 "/>
    <polygon id="_388" class="fil41" points="111.05,7.17 112.09,6.45 465.15,510.66 464.11,511.39 "/>
    <polygon id="_389" class="fil40" points="111.75,6.69 112.79,5.96 465.85,510.18 464.81,510.91 "/>
    <polygon id="_390" class="fil40" points="112.44,6.2 113.48,5.48 466.54,509.69 465.5,510.42 "/>
    <polygon id="_391" class="fil39" points="113.13,5.72 114.17,4.99 467.23,509.21 466.19,509.93 "/>
    <polygon id="_392" class="fil38" points="113.83,5.23 114.87,4.5 467.93,508.72 466.89,509.45 "/>
    <polygon id="_393" class="fil37" points="114.52,4.75 115.56,4.02 468.62,508.23 467.58,508.96 "/>
    <polygon id="_394" class="fil36" points="115.21,4.26 116.25,3.53 469.31,507.75 468.27,508.48 "/>
    <polygon id="_395" class="fil36" points="115.91,3.78 116.95,3.05 470.01,507.26 468.97,507.99 "/>
    <polygon id="_396" class="fil36" points="116.6,3.29 117.64,2.56 470.7,506.78 469.66,507.51 "/>
    <polygon id="_397" class="fil35" points="117.3,2.8 118.34,2.08 471.39,506.29 470.35,507.02 "/>
    <polygon id="_398" class="fil35" points="117.99,2.32 119.03,1.59 472.09,505.81 471.05,506.53 "/>
    <polygon id="_399" class="fil34" points="118.68,1.83 119.72,1.1 472.78,505.32 471.74,506.05 "/>
    <polygon id="_400" class="fil33" points="119.38,1.35 120.42,0.62 473.48,504.84 472.44,505.56 "/>
    <polygon id="_401" class="fil33" points="120.07,0.86 121.11,0.13 474.17,504.35 473.13,505.08 "/>
    <polygon id="_402" class="fil33" points="120.76,0.38 121.8,-0.35 474.86,503.86 473.82,504.59 "/>
    <polygon id="_403" class="fil32" points="121.46,-0.11 122.5,-0.84 475.56,503.38 474.52,504.11 "/>
    <polygon id="_404" class="fil31" points="122.15,-0.6 123.19,-1.32 476.25,502.89 475.21,503.62 "/>
    <polygon id="_405" class="fil30" points="122.84,-1.08 123.88,-1.81 476.94,502.41 475.9,503.14 "/>
    <polygon id="_406" class="fil30" points="123.54,-1.57 124.58,-2.29 477.64,501.92 476.6,502.65 "/>
    <polygon id="_407" class="fil30" points="124.23,-2.05 125.27,-2.78 478.33,501.44 477.29,502.16 "/>
    <polygon id="_408" class="fil29" points="124.92,-2.54 125.96,-3.27 479.02,500.95 477.98,501.68 "/>
    <polygon id="_409" class="fil28" points="125.62,-3.02 126.66,-3.75 479.72,500.46 478.68,501.19 "/>
    <polygon id="_410" class="fil28" points="126.31,-3.51 127.35,-4.24 480.41,499.98 479.37,500.71 "/>
    <polygon id="_411" class="fil27" points="127,-3.99 128.05,-4.72 481.1,499.49 480.06,500.22 "/>
    <polygon id="_412" class="fil27" points="127.7,-4.48 128.74,-5.21 481.8,499.01 480.76,499.74 "/>
    <polygon id="_413" class="fil27" points="128.39,-4.97 129.43,-5.69 482.49,498.52 481.45,499.25 "/>
    <polygon id="_414" class="fil26" points="129.09,-5.45 130.13,-6.18 483.19,498.04 482.14,498.76 "/>
    <polygon id="_415" class="fil25" points="129.78,-5.94 130.82,-6.67 483.88,497.55 482.84,498.28 "/>
    <polygon id="_416" class="fil25" points="130.47,-6.42 131.51,-7.15 484.57,497.07 483.53,497.79 "/>
    <polygon id="_417" class="fil24" points="131.17,-6.91 132.21,-7.64 485.27,496.58 484.23,497.31 "/>
    <polygon id="_418" class="fil24" points="131.86,-7.39 132.9,-8.12 485.96,496.09 484.92,496.82 "/>
    <polygon id="_419" class="fil24" points="132.55,-7.88 133.59,-8.61 486.65,495.61 485.61,496.34 "/>
    <polygon id="_420" class="fil23" points="133.25,-8.37 134.29,-9.09 487.35,495.12 486.31,495.85 "/>
    <polygon id="_421" class="fil23" points="133.94,-8.85 134.98,-9.58 488.04,494.64 487,495.37 "/>
    <polygon id="_422" class="fil22" points="134.63,-9.34 135.67,-10.07 488.73,494.15 487.69,494.88 "/>
    <polygon id="_423" class="fil22" points="135.33,-9.82 136.37,-10.55 489.43,493.67 488.39,494.39 "/>
    <polygon id="_424" class="fil22" points="136.02,-10.31 137.06,-11.04 490.12,493.18 489.08,493.91 "/>
    <polygon id="_425" class="fil21" points="136.71,-10.79 137.76,-11.52 490.81,492.69 489.77,493.42 "/>
    <polygon id="_426" class="fil21" points="137.41,-11.28 138.45,-12.01 491.51,492.21 490.47,492.94 "/>
    <polygon id="_427" class="fil21" points="138.1,-11.76 139.14,-12.49 492.2,491.72 491.16,492.45 "/>
    <polygon id="_428" class="fil20" points="138.8,-12.25 139.84,-12.98 492.89,491.24 491.85,491.97 "/>
    <polygon id="_429" class="fil20" points="139.49,-12.74 140.53,-13.46 493.59,490.75 492.55,491.48 "/>
    <polygon id="_430" class="fil20" points="140.18,-13.22 141.22,-13.95 494.28,490.27 493.24,490.99 "/>
    <polygon id="_431" class="fil19" points="140.88,-13.71 141.92,-14.44 494.98,489.78 493.94,490.51 "/>
    <polygon id="_432" class="fil19" points="141.57,-14.19 142.61,-14.92 495.67,489.3 494.63,490.02 "/>
    <polygon id="_433" class="fil19" points="142.26,-14.68 143.3,-15.41 496.36,488.81 495.32,489.54 "/>
    <polygon id="_434" class="fil18" points="142.96,-15.16 144,-15.89 497.06,488.32 496.02,489.05 "/>
    <polygon id="_435" class="fil18" points="143.65,-15.65 144.69,-16.38 497.75,487.84 496.71,488.57 "/>
    <polygon id="_436" class="fil17" points="144.34,-16.14 145.38,-16.86 498.44,487.35 497.4,488.08 "/>
    <polygon id="_437" class="fil17" points="145.04,-16.62 146.08,-17.35 499.14,486.87 498.1,487.6 "/>
    <polygon id="_438" class="fil17" points="145.73,-17.11 146.77,-17.84 499.83,486.38 498.79,487.11 "/>
    <polygon id="_439" class="fil16" points="146.42,-17.59 147.46,-18.32 500.52,485.9 499.48,486.62 "/>
    <polygon id="_440" class="fil16" points="147.12,-18.08 148.16,-18.81 501.22,485.41 500.18,486.14 "/>
    <polygon id="_441" class="fil15" points="147.81,-18.56 148.85,-19.29 501.91,484.92 500.87,485.65 "/>
    <polygon id="_442" class="fil14" points="148.51,-19.05 149.55,-19.78 502.6,484.44 501.56,485.17 "/>
    <polygon id="_443" class="fil14" points="149.2,-19.53 150.24,-20.26 503.3,483.95 502.26,484.68 "/>
    <polygon id="_444" class="fil14" points="149.89,-20.02 150.93,-20.75 503.99,483.47 502.95,484.2 "/>
    <polygon id="_445" class="fil13" points="150.59,-20.51 151.63,-21.23 504.69,482.98 503.64,483.71 "/>
    <polygon id="_446" class="fil12" points="151.28,-20.99 152.32,-21.72 505.38,482.5 504.34,483.22 "/>
    <polygon id="_447" class="fil12" points="151.97,-21.48 153.01,-22.21 506.07,482.01 505.03,482.74 "/>
    <polygon id="_448" class="fil11" points="152.67,-21.96 153.71,-22.69 506.77,481.52 505.73,482.25 "/>
    <polygon id="_449" class="fil11" points="153.36,-22.45 154.4,-23.18 507.46,481.04 506.42,481.77 "/>
    <polygon id="_450" class="fil11" points="154.05,-22.93 155.09,-23.66 508.15,480.55 507.11,481.28 "/>
    <polygon id="_451" class="fil10" points="154.75,-23.42 155.79,-24.15 508.85,480.07 507.81,480.8 "/>
    <polygon id="_452" class="fil9" points="155.44,-23.91 156.48,-24.63 509.54,479.58 508.5,480.31 "/>
    <polygon id="_453" class="fil8" points="156.13,-24.39 157.17,-25.12 510.23,479.1 509.19,479.83 "/>
    <polygon id="_454" class="fil8" points="156.83,-24.88 157.87,-25.61 510.93,478.61 509.89,479.34 "/>
    <polygon id="_455" class="fil8" points="157.52,-25.36 158.56,-26.09 511.62,478.13 510.58,478.85 "/>
    <polygon id="_456" class="fil7" points="158.21,-25.85 159.26,-26.58 512.31,477.64 511.27,478.37 "/>
    <polygon id="_457" class="fil6" points="158.91,-26.33 159.95,-27.06 513.01,477.15 511.97,477.88 "/>
    <polygon id="_458" class="fil5" points="159.6,-26.82 160.64,-27.55 513.7,476.67 512.66,477.4 "/>
    <polygon id="_459" class="fil4" points="160.3,-27.3 161.34,-28.03 514.39,476.18 513.35,476.91 "/>
    <polygon id="_460" class="fil4" points="160.99,-27.79 162.03,-28.52 515.09,475.7 514.05,476.43 "/>
    <polygon id="_461" class="fil4" points="161.68,-28.28 162.72,-29 515.78,475.21 514.74,475.94 "/>
    <polygon id="_462" class="fil3" points="162.38,-28.76 163.42,-29.49 516.48,474.73 515.44,475.45 "/>
    <polygon id="_463" class="fil3" points="163.07,-29.25 164.11,-29.98 517.17,474.24 516.13,474.97 "/>
    <polygon id="_464" class="fil3" points="163.76,-29.73 164.8,-30.46 517.86,473.75 516.82,474.48 "/>
    <polygon id="_465" class="fil2" points="164.46,-30.22 165.5,-30.95 518.56,473.27 517.52,474 "/>
    <polygon id="_466" class="fil2" points="165.15,-30.7 166.19,-31.43 519.25,472.78 518.21,473.51 "/>
    <polygon id="_467" class="fil2" points="165.84,-31.19 166.88,-31.92 519.94,472.3 518.9,473.03 "/>
    <polygon id="_468" class="fil1" points="166.54,-31.68 167.58,-32.4 520.64,471.81 519.6,472.54 "/>
    <polygon id="_469" class="fil1" points="167.23,-32.16 168.27,-32.89 521.33,471.33 520.29,472.06 "/>
    <polygon id="_470" class="fil0" points="167.92,-32.65 168.96,-33.38 522.02,470.84 520.98,471.57 "/>
    <polygon id="_471" class="fil0" points="168.62,-33.13 169.66,-33.86 522.72,470.36 521.68,471.08 "/>
    <polygon id="_472" class="fil0" points="169.31,-33.62 170.35,-34.35 523.41,469.87 522.37,470.6 "/>
    <polygon id="_473" class="fil76" points="170.01,-34.1 171.05,-34.83 524.1,469.38 523.06,470.11 "/>
    <polygon id="_474" class="fil76" points="170.7,-34.59 171.74,-35.32 524.8,468.9 523.76,469.63 "/>
    <polygon id="_475" class="fil76" points="171.39,-35.08 172.43,-35.8 525.49,468.41 524.45,469.14 "/>
    <polygon id="_476" class="fil89" points="172.09,-35.56 173.13,-36.29 526.19,467.93 525.15,468.66 "/>
    <polygon id="_477" class="fil89" points="172.78,-36.05 173.82,-36.77 526.88,467.44 525.84,468.17 "/>
    <polygon id="_478" class="fil78" points="173.47,-36.53 174.51,-37.26 527.57,466.96 526.53,467.68 "/>
    <polygon id="_479" class="fil79" points="174.17,-37.02 175.21,-37.75 528.27,466.47 527.23,467.2 "/>
    <polygon id="_480" class="fil90" points="174.86,-37.5 175.9,-38.23 528.96,465.98 527.92,466.71 "/>
    <polygon id="_481" class="fil90" points="175.55,-37.99 176.59,-38.72 529.65,465.5 528.61,466.23 "/>
    <polygon id="_482" class="fil91" points="176.25,-38.47 177.29,-39.2 530.35,465.01 529.31,465.74 "/>
    <polygon id="_483" class="fil91" points="176.94,-38.96 177.98,-39.69 531.04,464.53 530,465.26 "/>
    <polygon id="_484" class="fil92" points="177.63,-39.45 178.67,-40.17 531.73,464.04 530.69,464.77 "/>
    <polygon id="_485" class="fil92" points="178.33,-39.93 179.37,-40.66 532.43,463.56 531.39,464.29 "/>
    <polygon id="_486" class="fil92" points="179.02,-40.42 180.06,-41.15 533.12,463.07 532.08,463.8 "/>
    <polygon id="_487" class="fil93" points="179.71,-40.9 180.76,-41.63 533.81,462.59 532.77,463.31 "/>
    <polygon id="_488" class="fil93" points="180.41,-41.39 181.45,-42.12 534.51,462.1 533.47,462.83 "/>
    <polygon id="_489" class="fil84" points="181.1,-41.87 182.14,-42.6 535.2,461.61 534.16,462.34 "/>
    <polygon id="_490" class="fil94" points="181.8,-42.36 182.84,-43.09 535.9,461.13 534.85,461.86 "/>
    <polygon id="_491" class="fil94" points="182.49,-42.85 183.53,-43.57 536.59,460.64 535.55,461.37 "/>
    <polygon id="_492" class="fil94" points="183.18,-43.33 184.22,-44.06 537.28,460.16 536.24,460.89 "/>
    <polygon id="_493" class="fil84" points="183.88,-43.82 184.92,-44.54 537.98,459.67 536.94,460.4 "/>
    <polygon id="_494" class="fil93" points="184.57,-44.3 185.61,-45.03 538.67,459.19 537.63,459.91 "/>
    <polygon id="_495" class="fil93" points="185.26,-44.79 186.3,-45.52 539.36,458.7 538.32,459.43 "/>
    <polygon id="_496" class="fil92" points="185.96,-45.27 187,-46 540.06,458.21 539.02,458.94 "/>
    <polygon id="_497" class="fil92" points="186.65,-45.76 187.69,-46.49 540.75,457.73 539.71,458.46 "/>
    <polygon id="_498" class="fil92" points="187.34,-46.24 188.38,-46.97 541.44,457.24 540.4,457.97 "/>
    <polygon id="_499" class="fil91" points="188.04,-46.73 189.08,-47.46 542.14,456.76 541.1,457.49 "/>
    <polygon id="_500" class="fil91" points="188.73,-47.22 189.77,-47.94 542.83,456.27 541.79,457 "/>
    <polygon id="_501" class="fil90" points="189.42,-47.7 190.47,-48.43 543.52,455.79 542.48,456.51 "/>
    <polygon id="_502" class="fil90" points="190.12,-48.19 191.16,-48.92 544.22,455.3 543.18,456.03 "/>
    <polygon id="_503" class="fil79" points="190.81,-48.67 191.85,-49.4 544.91,454.82 543.87,455.54 "/>
    <polygon id="_504" class="fil78" points="191.51,-49.16 192.55,-49.89 545.6,454.33 544.56,455.06 "/>
    <polygon id="_505" class="fil89" points="192.2,-49.64 193.24,-50.37 546.3,453.84 545.26,454.57 "/>
    <polygon id="_506" class="fil89" points="192.89,-50.13 193.93,-50.86 546.99,453.36 545.95,454.09 "/>
    <polygon id="_507" class="fil76" points="193.59,-50.62 194.63,-51.34 547.69,452.87 546.65,453.6 "/>
    <polygon id="_508" class="fil76" points="194.28,-51.1 195.32,-51.83 548.38,452.39 547.34,453.12 "/>
    <polygon id="_509" class="fil76" points="194.97,-51.59 196.01,-52.31 549.07,451.9 548.03,452.63 "/>
    <polygon id="_510" class="fil0" points="195.67,-52.07 196.71,-52.8 549.77,451.42 548.73,452.14 "/>
    <polygon id="_511" class="fil0" points="196.36,-52.56 197.4,-53.29 550.46,450.93 549.42,451.66 "/>
    <polygon id="_512" class="fil0" points="197.05,-53.04 198.09,-53.77 551.15,450.44 550.11,451.17 "/>
    <polygon id="_513" class="fil1" points="197.75,-53.53 198.79,-54.26 551.85,449.96 550.81,450.69 "/>
    <polygon id="_514" class="fil1" points="198.44,-54.01 199.48,-54.74 552.54,449.47 551.5,450.2 "/>
    <polygon id="_515" class="fil2" points="199.13,-54.5 200.17,-55.23 553.23,448.99 552.19,449.72 "/>
    <polygon id="_516" class="fil2" points="199.83,-54.99 200.87,-55.71 553.93,448.5 552.89,449.23 "/>
    <polygon id="_517" class="fil2" points="200.52,-55.47 201.56,-56.2 554.62,448.02 553.58,448.74 "/>
    <polygon id="_518" class="fil3" points="201.22,-55.96 202.26,-56.69 555.31,447.53 554.27,448.26 "/>
    <polygon id="_519" class="fil3" points="201.91,-56.44 202.95,-57.17 556.01,447.05 554.97,447.77 "/>
    <polygon id="_520" class="fil3" points="202.6,-56.93 203.64,-57.66 556.7,446.56 555.66,447.29 "/>
    <polygon id="_521" class="fil4" points="203.3,-57.41 204.34,-58.14 557.4,446.07 556.35,446.8 "/>
    <polygon id="_522" class="fil4" points="203.99,-57.9 205.03,-58.63 558.09,445.59 557.05,446.32 "/>
    <polygon id="_523" class="fil4" points="204.68,-58.39 205.72,-59.11 558.78,445.1 557.74,445.83 "/>
    <polygon id="_524" class="fil5" points="205.38,-58.87 206.42,-59.6 559.48,444.62 558.44,445.35 "/>
    <polygon id="_525" class="fil6" points="206.07,-59.36 207.11,-60.09 560.17,444.13 559.13,444.86 "/>
    <polygon id="_526" class="fil7" points="206.76,-59.84 207.8,-60.57 560.86,443.65 559.82,444.37 "/>
    <polygon id="_527" class="fil8" points="207.46,-60.33 208.5,-61.06 561.56,443.16 560.52,443.89 "/>
    <polygon id="_528" class="fil8" points="208.15,-60.81 209.19,-61.54 562.25,442.67 561.21,443.4 "/>
    <polygon id="_529" class="fil8" points="208.84,-61.3 209.88,-62.03 562.94,442.19 561.9,442.92 "/>
    <polygon id="_530" class="fil9" points="209.54,-61.78 210.58,-62.51 563.64,441.7 562.6,442.43 "/>
    <polygon id="_531" class="fil10" points="210.23,-62.27 211.27,-63 564.33,441.22 563.29,441.95 "/>
    <polygon id="_532" class="fil11" points="210.92,-62.76 211.97,-63.48 565.02,440.73 563.98,441.46 "/>
    <polygon id="_533" class="fil11" points="211.62,-63.24 212.66,-63.97 565.72,440.25 564.68,440.97 "/>
    <polygon id="_534" class="fil11" points="212.31,-63.73 213.35,-64.46 566.41,439.76 565.37,440.49 "/>
    <polygon id="_535" class="fil12" points="213.01,-64.21 214.05,-64.94 567.11,439.28 566.06,440 "/>
    <polygon id="_536" class="fil12" points="213.7,-64.7 214.74,-65.43 567.8,438.79 566.76,439.52 "/>
    <polygon id="_537" class="fil13" points="214.39,-65.18 215.43,-65.91 568.49,438.3 567.45,439.03 "/>
    <polygon id="_538" class="fil14" points="215.09,-65.67 216.13,-66.4 569.19,437.82 568.15,438.55 "/>
    <polygon id="_539" class="fil14" points="215.78,-66.16 216.82,-66.88 569.88,437.33 568.84,438.06 "/>
    <polygon id="_540" class="fil14" points="216.47,-66.64 217.51,-67.37 570.57,436.85 569.53,437.58 "/>
    <polygon id="_541" class="fil15" points="217.17,-67.13 218.21,-67.86 571.27,436.36 570.23,437.09 "/>
    <polygon id="_542" class="fil16" points="217.86,-67.61 218.9,-68.34 571.96,435.88 570.92,436.6 "/>
    <polygon id="_543" class="fil16" points="218.55,-68.1 219.59,-68.83 572.65,435.39 571.61,436.12 "/>
    <polygon id="_544" class="fil17" points="219.25,-68.58 220.29,-69.31 573.35,434.9 572.31,435.63 "/>
    <polygon id="_545" class="fil17" points="219.94,-69.07 220.98,-69.8 574.04,434.42 573,435.15 "/>
    <polygon id="_546" class="fil17" points="220.63,-69.55 221.67,-70.28 574.73,433.93 573.69,434.66 "/>
    <polygon id="_547" class="fil18" points="221.33,-70.04 222.37,-70.77 575.43,433.45 574.39,434.18 "/>
    <polygon id="_548" class="fil18" points="222.02,-70.53 223.06,-71.25 576.12,432.96 575.08,433.69 "/>
    <polygon id="_549" class="fil19" points="222.72,-71.01 223.76,-71.74 576.81,432.48 575.77,433.2 "/>
    <polygon id="_550" class="fil19" points="223.41,-71.5 224.45,-72.23 577.51,431.99 576.47,432.72 "/>
    <polygon id="_551" class="fil19" points="224.1,-71.98 225.14,-72.71 578.2,431.5 577.16,432.23 "/>
    <polygon id="_552" class="fil20" points="224.8,-72.47 225.84,-73.2 578.9,431.02 577.86,431.75 "/>
    <polygon id="_553" class="fil20" points="225.49,-72.95 226.53,-73.68 579.59,430.53 578.55,431.26 "/>
    <polygon id="_554" class="fil20" points="226.18,-73.44 227.22,-74.17 580.28,430.05 579.24,430.78 "/>
    <polygon id="_555" class="fil21" points="226.88,-73.93 227.92,-74.65 580.98,429.56 579.94,430.29 "/>
    <polygon id="_556" class="fil21" points="227.57,-74.41 228.61,-75.14 581.67,429.08 580.63,429.81 "/>
    <polygon id="_557" class="fil21" points="228.26,-74.9 229.3,-75.63 582.36,428.59 581.32,429.32 "/>
    <polygon id="_558" class="fil22" points="228.96,-75.38 230,-76.11 583.06,428.11 582.02,428.83 "/>
    <polygon id="_559" class="fil22" points="229.65,-75.87 230.69,-76.6 583.75,427.62 582.71,428.35 "/>
    <polygon id="_560" class="fil22" points="230.34,-76.35 231.38,-77.08 584.44,427.13 583.4,427.86 "/>
    <polygon id="_561" class="fil23" points="231.04,-76.84 232.08,-77.57 585.14,426.65 584.1,427.38 "/>
    <polygon id="_562" class="fil23" points="231.73,-77.32 232.77,-78.05 585.83,426.16 584.79,426.89 "/>
    <polygon id="_563" class="fil24" points="232.43,-77.81 233.47,-78.54 586.52,425.68 585.48,426.41 "/>
    <polygon id="_564" class="fil24" points="233.12,-78.3 234.16,-79.02 587.22,425.19 586.18,425.92 "/>
    <polygon id="_565" class="fil24" points="233.81,-78.78 234.85,-79.51 587.91,424.71 586.87,425.43 "/>
    <polygon id="_566" class="fil25" points="234.51,-79.27 235.55,-80 588.61,424.22 587.56,424.95 "/>
    <polygon id="_567" class="fil25" points="235.2,-79.75 236.24,-80.48 589.3,423.73 588.26,424.46 "/>
    <polygon id="_568" class="fil26" points="235.89,-80.24 236.93,-80.97 589.99,423.25 588.95,423.98 "/>
    <polygon id="_569" class="fil27" points="236.59,-80.72 237.63,-81.45 590.69,422.76 589.65,423.49 "/>
    <polygon id="_570" class="fil27" points="237.28,-81.21 238.32,-81.94 591.38,422.28 590.34,423.01 "/>
    <polygon id="_571" class="fil27" points="237.97,-81.7 239.01,-82.42 592.07,421.79 591.03,422.52 "/>
    <polygon id="_572" class="fil28" points="238.67,-82.18 239.71,-82.91 592.77,421.31 591.73,422.04 "/>
    <polygon id="_573" class="fil28" points="239.36,-82.67 240.4,-83.4 593.46,420.82 592.42,421.55 "/>
    <polygon id="_574" class="fil29" points="240.05,-83.15 241.09,-83.88 594.15,420.34 593.11,421.06 "/>
    <polygon id="_575" class="fil30" points="240.75,-83.64 241.79,-84.37 594.85,419.85 593.81,420.58 "/>
    <polygon id="_576" class="fil30" points="241.44,-84.12 242.48,-84.85 595.54,419.36 594.5,420.09 "/>
    <polygon id="_577" class="fil30" points="242.13,-84.61 243.18,-85.34 596.23,418.88 595.19,419.61 "/>
    <polygon id="_578" class="fil31" points="242.83,-85.1 243.87,-85.82 596.93,418.39 595.89,419.12 "/>
    <polygon id="_579" class="fil32" points="243.52,-85.58 244.56,-86.31 597.62,417.91 596.58,418.64 "/>
    <polygon id="_580" class="fil33" points="244.22,-86.07 245.26,-86.79 598.31,417.42 597.27,418.15 "/>
    <polygon id="_581" class="fil33" points="244.91,-86.55 245.95,-87.28 599.01,416.94 597.97,417.66 "/>
    <polygon id="_582" class="fil33" points="245.6,-87.04 246.64,-87.77 599.7,416.45 598.66,417.18 "/>
    <polygon id="_583" class="fil34" points="246.3,-87.52 247.34,-88.25 600.4,415.96 599.36,416.69 "/>
    <polygon id="_584" class="fil35" points="246.99,-88.01 248.03,-88.74 601.09,415.48 600.05,416.21 "/>
    <polygon id="_585" class="fil35" points="247.68,-88.49 248.72,-89.22 601.78,414.99 600.74,415.72 "/>
    <polygon id="_586" class="fil36" points="248.38,-88.98 249.42,-89.71 602.48,414.51 601.44,415.24 "/>
    <polygon id="_587" class="fil36" points="249.07,-89.47 250.11,-90.19 603.17,414.02 602.13,414.75 "/>
    <polygon id="_588" class="fil36" points="249.76,-89.95 250.8,-90.68 603.86,413.54 602.82,414.27 "/>
    <polygon id="_589" class="fil37" points="250.46,-90.44 251.5,-91.17 604.56,413.05 603.52,413.78 "/>
    <polygon id="_590" class="fil38" points="251.15,-90.92 252.19,-91.65 605.25,412.57 604.21,413.29 "/>
    <polygon id="_591" class="fil39" points="251.84,-91.41 252.88,-92.14 605.94,412.08 604.9,412.81 "/>
    <polygon id="_592" class="fil40" points="252.54,-91.89 253.58,-92.62 606.64,411.59 605.6,412.32 "/>
    <polygon id="_593" class="fil40" points="253.23,-92.38 254.27,-93.11 607.33,411.11 606.29,411.84 "/>
    <polygon id="_594" class="fil41" points="253.93,-92.87 254.97,-93.59 608.02,410.62 606.98,411.35 "/>
    <polygon id="_595" class="fil42" points="254.62,-93.35 255.66,-94.08 608.72,410.14 607.68,410.87 "/>
    <polygon id="_596" class="fil42" points="255.31,-93.84 256.35,-94.56 609.41,409.65 608.37,410.38 "/>
    <polygon id="_597" class="fil43" points="256.01,-94.32 257.05,-95.05 610.11,409.17 609.06,409.89 "/>
    <polygon id="_598" class="fil43" points="256.7,-94.81 257.74,-95.54 610.8,408.68 609.76,409.41 "/>
    <polygon id="_599" class="fil43" points="257.39,-95.29 258.43,-96.02 611.49,408.19 610.45,408.92 "/>
    <polygon id="_600" class="fil44" points="258.09,-95.78 259.13,-96.51 612.19,407.71 611.15,408.44 "/>
    <polygon id="_601" class="fil44" points="258.78,-96.26 259.82,-96.99 612.88,407.22 611.84,407.95 "/>
    <polygon id="_602" class="fil44" points="259.47,-96.75 260.51,-97.48 613.57,406.74 612.53,407.47 "/>
    <polygon id="_603" class="fil45" points="260.17,-97.24 261.21,-97.96 614.27,406.25 613.23,406.98 "/>
    <polygon id="_604" class="fil45" points="260.86,-97.72 261.9,-98.45 614.96,405.77 613.92,406.49 "/>
    <polygon id="_605" class="fil45" points="261.55,-98.21 262.59,-98.94 615.65,405.28 614.61,406.01 "/>
    <polygon id="_606" class="fil46" points="262.25,-98.69 263.29,-99.42 616.35,404.8 615.31,405.52 "/>
    <polygon id="_607" class="fil46" points="262.94,-99.18 263.98,-99.91 617.04,404.31 616,405.04 "/>
    <polygon id="_608" class="fil46" points="263.63,-99.66 264.68,-100.39 617.73,403.82 616.69,404.55 "/>
    <polygon id="_609" class="fil47" points="264.33,-100.15 265.37,-100.88 618.43,403.34 617.39,404.07 "/>
    <polygon id="_610" class="fil47" points="265.02,-100.64 266.06,-101.36 619.12,402.85 618.08,403.58 "/>
    <polygon id="_611" class="fil48" points="265.72,-101.12 266.76,-101.85 619.82,402.37 618.77,403.1 "/>
    <polygon id="_612" class="fil48" points="266.41,-101.61 267.45,-102.33 620.51,401.88 619.47,402.61 "/>
    <polygon id="_613" class="fil49" points="267.1,-102.09 268.14,-102.82 621.2,401.4 620.16,402.12 "/>
    <polygon id="_614" class="fil50" points="267.8,-102.58 268.84,-103.31 621.9,400.91 620.86,401.64 "/>
    <polygon id="_615" class="fil50" points="268.49,-103.06 269.53,-103.79 622.59,400.42 621.55,401.15 "/>
    <polygon id="_616" class="fil51" points="269.18,-103.55 270.22,-104.28 623.28,399.94 622.24,400.67 "/>
    <polygon id="_617" class="fil52" points="269.88,-104.03 270.92,-104.76 623.98,399.45 622.94,400.18 "/>
    <polygon id="_618" class="fil52" points="270.57,-104.52 271.62,-105.25 624.67,398.97 623.63,399.7 "/>
    <polygon id="_619" class="fil52" points="271.27,-105.01 272.31,-105.73 625.36,398.48 624.32,399.21 "/>
    <polygon id="_620" class="fil53" points="271.97,-105.49 273.01,-106.22 626.06,398 625.02,398.72 "/>
    <polygon id="_621" class="fil54" points="272.66,-105.98 273.7,-106.71 626.75,397.51 625.71,398.24 "/>
    <polygon id="_622" class="fil54" points="273.35,-106.46 274.39,-107.19 627.44,397.03 626.4,397.75 "/>
    <polygon id="_623" class="fil55" points="274.05,-106.95 275.09,-107.68 628.14,396.54 627.1,397.27 "/>
    <polygon id="_624" class="fil55" points="274.74,-107.43 275.78,-108.16 628.83,396.05 627.79,396.78 "/>
    <polygon id="_625" class="fil54" points="275.44,-107.92 276.48,-108.65 629.52,395.57 628.48,396.3 "/>
    <polygon id="_626" class="fil53" points="276.13,-108.41 277.17,-109.13 630.22,395.08 629.18,395.81 "/>
    <polygon id="_627" class="fil53" points="276.82,-108.89 277.86,-109.62 630.91,394.6 629.87,395.33 "/>
    <polygon id="_628" class="fil52" points="277.52,-109.38 278.56,-110.11 631.61,394.11 630.57,394.84 "/>
    <polygon id="_629" class="fil52" points="278.21,-109.86 279.25,-110.59 632.3,393.63 631.26,394.35 "/>
    <polygon id="_630" class="fil51" points="278.9,-110.35 279.94,-111.08 632.99,393.14 631.95,393.87 "/>
    <polygon id="_631" class="fil50" points="279.6,-110.83 280.64,-111.56 633.69,392.65 632.65,393.38 "/>
    <polygon id="_632" class="fil50" points="280.29,-111.32 281.33,-112.05 634.38,392.17 633.34,392.9 "/>
    <polygon id="_633" class="fil49" points="280.98,-111.8 282.02,-112.53 635.07,391.68 634.03,392.41 "/>
    <polygon id="_634" class="fil48" points="281.68,-112.29 282.72,-113.02 635.77,391.2 634.73,391.93 "/>
    <polygon id="_635" class="fil47" points="282.37,-112.78 283.41,-113.5 636.46,390.71 635.42,391.44 "/>
    <polygon id="_636" class="fil47" points="283.06,-113.26 284.1,-113.99 637.15,390.23 636.11,390.95 "/>
    <polygon id="_637" class="fil47" points="283.76,-113.75 284.8,-114.48 637.85,389.74 636.81,390.47 "/>
    <polygon id="_638" class="fil46" points="284.45,-114.23 285.49,-114.96 638.54,389.26 637.5,389.98 "/>
    <polygon id="_639" class="fil46" points="285.15,-114.72 286.19,-115.45 639.23,388.77 638.19,389.5 "/>
    <polygon id="_640" class="fil45" points="285.84,-115.2 286.88,-115.93 639.93,388.28 638.89,389.01 "/>
    <polygon id="_641" class="fil45" points="286.53,-115.69 287.57,-116.42 640.62,387.8 639.58,388.53 "/>
    <polygon id="_642" class="fil45" points="287.23,-116.18 288.27,-116.9 641.32,387.31 640.27,388.04 "/>
    <polygon id="_643" class="fil44" points="287.92,-116.66 288.96,-117.39 642.01,386.83 640.97,387.56 "/>
    <polygon id="_644" class="fil44" points="288.61,-117.15 289.65,-117.88 642.7,386.34 641.66,387.07 "/>
    <polygon id="_645" class="fil43" points="289.31,-117.63 290.35,-118.36 643.4,385.86 642.36,386.58 "/>
    <polygon id="_646" class="fil43" points="290,-118.12 291.04,-118.85 644.09,385.37 643.05,386.1 "/>
    <polygon id="_647" class="fil43" points="290.69,-118.6 291.73,-119.33 644.78,384.88 643.74,385.61 "/>
    <polygon id="_648" class="fil42" points="291.39,-119.09 292.43,-119.82 645.48,384.4 644.44,385.13 "/>
    <polygon id="_649" class="fil41" points="292.08,-119.57 293.12,-120.3 646.17,383.91 645.13,384.64 "/>
    <polygon id="_650" class="fil40" points="292.77,-120.06 293.81,-120.79 646.86,383.43 645.82,384.16 "/>
    <polygon id="_651" class="fil40" points="293.47,-120.55 294.51,-121.27 647.56,382.94 646.52,383.67 "/>
    <polygon id="_652" class="fil40" points="294.16,-121.03 295.2,-121.76 648.25,382.46 647.21,383.18 "/>
    <polygon id="_653" class="fil39" points="294.85,-121.52 295.9,-122.25 648.94,381.97 647.9,382.7 "/>
    <polygon id="_654" class="fil56" points="295.55,-122 296.59,-122.73 649.64,381.48 648.6,382.21 "/>
    <polygon id="_655" class="fil36" points="296.24,-122.49 297.28,-123.22 650.33,381 649.29,381.73 "/>
    <polygon id="_656" class="fil36" points="296.94,-122.97 297.98,-123.7 651.02,380.51 649.98,381.24 "/>
    <polygon id="_657" class="fil36" points="297.63,-123.46 298.67,-124.19 651.72,380.03 650.68,380.76 "/>
    <polygon id="_658" class="fil34" points="298.32,-123.95 299.36,-124.67 652.41,379.54 651.37,380.27 "/>
    <polygon id="_659" class="fil34" points="299.02,-124.43 300.06,-125.16 653.11,379.06 652.07,379.79 "/>
    <polygon id="_660" class="fil33" points="299.71,-124.92 300.75,-125.65 653.8,378.57 652.76,379.3 "/>
    <polygon id="_661" class="fil33" points="300.4,-125.4 301.44,-126.13 654.49,378.09 653.45,378.81 "/>
    <polygon id="_662" class="fil33" points="301.1,-125.89 302.14,-126.62 655.19,377.6 654.15,378.33 "/>
    <polygon id="_663" class="fil31" points="301.79,-126.37 302.83,-127.1 655.88,377.11 654.84,377.84 "/>
    <polygon id="_664" class="fil31" points="302.48,-126.86 303.52,-127.59 656.57,376.63 655.53,377.36 "/>
    <polygon id="_665" class="fil30" points="303.18,-127.34 304.22,-128.07 657.27,376.14 656.23,376.87 "/>
    <polygon id="_666" class="fil30" points="303.87,-127.83 304.91,-128.56 657.96,375.66 656.92,376.39 "/>
    <polygon id="_667" class="fil57" points="304.56,-128.32 305.6,-129.04 658.65,375.17 657.61,375.9 "/>
    <polygon id="_668" class="fil28" points="305.26,-128.8 306.3,-129.53 659.35,374.69 658.31,375.41 "/>
    <polygon id="_669" class="fil28" points="305.95,-129.29 306.99,-130.02 660.04,374.2 659,374.93 "/>
    <polygon id="_670" class="fil27" points="306.65,-129.77 307.69,-130.5 660.73,373.71 659.69,374.44 "/>
    <polygon id="_671" class="fil27" points="307.34,-130.26 308.38,-130.99 661.43,373.23 660.39,373.96 "/>
    <polygon id="_672" class="fil58" points="308.03,-130.74 309.07,-131.47 662.12,372.74 661.08,373.47 "/>
    <polygon id="_673" class="fil59" points="308.73,-131.23 309.77,-131.96 662.82,372.26 661.77,372.99 "/>
    <polygon id="_674" class="fil59" points="309.42,-131.72 310.46,-132.44 663.51,371.77 662.47,372.5 "/>
    <polygon id="_675" class="fil24" points="310.11,-132.2 311.15,-132.93 664.2,371.29 663.16,372.02 "/>
    <polygon id="_676" class="fil60" points="310.81,-132.69 311.85,-133.42 664.9,370.8 663.86,371.53 "/>
    <polygon id="_677" class="fil60" points="311.5,-133.17 312.54,-133.9 665.59,370.32 664.55,371.04 "/>
    <polygon id="_678" class="fil23" points="312.19,-133.66 313.23,-134.39 666.28,369.83 665.24,370.56 "/>
    <polygon id="_679" class="fil23" points="312.89,-134.14 313.93,-134.87 666.98,369.34 665.94,370.07 "/>
    <polygon id="_680" class="fil22" points="313.58,-134.63 314.62,-135.36 667.67,368.86 666.63,369.59 "/>
    <polygon id="_681" class="fil61" points="314.27,-135.12 315.31,-135.84 668.36,368.37 667.32,369.1 "/>
    <polygon id="_682" class="fil61" points="314.97,-135.6 316.01,-136.33 669.06,367.89 668.02,368.62 "/>
    <polygon id="_683" class="fil21" points="315.66,-136.09 316.7,-136.81 669.75,367.4 668.71,368.13 "/>
    <polygon id="_684" class="fil21" points="316.35,-136.57 317.4,-137.3 670.44,366.92 669.4,367.64 "/>
    <polygon id="_685" class="fil62" points="317.05,-137.06 318.09,-137.79 671.14,366.43 670.1,367.16 "/>
    <polygon id="_686" class="fil62" points="317.74,-137.54 318.78,-138.27 671.83,365.94 670.79,366.67 "/>
    <polygon id="_687" class="fil62" points="318.44,-138.03 319.48,-138.76 672.53,365.46 671.48,366.19 "/>
    <polygon id="_688" class="fil19" points="319.13,-138.51 320.17,-139.24 673.22,364.97 672.18,365.7 "/>
    <polygon id="_689" class="fil19" points="319.82,-139 320.86,-139.73 673.91,364.49 672.87,365.22 "/>
    <polygon id="_690" class="fil63" points="320.52,-139.49 321.56,-140.21 674.61,364 673.57,364.73 "/>
    <polygon id="_691" class="fil63" points="321.21,-139.97 322.25,-140.7 675.3,363.52 674.26,364.25 "/>
    <polygon id="_692" class="fil63" points="321.9,-140.46 322.94,-141.19 675.99,363.03 674.95,363.76 "/>
    <polygon id="_693" class="fil64" points="322.6,-140.94 323.64,-141.67 676.69,362.55 675.65,363.27 "/>
    <polygon id="_694" class="fil65" points="323.29,-141.43 324.33,-142.16 677.38,362.06 676.34,362.79 "/>
    <polygon id="_695" class="fil66" points="323.98,-141.91 325.02,-142.64 678.07,361.57 677.03,362.3 "/>
    <polygon id="_696" class="fil15" points="324.68,-142.4 325.72,-143.13 678.77,361.09 677.73,361.82 "/>
    <polygon id="_697" class="fil15" points="325.37,-142.89 326.41,-143.61 679.46,360.6 678.42,361.33 "/>
    <polygon id="_698" class="fil14" points="326.06,-143.37 327.11,-144.1 680.15,360.12 679.11,360.85 "/>
    <polygon id="_699" class="fil67" points="326.76,-143.86 327.8,-144.58 680.85,359.63 679.81,360.36 "/>
    <polygon id="_700" class="fil12" points="327.45,-144.34 328.49,-145.07 681.54,359.15 680.5,359.87 "/>
    <polygon id="_701" class="fil12" points="328.15,-144.83 329.19,-145.56 682.23,358.66 681.19,359.39 "/>
    <polygon id="_702" class="fil12" points="328.84,-145.31 329.88,-146.04 682.93,358.17 681.89,358.9 "/>
    <polygon id="_703" class="fil68" points="329.53,-145.8 330.57,-146.53 683.62,357.69 682.58,358.42 "/>
    <polygon id="_704" class="fil68" points="330.23,-146.28 331.27,-147.01 684.32,357.2 683.28,357.93 "/>
    <polygon id="_705" class="fil9" points="330.92,-146.77 331.96,-147.5 685.01,356.72 683.97,357.45 "/>
    <polygon id="_706" class="fil9" points="331.61,-147.26 332.65,-147.98 685.7,356.23 684.66,356.96 "/>
    <polygon id="_707" class="fil9" points="332.31,-147.74 333.35,-148.47 686.4,355.75 685.36,356.47 "/>
    <polygon id="_708" class="fil69" points="333,-148.23 334.04,-148.96 687.09,355.26 686.05,355.99 "/>
    <polygon id="_709" class="fil69" points="333.69,-148.71 334.73,-149.44 687.78,354.78 686.74,355.5 "/>
    <polygon id="_710" class="fil6" points="334.39,-149.2 335.43,-149.93 688.48,354.29 687.44,355.02 "/>
    <polygon id="_711" class="fil6" points="335.08,-149.68 336.12,-150.41 689.17,353.8 688.13,354.53 "/>
    <polygon id="_712" class="fil6" points="335.77,-150.17 336.81,-150.9 689.86,353.32 688.82,354.05 "/>
    <polygon id="_713" class="fil70" points="336.47,-150.66 337.51,-151.38 690.56,352.83 689.52,353.56 "/>
    <polygon id="_714" class="fil70" points="337.16,-151.14 338.2,-151.87 691.25,352.35 690.21,353.08 "/>
    <polygon id="_715" class="fil71" points="337.86,-151.63 338.9,-152.35 691.94,351.86 690.9,352.59 "/>
    <polygon id="_716" class="fil3" points="338.55,-152.11 339.59,-152.84 692.64,351.38 691.6,352.1 "/>
    <polygon id="_717" class="fil72" points="339.24,-152.6 340.28,-153.33 693.33,350.89 692.29,351.62 "/>
    <polygon id="_718" class="fil73" points="339.94,-153.08 340.98,-153.81 694.03,350.4 692.98,351.13 "/>
    <polygon id="_719" class="fil73" points="340.63,-153.57 341.67,-154.3 694.72,349.92 693.68,350.65 "/>
    <polygon id="_720" class="fil1" points="341.32,-154.05 342.36,-154.78 695.41,349.43 694.37,350.16 "/>
    <polygon id="_721" class="fil1" points="342.02,-154.54 343.06,-155.27 696.11,348.95 695.07,349.68 "/>
    <polygon id="_722" class="fil74" points="342.71,-155.03 343.75,-155.75 696.8,348.46 695.76,349.19 "/>
    <polygon id="_723" class="fil75" points="343.4,-155.51 344.44,-156.24 697.49,347.98 696.45,348.7 "/>
    <polygon id="_724" class="fil75" points="344.1,-156 345.14,-156.73 698.19,347.49 697.15,348.22 "/>
    <polygon id="_725" class="fil76" points="344.79,-156.48 345.83,-157.21 698.88,347.01 697.84,347.73 "/>
    <polygon id="_726" class="fil77" points="345.48,-156.97 346.52,-157.7 699.57,346.52 698.53,347.25 "/>
    <polygon id="_727" class="fil77" points="346.18,-157.45 347.22,-158.18 700.27,346.03 699.23,346.76 "/>
    <polygon id="_728" class="fil78" points="346.87,-157.94 346.52,-157.7 699.57,346.52 699.92,346.28 "/>
   </g>
  </g>
  <g style="clip-path:url(#id1)">
   <g>
    <polyline id="_729" class="fil95 str0" points="25.11,403.63 164.75,266.22 263.16,375.46 431.18,174.99 459.46,208.26 516.76,138.24 "/>
   </g>
  </g>
  <path class="fil95" d="M270.94 0c149.63,0 270.95,121.3 270.95,270.94 0,149.63 -121.31,270.95 -270.95,270.95 -149.63,0 -270.94,-121.31 -270.94,-270.95 0,-149.63 121.3,-270.94 270.94,-270.94z"/>
 </g>
</svg>
