<svg width="968" height="631" viewBox="0 0 968 631" fill="none" xmlns="http://www.w3.org/2000/svg">
<path fill-rule="evenodd" clip-rule="evenodd" d="M267.72 51.7668C266.006 72.5894 270.291 118.974 272.15 142.209C273.283 156.334 270.314 160.821 256 159.701C258.252 166.759 262.387 170.029 266.184 174.941C273.676 184.641 268.642 187.516 271.887 195.132C278.859 199.506 285.068 192.715 291.099 201.534C295.327 207.716 293.506 216.437 297.163 222.82C301.33 230.098 309.613 226.413 314.361 232.918C319.563 240.041 315.288 246.687 327.36 246.05C331.368 240.791 329.696 240.809 332.571 234.36C337.122 224.146 335.282 232.459 333.428 220.867L335.596 219.659C337.745 218.507 337.001 219.181 338.738 218.043C342.254 215.734 340.016 219.481 342.882 212.891C346.244 205.154 343.622 206.826 350.505 202.986C364.276 205.182 376.136 220.666 398.953 217.921L406.183 205.552C416.021 203.82 414.012 207.44 422.628 206.967C419.256 196.523 409.938 177.995 414.19 164.76C417.786 153.566 433.144 136.842 434.038 128.528C420.684 120.44 405.986 119.897 396.865 106.301C386.021 90.1289 396.003 82.1202 375.607 67.1051L341.299 40.8215C329.963 34.7003 300.619 34.2038 285.087 35.7306C284.286 54.0663 284.731 50.1088 267.725 51.7668H267.72Z" fill="#F8E7AB" stroke="#F1CD51" stroke-width="0.320648" stroke-miterlimit="22.9256"/>
<path fill-rule="evenodd" clip-rule="evenodd" d="M98.0669 34.5794C149.564 69.8926 110.311 37.0195 148.159 111.927C155.258 125.982 164.721 137.531 174.633 148.598C178.225 152.607 183.801 160.789 191.761 162.779C209.367 167.177 203.936 164.302 206.207 181.775C215.487 190.852 219.72 184.033 226.898 198.214C229.633 203.614 229.253 204.841 236.183 206.621C246.883 209.361 242.476 209.206 249.383 213.089C257.32 211.558 261.655 207.235 265.584 202.696C265.359 195.451 260.251 179.883 257.039 175.523C255.4 173.303 227.413 146.94 260.864 149.436C257.254 112.189 264.98 122.057 259.282 74.2155C255.049 38.6821 253.728 52.4562 210.43 51.7302C178.323 51.1963 147.574 38.3356 118.44 26.3038C110.574 23.0582 83.4859 10.3004 72.6602 13.6772C59.6338 17.7424 78.0918 34.2937 85.0264 36.2655C93.8293 38.7664 91.3102 35.7456 98.0669 34.5794Z" fill="#F8E7AB" stroke="#F1CD51" stroke-width="0.320648" stroke-miterlimit="22.9256"/>
<path fill-rule="evenodd" clip-rule="evenodd" d="M446.975 271.389C458.157 268.611 451.714 265.342 460.68 261.024C472.859 255.156 485.801 265.586 493.598 270.147C500.532 274.203 496.374 271.286 503.562 271.791C512.051 272.391 506.783 271.974 512.627 275.304C518.227 265.717 508.694 268.34 523.134 257.057C521.107 251.709 520.357 253.231 517.614 249.03C513.62 242.913 516.616 243.944 514.158 237.396C511.545 230.441 504.503 227.125 502.166 220.962C504.255 216.414 510.37 209.97 514.27 207.717L519.299 202.687C511.718 194.599 516.607 186.59 523.691 182.539C535.692 175.678 527.723 170.798 537.996 170.273L543.685 170.254C543.901 170.235 544.397 170.221 544.72 170.095C548.349 161.164 537.448 160.424 528.716 141.648C517.211 116.905 505.884 97.2486 472.049 103.295C455.998 106.161 456.345 116.774 448.352 128.286C435.887 146.228 416.928 169.922 427.604 197.713C435.03 217.047 442.414 218.1 442.237 231.476C441.96 252.458 433.953 252.107 446.98 271.398L446.975 271.389Z" fill="#F8E7AB" stroke="#F1CD51" stroke-width="0.320648" stroke-miterlimit="22.9256"/>
<path fill-rule="evenodd" clip-rule="evenodd" d="M338.236 289.27C349.68 290.127 354.563 289.916 357.822 301.897C360.828 312.959 358.412 317.385 366.986 325.745C376.88 335.397 382.569 335.079 393.783 348.16C397.838 352.89 397.019 354.436 405.344 354.211C406.604 337.346 411.342 324.471 415.477 307.966C417.364 300.445 420.726 294.848 426.485 290.619C434.342 284.844 439.413 285.42 450.674 284.755L446.427 280.479C440.649 276.278 437.254 276.175 432.446 267.839C426.003 256.673 430.231 249.582 432.947 238.801C437.615 220.273 421.517 209.811 409.685 217.033C403.181 221.004 406.131 222.54 400.919 226.442C394.242 225.744 395.488 224.189 388.815 223.383C355.294 219.332 365.15 216.335 352.115 213.393C346.716 229.589 347.521 219.8 345.166 229.135C341.565 243.4 344.482 244.295 328.576 251.044C312.698 257.779 324.989 272.086 331.751 278.868C335.698 282.826 335.403 284.587 338.236 289.265V289.27Z" fill="#F8E7AB" stroke="#F1CD51" stroke-width="0.320648" stroke-miterlimit="22.9256"/>
<path fill-rule="evenodd" clip-rule="evenodd" d="M606.935 523.789C604.285 529.386 603.226 534.135 605.76 540.64C608.213 546.935 611.692 545.979 616.684 550.709C615.771 569.865 591.23 570.6 616.07 583.344C622.448 586.617 626.259 584.599 633.461 586.772C646.698 590.762 660.871 604.592 694.453 581.644C711.474 570.015 713.23 566.094 719.462 575.199L729.304 575.073C729.581 550.438 732.137 562.001 734.052 550.789C725.507 550.035 714.433 551.796 707.292 549.548C698.92 546.916 699.66 540.574 694.407 534.242C685.566 535.259 687.678 539.029 678.285 538.874C677.676 537.179 675.036 531.231 674.666 529.32C673.514 523.377 674.436 527.437 674.792 523.372C675.663 513.439 674.722 531.128 675.064 520.993C675.293 514.16 670.587 513.551 665.221 510.53C662.131 508.793 659.897 505.369 656.119 503.622C649.858 514.408 647.765 514.146 635.895 518.796C625.744 522.773 611.641 522.815 606.94 523.789H606.935Z" fill="#F8E7AB" stroke="#F1CD51" stroke-width="0.320648" stroke-miterlimit="22.9256"/>
<path fill-rule="evenodd" clip-rule="evenodd" d="M0.668488 6.19775C1.23037 14.6561 1.22569 11.209 5.04652 17.335C5.81912 18.5761 10.0895 26.0321 10.436 26.9267C12.1122 31.2823 11.4146 34.2422 13.62 39.3144C14.7859 41.998 17.3378 46.9531 18.8455 49.5618C33.7964 75.3957 29.0672 56.423 38.652 91.2538C44.8562 113.805 57.0351 103.506 87.6486 133.897C97.1163 143.296 91.4366 144.453 93.333 158.986L121.095 159.496C122.823 159.398 123.909 159.346 125.59 158.925C128.943 158.082 127.369 158.747 129.767 157.22C127.252 152.125 124.724 154.035 122.045 150.19C119.77 146.926 120.833 143.91 118.182 140.229C111.552 131.021 117.489 146.27 104.294 125.125C86.6887 96.9114 76.4811 106.166 70.2488 73.2834C68.418 63.6215 65.4587 61.9073 65.7771 48.5221C65.8754 44.2882 66.4701 38.9959 65.6413 34.9026C64.4941 29.2544 61.9891 29.3433 60.4673 24.8987C56.698 13.8926 63.8105 8.59099 64.7376 0.666595C51.7674 1.23798 9.50416 3.37831 0.668488 6.19775Z" fill="#A7863A"/>
<path fill-rule="evenodd" clip-rule="evenodd" d="M568.413 221.257C569.878 222.161 570.155 221.941 572 223.299C576.111 226.315 572.805 224.076 575.385 226.324C584.104 233.921 591.211 223.472 595.711 240.74C597.631 248.117 596.498 256.786 593.478 262.439C589.662 269.576 586.538 270.869 576.228 270.883C573.582 277.796 579.402 277.702 562.223 284.797C562.035 295.658 566.376 299.766 565.098 311.1C561.132 315.366 555.813 317.432 552.118 319.895C551.875 324.803 552.432 330.526 552.535 333.739C552.98 347.167 551.772 339.458 551.041 346.619C557.685 347.579 561.52 346.188 566.46 349.452C575.942 355.719 574.2 359.887 593.131 356.182C604.392 353.981 602.295 356.585 610.648 357.405C610.18 330.395 617.4 317.137 614.778 296.056C613.532 286.043 610.208 285.8 616.562 277.959C612.713 269.857 611.912 276.021 613.603 268.977C620.387 240.693 634.959 261.816 633.147 239.279C599.888 236.525 569.832 227.711 562.92 193.653L560.294 184.286C559.062 181.953 559.432 182.647 558.186 181.134C555.415 185.457 559.174 197.727 559.315 198.21C560.579 202.65 559.928 200.097 560.79 201.638C565.749 210.513 567.603 208.176 568.418 221.257H568.413Z" fill="#F8E7AB" stroke="#F1CD51" stroke-width="0.320648" stroke-miterlimit="22.9256"/>
<path fill-rule="evenodd" clip-rule="evenodd" d="M793.528 630.066C793.683 629.7 793.814 628.726 793.851 628.918L794.544 625.186C795.701 613.646 793.191 600.63 803.267 587.994C812.894 575.925 831.423 584.5 848.724 580.801C851.814 566.891 826.122 556.737 816.013 544.11C812.37 539.558 809.649 534.125 805.234 530.383C789.033 528.248 786.621 540.411 775.96 545.843C769.226 537.671 772.799 531.311 764.249 528.191C759.07 532.299 760.208 537.01 757.876 542.584C754.154 551.478 733.523 562.545 748.825 587.952C754.112 596.729 762.872 603.787 770.725 608.578C779.654 614.025 780.895 616.175 787.048 624.3C790.115 628.352 789.131 628.314 793.523 630.066H793.528Z" fill="#F8E7AB" stroke="#F1CD51" stroke-width="0.320648" stroke-miterlimit="22.9256"/>
<path fill-rule="evenodd" clip-rule="evenodd" d="M96.236 176.802C88.866 177.518 90.8138 177.092 84.6471 174.98C79.0891 173.074 77.2958 173.837 70.1598 173.654C73.3392 181.195 87.3348 191.714 93.1784 195.737C104.842 203.764 112.02 205.282 123.67 199.118L123.745 208.958C173.388 228.662 148.604 260.176 167.01 281.163C187.388 304.402 213.062 306.674 223.812 340.961C231.665 340.535 232.526 339.551 237.138 336.521C239.086 325.459 229.534 310.397 223.653 304.173C213.647 293.583 202.124 309.385 197.024 284.942C193.194 266.593 194.388 265.501 184.354 251.535C174.207 237.415 175.912 234.717 172.011 216.934C171.627 216.709 170.976 216.119 170.756 216.489C170.752 216.494 162.487 215.857 158.989 208.082C157.931 205.727 157.632 202.992 156.452 200.256C153.497 193.409 154.396 198.158 150.734 193.32C146.197 187.325 149.428 184.52 142.236 178.872C133.868 172.306 137.324 176.619 131.761 166.966L90.2988 166.517C92.5697 170.001 95.6695 171.879 96.2407 176.783L96.236 176.802Z" fill="#F8E7AB" stroke="#F1CD51" stroke-width="0.320648" stroke-miterlimit="22.9256"/>
<path fill-rule="evenodd" clip-rule="evenodd" d="M463.921 389.824C461.022 409.251 449.56 397.064 449.7 413.831C438.13 413.452 436.374 403.921 416.202 406.6C407.751 420.083 412.147 420.894 407.446 427.507C402.371 423.338 395.024 415.025 386.17 419.217C383.44 420.51 378.832 424.781 376.632 426.57C372.033 430.317 371.959 429.53 366.593 432.865C367.098 441.285 382.101 467.339 389.775 470.66C407.863 478.481 402.867 450.146 434.225 465.841L435.7 476.683C446.928 477.381 437.03 476.444 456.316 470.988C452.795 462.586 451.611 469.044 451.817 455.575C448.146 456.043 446.952 457.186 444.259 455.837C441.455 445.004 442.148 440.391 452.505 436.714C457.286 435.019 472.944 430.893 474.831 429.211C478.497 424.228 468.008 424.074 481.372 407.209C486.569 400.647 493.747 394.076 491.584 382.321C479.7 381.042 479.583 388.934 463.911 389.828L463.921 389.824Z" fill="#A7863A"/>
<path fill-rule="evenodd" clip-rule="evenodd" d="M490.151 501.43C488.545 504.779 489.196 505.144 487.688 508.441C485.642 512.914 485.722 511.017 483.301 515.551L495.527 524.037C518.845 542.41 527.264 550.99 558.865 561.439C574.434 566.586 580.498 564.769 584.595 566.38C589.282 568.226 585.859 568.3 591.239 571.2C597.055 567.879 594.377 568.085 596.98 562.835C601.391 553.95 597.678 561.121 605.202 556.892C603.559 549.609 598.9 547.75 596.713 542.335C594.007 535.643 595.21 528.121 593.618 520.529C588.238 517.818 582.769 517.808 578.873 515.644C571.948 511.795 575.741 508.001 569.794 502.756C565.95 500.854 565.435 502.006 561.53 500.475C558.004 499.088 558.566 497.936 554.478 496.161C533.094 508.685 541.377 502.123 532.092 504.329C524.235 506.198 534.072 506.025 525.176 507.861C520.048 508.919 515.099 504.535 509.86 503.739C502.035 502.554 497.99 503.35 490.147 501.421L490.151 501.43Z" fill="#A7863A"/>
<path fill-rule="evenodd" clip-rule="evenodd" d="M477.869 333.692C483.559 361.606 484.383 348.665 507.266 353.85C507.738 361.648 504.723 368.673 505.482 379.155C530.158 390.133 519.791 384.728 549.538 386.306L562.714 387.472L570.155 380.583C574.018 387.791 573.971 400.394 584.974 395.018C585.12 394.694 585.176 393.776 585.19 393.973C585.204 394.165 585.344 393.144 585.354 392.919C585.995 381.028 589.666 370.284 587.695 366.73C580.002 358.009 568.9 370.476 562.719 356.843C554.764 356.993 552.703 359.498 545.638 353.7C537.879 347.335 542.412 346.286 542.004 338.146L527.648 334.718C526.782 323.553 525.724 301.414 519.688 293.949C510.379 296.801 503.225 314.28 490.666 325.422C486.218 329.365 482.037 330.536 477.879 333.692H477.869Z" fill="#F8E7AB" stroke="#F1CD51" stroke-width="0.320648" stroke-miterlimit="22.9256"/>
<path fill-rule="evenodd" clip-rule="evenodd" d="M524.394 192.44C527.119 199.751 531.45 190.627 530.308 202.799C530.027 205.792 527.039 211.768 525.901 216.021L513.554 216.948C511.18 233.167 542.449 256.748 542.697 259.82C540.351 267.928 534.976 266.349 525.644 267.834C527.428 273.075 527.985 268.7 527.095 272.883C525.803 278.948 519.735 277.074 526.683 295.021C533.061 311.493 531.998 321.75 534.063 326.246C542.964 327.988 541.606 322.48 544.364 316.944C547.216 311.217 551.018 310.547 555.799 307.297C554.811 302.426 555.115 296.272 552.998 291.996C550.217 286.376 552.671 295.499 549.777 287.387C554.16 281.303 560.28 279.482 564.859 274.784C570.576 268.92 569.658 266.12 578.311 260.738C584.483 256.903 591.263 253.751 590.233 244.768C588.954 233.57 579.917 236.637 570.108 236.567C562.972 220.545 563.777 230.572 559.357 219.721L555.705 212.7C542.547 193.367 552.544 210.419 549.009 188.122C547.965 181.527 545.647 178.052 538.413 177.973C535.819 182.019 536.854 183.705 533.735 187.087C529.025 192.196 529.516 188.632 524.394 192.44Z" fill="#F8E7AB" stroke="#F1CD51" stroke-width="0.320648" stroke-miterlimit="22.9256"/>
<path fill-rule="evenodd" clip-rule="evenodd" d="M466.547 292.492C458.438 293.944 441.604 291.064 436.753 296.778C420.248 316.204 425.633 307.386 426.724 318.148C419.686 322.579 414.891 336.114 413.955 344.577C419.691 343.284 415.893 342.984 423.231 342.755C435.92 361.428 447.069 355.817 450.613 364.247L452.182 369.188C462.085 364.06 468.004 343.809 482.861 364.739C487.159 370.795 483.816 375.202 495.152 373.328C498.945 367.142 497.479 367.099 497.217 359.016C491.256 358.374 492.586 362.496 484.359 359.826C476.268 357.203 458.068 336.723 471.314 325.417C485.132 313.624 485.825 318.312 500.607 299.986L509.476 288.516C501.768 278.067 495.377 286.811 488.302 279.088C480.014 270.044 481.878 270.344 465.63 270.831C466.421 280.915 469.942 279.355 466.547 292.487V292.492Z" fill="#F8E7AB" stroke="#F1CD51" stroke-width="0.320648" stroke-miterlimit="22.9256"/>
<path fill-rule="evenodd" clip-rule="evenodd" d="M603.254 385.843C600.768 387.566 600.309 387.44 597.589 389.796C597.762 410.759 611.875 397.659 611.819 414.763C623.684 416.145 627.35 423.114 627.795 435.066L640.044 439.075L635.343 464.745C656.212 478.196 639.81 474.875 635.188 487.075C636.654 489.267 639.8 492.386 643.729 493.595C653.365 496.559 646.73 491.956 652.991 488.34C661.906 491.885 665.371 498.456 672.212 504.957C675.836 508.399 680.668 509.565 682.621 512.605C685.983 517.846 682.705 520.473 683.01 527.11C690.97 525.939 691.386 523.55 700.639 526.014C704.928 531.901 703.097 534.303 708.856 538.443C717.524 542.382 732.666 542.406 742.228 539.09C743.127 530.716 741.048 527.995 736.642 524.009C735.096 522.613 726.228 513.766 726.134 513.706C718.287 508.746 719.017 515.654 712.607 506.456C701.711 490.813 696.312 498.69 684.433 492.663C681.315 491.08 675.415 486.682 672.53 483.975C657.2 469.616 659.93 457.916 650.439 443.477C648.051 439.847 645.227 435.188 642.366 430.635C637.253 422.5 632.824 413.808 627.205 404.277C626.479 403.05 611.449 359.381 600.721 370.626C595.533 376.068 601.971 381.838 603.264 385.838L603.254 385.843Z" fill="#F8E7AB" stroke="#F1CD51" stroke-width="0.320648" stroke-miterlimit="22.9256"/>
<path fill-rule="evenodd" clip-rule="evenodd" d="M429.8 491.052C428.128 501.913 437.84 505.374 445.51 508.418C448.3 509.523 468.538 516.417 471.511 516.619C475.35 508.324 474.077 512.244 479.059 505.978C482.917 501.126 481.854 498.859 484.42 493.22C498.182 490.803 504.194 495.969 516.176 497.07L516.284 484.93C523.303 480.996 520.081 486.879 525.513 480.369C525.976 479.816 530.556 471.812 531.164 470.735C535.435 463.227 538.3 460.043 537.247 448.329C531.338 449.346 530.874 455.453 508.825 451.94C504.194 451.205 500.631 449.72 496.861 447.444C488.068 442.133 495.541 445.543 480.96 444.437L476.807 437.534C469.811 437.754 470.682 438.831 464.632 440.695C452.393 444.47 455.605 443.707 456.246 445.739C458.166 451.856 456.626 443.238 459.074 450.189C460.498 454.221 458.864 452.198 460.184 456.769C462.666 465.363 473.571 470.023 455.609 479.652C451.854 481.666 454.28 480.8 451.255 482.799C447.963 484.973 435.887 487.9 429.805 491.066L429.8 491.052Z" fill="#A7863A"/>
<path fill-rule="evenodd" clip-rule="evenodd" d="M248.442 243.794C260.358 244.922 255.812 241.349 263.791 238.787L263.271 249.39C275.89 258.341 284.295 256.692 289.057 272.761C292.344 283.861 303.694 290.53 313.152 298.656C327.125 310.659 340.619 329.103 352.569 343.879C352.854 344.23 355.271 347.068 355.355 347.134C358.623 349.677 356.357 349.054 361.067 349.415C364.298 339.547 354.877 314.223 350.897 306.379C343.967 292.703 341.265 301.306 332.261 296.056C329.7 294.567 313.063 270.152 312.506 258.537C312.057 249.194 313.396 240.066 307.014 235.134C300.796 230.324 292.171 234.67 290.195 223.585C288.195 212.358 288.589 209.619 280.605 203.558C274.541 205.684 278.61 206.27 271.1 211.056C262.962 216.241 261.595 215.796 256.407 223.739C248.727 235.504 246.517 227.111 248.442 243.794Z" fill="#F8E7AB" stroke="#F1CD51" stroke-width="0.320648" stroke-miterlimit="22.9256"/>
<path fill-rule="evenodd" clip-rule="evenodd" d="M948.801 398.193C946.511 416.004 945.392 420.856 934.838 430.331C925.501 438.714 917.888 442.55 907.586 449.065C878.321 467.569 886.637 483.717 888.276 518.853L904.613 515.157C908.101 507.486 913.088 502.952 917.911 497.599C940.293 472.749 926.883 481.591 934.178 500.456C947.265 494.709 934.543 468.726 937.31 458.895C940.822 453.134 942.484 454.123 946.862 445.257C952.86 433.122 962.263 420.556 964.974 414.402C969.328 404.511 967.029 401.865 963.728 394.287C955.567 395.729 960.474 397.584 948.801 398.188V398.193Z" fill="#A2833A"/>
<path fill-rule="evenodd" clip-rule="evenodd" d="M827.504 486.143C828.632 493.126 829.095 488.363 830.505 495.065C806.962 508.277 813.7 505.013 801.966 500.648C801.558 507.706 800.332 508.638 806.751 510.366C822.901 514.712 825.841 501.955 840.291 520.581L878.593 521.438C884.118 507.008 882.943 440.082 854.02 432.387C853.795 438.227 855.284 445.791 852.395 450.437C848.71 456.366 847.207 453.383 844.852 463.536C841.167 479.427 837.772 476.828 827.499 486.143H827.504Z" fill="#F8E7AB" stroke="#F1CD51" stroke-width="0.320648" stroke-miterlimit="22.9256"/>
<path fill-rule="evenodd" clip-rule="evenodd" d="M920.43 394.095C908.654 396.315 903.756 398.113 892.504 401.008C883.528 403.312 870.418 403.598 864.546 408.365C851.084 419.297 864.068 422.523 868.727 428.832C882.447 447.402 880.424 463.49 905.971 442.358C913.332 436.269 919.377 432.237 925.988 426.884C930.507 423.226 940.457 413.939 940.653 405.752C940.902 395.308 929.528 392.381 920.43 394.095Z" fill="#F8E7AB" stroke="#F1CD51" stroke-width="0.320648" stroke-miterlimit="22.9256"/>
<path fill-rule="evenodd" clip-rule="evenodd" d="M501.605 433.839L504.732 440.606L528.463 443.758C531.52 430.083 517.01 424.861 523.462 414.538C527.718 407.728 543.011 410.553 544.786 396.666C535.304 392.882 531.67 395.444 520.746 394.1C512.702 393.111 507.013 389.14 499.324 388.686C499.844 410.791 492.671 399.378 486.387 413.1C484.434 417.367 482.936 425.408 484.949 430.659C487.777 438.03 485.755 433.928 490.503 434.232C493.687 434.433 496.435 433.323 501.605 433.834V433.839Z" fill="#A7863A" stroke="#F1CD51" stroke-width="0.320648" stroke-miterlimit="22.9256"/>
<path fill-rule="evenodd" clip-rule="evenodd" d="M380.991 410C395.745 408.927 391.545 409.213 402.853 413.189C407.577 407.761 404.946 406.248 411.314 400.703C409.671 396.17 411.202 398.933 406.042 396.315C408.856 385.014 407.062 380.494 398.643 375.853C398.807 367.011 402.876 372.888 398.128 365.783L390.594 357.26L379.624 360.983C378.977 353.845 380.719 350.291 382.101 344.923C363.858 342.099 373.949 345.926 372.539 354.206C371.434 360.683 364.013 359.011 366.124 372.879C368.259 386.868 382.915 390.54 380.986 410H380.991Z" fill="#F8E7AB" stroke="#F1CD51" stroke-width="0.320648" stroke-miterlimit="22.9256"/>
<path fill-rule="evenodd" clip-rule="evenodd" d="M593.197 504.193C587.568 504.179 586.95 503.065 582.633 505.313C584.23 511.86 597.739 512.937 602.332 512.535C602.66 512.507 609.529 511.031 611.224 510.736C614.516 503.613 610.845 504.306 618.304 501.009C623.801 503.083 623.066 503.257 624.686 508.938C630.337 506.919 626.301 508.062 628.296 507.406C631.325 506.413 628.343 507.083 632.796 506.399C634.289 506.17 635.216 506.292 636.631 505.954L641.594 503.903C641.275 503.645 640.746 502.924 640.564 503.233L633.348 500.081C620.336 494.311 630.291 486.621 625.931 471.971L623.801 473.418C620.561 476.257 619.896 481.708 602.145 483.268C600.417 479.947 598.015 474.027 593.716 473.54L593.197 504.198V504.193Z" fill="#F8E7AB" stroke="#F1CD51" stroke-width="0.320648" stroke-miterlimit="22.9256"/>
<path fill-rule="evenodd" clip-rule="evenodd" d="M566.409 426.284C559.521 428.069 559.961 428.101 557.269 431.305C558.069 440.372 562.035 438.789 565.608 446.128C571.232 443.472 573.957 437.834 581.73 444.77C585.419 448.062 582.048 445.678 586.183 447.791C590.2 449.842 592.157 451.2 595.454 453.654C608.508 426.57 590.631 445.894 588.379 432.822C587.564 428.111 587.929 422.491 588.346 417.943C588.683 417.714 592.251 415.531 592.452 415.334C595.365 412.501 594.709 413.878 596.09 409.667C576.841 404.984 566.549 406.056 566.409 426.284Z" fill="#F8E7AB" stroke="#F1CD51" stroke-width="0.320648" stroke-miterlimit="22.9256"/>
<path fill-rule="evenodd" clip-rule="evenodd" d="M739.657 511.991C740.528 520.412 745.903 523.911 751.644 528.393L752.843 526.491C756.729 519.55 756.214 515.415 770.369 517.124C774.747 525.18 772.008 530.271 781.04 528.252C785.961 527.152 791.44 522.173 796.267 519.817C795.045 514.872 790.147 502.882 783.175 499.791C756.851 510.521 764.979 501.899 739.657 511.996V511.991Z" fill="#F8E7AB" stroke="#F1CD51" stroke-width="0.320648" stroke-miterlimit="22.9256"/>
<path fill-rule="evenodd" clip-rule="evenodd" d="M536.015 492.396C540.333 492.063 557.568 486.335 560.607 484.115C563.89 480.622 561.792 475.147 566.259 460.862C562.532 457.659 561.211 458.829 558.421 452.385C555.887 446.545 557.77 445.21 549.913 445.383C546.766 449.411 549.243 447.037 547.778 450.292C541.232 464.829 546.274 451.172 541.381 468.59C537.116 483.774 531.651 473.058 536.02 492.4L536.015 492.396Z" fill="#F8E7AB" stroke="#F1CD51" stroke-width="0.320648" stroke-miterlimit="22.9256"/>
<path fill-rule="evenodd" clip-rule="evenodd" d="M543.755 418.336L531.483 417.184C531.886 422.814 537.017 436.728 540.693 439.557C545.497 435.857 544.519 432.747 547.614 429.015C551.903 423.849 554.047 427.666 557.662 420.561C559.657 416.636 559.24 412.576 561.797 407.883C566.704 398.867 569.059 405.921 569.672 397.64C564.854 394.638 564.835 395.453 562.021 398.853C556.899 405.045 566.634 400.08 556.079 405.508C546.354 410.506 548.906 405.752 544.823 415.737C544.659 416.13 544.43 416.697 544.299 417.03C544.163 417.362 544.008 417.938 543.76 418.341L543.755 418.336Z" fill="#F8E7AB" stroke="#F1CD51" stroke-width="0.320648" stroke-miterlimit="22.9256"/>
<path fill-rule="evenodd" clip-rule="evenodd" d="M431.509 401.12L441.075 404.052C447.696 393.622 444.526 397.261 454.383 393.046C453.165 385.299 450.36 386.761 450.496 375.965C448.455 376.729 437.657 382.082 436.257 383.595C433.864 386.185 434.047 392.25 431.509 401.12Z" fill="#F8E7AB" stroke="#F1CD51" stroke-width="0.320648" stroke-miterlimit="22.9256"/>
<path fill-rule="evenodd" clip-rule="evenodd" d="M416.099 382.897L414.634 391.903C420.379 392.489 425.544 392.161 427.763 388.981C428.578 387.81 431.448 376.242 431.626 375.225C426.466 374.78 424.977 375.291 421.166 373.085C417.467 370.945 417.874 368.303 413.318 368.195C407.84 368.064 406.936 370.219 408.439 375.876C409.46 379.721 412.583 381.117 416.095 382.902L416.099 382.897Z" fill="#F8E7AB" stroke="#F1CD51" stroke-width="0.320648" stroke-miterlimit="22.9256"/>
<path fill-rule="evenodd" clip-rule="evenodd" d="M812.548 520.731C814.248 525.142 816.327 528.388 819.056 532.641C822.475 537.966 824.422 540.71 831.713 538.401C836.386 522.674 824.652 513.949 812.548 520.726V520.731Z" fill="#F8E7AB" stroke="#F1CD51" stroke-width="0.320648" stroke-miterlimit="22.9256"/>
</svg>
